SplineFontDB: 3.2
FontName: TlwgMono-Bold
FullName: Tlwg Mono Bold
FamilyName: TlwgMono
Weight: Bold
Copyright: TlwgMono-Bold, Free Thai Monospace outline font.\n\nCopyright (C) 2003 Poonlap Veerathanabutr <poonlap@linux.thai.net>
UComments: "2003-11-26: Created. +AAoA-PfaEdit 1.0 (http://pfaedit.sf.net).+AAoACgAA-TLWG is Thai Linux Working Group http://linux.thai.net+AAoACgAA-Imported ISO-8859-1 from FreeMono.sfd.+AAoA-http://www.nongnu.org/freefont/+AAoACgAA-Created from PseudoMono-Bold"
Version: 002.003
ItalicAngle: 0
UnderlinePosition: -100
UnderlineWidth: 50
Ascent: 800
Descent: 200
InvalidEm: 0
LayerCount: 3
Layer: 0 0 "Back" 1
Layer: 1 0 "Fore" 0
Layer: 2 1 "Quad" 0
FSType: 0
OS2Version: 4
OS2_WeightWidthSlopeOnly: 0
OS2_UseTypoMetrics: 1
CreationTime: 1153666223
ModificationTime: 1620797537
PfmFamily: 49
TTFWeight: 700
TTFWidth: 5
LineGap: 0
VLineGap: 0
OS2TypoAscent: 861
OS2TypoAOffset: 0
OS2TypoDescent: -371
OS2TypoDOffset: 0
OS2TypoLinegap: 0
OS2WinAscent: 0
OS2WinAOffset: 1
OS2WinDescent: 0
OS2WinDOffset: 1
HheadAscent: 0
HheadAOffset: 1
HheadDescent: 0
HheadDOffset: 1
OS2Vendor: 'PfEd'
Lookup: 1 0 0 "'ccmp' Pali-Sanskrit Descender Removal" { "'ccmp' Pali-Sanskrit Descender Removal" ("descless") } ['ccmp' ('thai' <'PAL ' 'SAN ' > ) ]
MarkAttachClasses: 1
DEI: 91125
ShortTable: maxp 16
  0
  0
  0
  0
  0
  0
  0
  2
  1
  2
  22
  0
  256
  0
  0
  0
EndShort
TtTable: prep
PUSHW_1
 511
SCANCTRL
PUSHB_1
 1
SCANTYPE
SVTCA[y-axis]
MPPEM
PUSHB_1
 8
LT
IF
PUSHB_2
 1
 1
INSTCTRL
EIF
PUSHB_2
 70
 6
CALL
IF
POP
PUSHB_1
 16
EIF
MPPEM
PUSHB_1
 20
GT
IF
POP
PUSHB_1
 128
EIF
SCVTCI
PUSHB_1
 6
CALL
NOT
IF
SVTCA[y-axis]
PUSHB_1
 6
DUP
RCVT
PUSHB_1
 3
CALL
WCVTP
SVTCA[x-axis]
PUSHB_1
 7
DUP
RCVT
PUSHB_1
 3
CALL
WCVTP
EIF
PUSHB_1
 20
CALL
EndTTInstrs
TtTable: fpgm
PUSHB_1
 0
FDEF
PUSHB_1
 0
SZP0
MPPEM
PUSHB_1
 42
LT
IF
PUSHB_1
 74
SROUND
EIF
PUSHB_1
 0
SWAP
MIAP[rnd]
RTG
PUSHB_1
 6
CALL
IF
RTDG
EIF
MPPEM
PUSHB_1
 42
LT
IF
RDTG
EIF
DUP
MDRP[rp0,rnd,grey]
PUSHB_1
 1
SZP0

StartChar: micro
Encoding: 181 181 0
Width: 600
Flags: W
HStem: -16 100<204.178 350.564> 0 100<510 562.708> 337 100<21.0315 95 317.264 410>
VStem: 13 182<346.032 427.968> 95 100<-144.969 -7 93.0204 337> 309 201<346.355 427.968> 410 100<126.053 337>
LayerCount: 3
Fore
SplineSet
195 -7 m 1xaa
 195 -87 l 2
 195 -130 180 -153 145 -153 c 0
 111 -153 95 -130 95 -87 c 2
 95 337 l 1xaa
 79 337 l 2
 37 337 13 352 13 387 c 0xb0
 13 422 36 437 79 437 c 2
 195 437 l 1
 195 144 l 2
 195 101 214 84 260 84 c 0
 304 84 346 99 410 138 c 1
 410 337 l 1xaa
 375 337 l 2
 333 337 309 353 309 387 c 0xa4
 309 422 332 437 375 437 c 2
 510 437 l 1
 510 100 l 1
 549 100 571 82 571 50 c 0
 571 16 547 0 505 0 c 2
 410 0 l 1x62
 410 22 l 1
 356 -4 305 -16 253 -16 c 0
 232 -16 215 -13 195 -7 c 1xaa
EndSplineSet
Validated: 1
Layer: 2
SplineSet
195 -7 m 1,0,-1
 195 -87 l 2,1,2
 195 -153 195 -153 145 -153 c 128,-1,3
 95 -153 95 -153 95 -87 c 2,4,-1
 95 337 l 1,5,-1
 79 337 l 2,6,7
 13 337 13 337 13 387 c 128,-1,8
 13 437 13 437 79 437 c 2,9,-1
 195 437 l 1,10,-1
 195 144 l 2,11,12
 195 112 195 112 210 98 c 128,-1,13
 225 84 225 84 260 84 c 0,14,15
 321 84 321 84 410 138 c 1,16,-1
 410 337 l 1,17,-1
 375 337 l 2,18,19
 309 337 309 337 309 387 c 128,-1,20
 309 437 309 437 375 437 c 2,21,-1
 510 437 l 1,22,-1
 510 100 l 1,23,24
 571 100 571 100 571 50 c 128,-1,25
 571 0 571 0 505 0 c 2,26,-1
 410 0 l 1,27,-1
 410 22 l 1,28,29
 331 -16 331 -16 253 -16 c 0,30,31
 225 -16 225 -16 195 -7 c 1,0,-1
EndSplineSet
EndChar

StartChar: uni0E31
Encoding: 3633 3633 1
Width: 600
Flags: W
HStem: 502 60<315.295 430.5> 642 55<314.626 381.729>
VStem: 265 43<566.495 636.143> 388 46<599 635.696>
LayerCount: 3
Fore
SplineSet
348 642 m 0
 326 642 308 621 308 599 c 0
 308 577 326 562 348 562 c 0
 370 562 388 577 388 599 c 0
 388 621 370 642 348 642 c 0
348 697 m 16
 370 697 434 685 434 625 c 0
 434 617 433 608 433 599 c 1
 491 599 529 659 554 682 c 9
 618 621 l 17
 575 564 548 539 487 515 c 16
 463 505 441 502 420 502 c 0
 395 502 370 507 342 514 c 0
 300 524 265 555 265 599 c 24
 265 650 297 697 348 697 c 16
EndSplineSet
Validated: 1
Layer: 2
SplineSet
348 642 m 128,-1,1
 332 642 332 642 320 629 c 128,-1,2
 308 616 308 616 308 599 c 0,3,4
 308 583 308 583 319.5 572.5 c 128,-1,5
 331 562 331 562 348 562 c 128,-1,6
 365 562 365 562 376.5 572.5 c 128,-1,7
 388 583 388 583 388 599 c 0,8,9
 388 616 388 616 376 629 c 128,-1,0
 364 642 364 642 348 642 c 128,-1,1
348 697 m 16,10,11
 375 697 375 697 404.5 680.5 c 128,-1,12
 434 664 434 664 434 625 c 0,13,14
 434 621 434 621 433.5 612.5 c 128,-1,15
 433 604 433 604 433 599 c 1,16,17
 453 599 453 599 473 609.5 c 128,-1,18
 493 620 493 620 505 631.5 c 128,-1,19
 517 643 517 643 533 660 c 128,-1,20
 549 677 549 677 554 682 c 1,21,-1
 618 621 l 1,22,23
 584 577 584 577 557.5 554.5 c 128,-1,24
 531 532 531 532 487 515 c 0,25,26
 456 502 456 502 420 502 c 0,27,28
 390 502 390 502 342 514 c 0,29,30
 309 522 309 522 287 544.5 c 128,-1,31
 265 567 265 567 265 599 c 0,32,33
 265 639 265 639 288 668 c 128,-1,34
 311 697 311 697 348 697 c 16,10,11
EndSplineSet
EndChar

StartChar: uni0E34
Encoding: 3636 3636 2
Width: 600
Flags: W
HStem: 500 57<230 403> 586 80<232.479 398.852>
LayerCount: 3
Fore
SplineSet
346 586 m 2
 293 586 l 2
 262 586 230 583 230 557 c 9
 403 557 l 17
 403 583 375 586 346 586 c 2
322 666 m 0
 424 666 490 630 490 500 c 9
 150 500 l 17
 150 626 210 666 322 666 c 0
EndSplineSet
Validated: 1
Layer: 2
SplineSet
346 586 m 2,0,-1
 293 586 l 2,1,2
 230 586 230 586 230 557 c 1,3,-1
 403 557 l 1,4,5
 403 586 403 586 346 586 c 2,0,-1
322 666 m 0,6,7
 405 666 405 666 447.5 629 c 128,-1,8
 490 592 490 592 490 500 c 1,9,-1
 150 500 l 1,10,11
 150 591 150 591 192 628.5 c 128,-1,12
 234 666 234 666 322 666 c 0,6,7
EndSplineSet
EndChar

StartChar: uni0E35
Encoding: 3637 3637 3
Width: 600
Flags: W
HStem: 500 72<201 329> 603 65<203.415 326.342>
VStem: 428 97<572 668>
LayerCount: 3
Fore
SplineSet
268 603 m 24
 239 603 201 602 201 572 c 9
 329 572 l 17
 329 600 295 603 268 603 c 24
268 668 m 0
 358 668 411 642 428 572 c 9
 428 668 l 25
 525 668 l 25
 525 500 l 25
 100 500 l 17
 100 606 160 668 268 668 c 0
EndSplineSet
Validated: 1
Layer: 2
SplineSet
268 603 m 24,0,1
 201 603 201 603 201 572 c 1,2,-1
 329 572 l 1,3,4
 329 603 329 603 268 603 c 24,0,1
268 668 m 0,5,6
 337 668 337 668 376.5 645.5 c 128,-1,7
 416 623 416 623 428 572 c 1,8,-1
 428 668 l 1,9,-1
 525 668 l 1,10,-1
 525 500 l 1,11,-1
 100 500 l 1,12,13
 100 580 100 580 143.5 624 c 128,-1,14
 187 668 187 668 268 668 c 0,5,6
EndSplineSet
EndChar

StartChar: uni0E36
Encoding: 3638 3638 4
Width: 600
Flags: W
HStem: 500 64<196 331> 500 49<397.619 469.825> 594 72<198.366 327.371> 642 44<396.909 467.949>
VStem: 331 57<564.027 587.569> 478 44<556.318 632.645>
LayerCount: 3
Fore
SplineSet
432 642 m 0x5c
 407 642 388 614 388 595 c 0
 388 576 410 549 435 549 c 0
 460 549 478 576 478 595 c 0
 478 614 457 642 432 642 c 0x5c
256 594 m 0xac
 234 594 196 589 196 564 c 9
 331 564 l 17
 331 588 296 594 256 594 c 0xac
239 666 m 16
 285 666 353 633 353 633 c 1
 353 633 395 686 432 686 c 16
 482 686 522 647 522 598 c 16
 522 559 503 546 477 525 c 24
 454 507 407 500 407 500 c 9
 104 500 l 17x5c
 104 630 156 666 239 666 c 16
EndSplineSet
Validated: 1
Layer: 2
SplineSet
432 642 m 128,-1,1
 414 642 414 642 401 626.5 c 128,-1,2
 388 611 388 611 388 595 c 0,3,4
 388 580 388 580 402.5 564.5 c 128,-1,5
 417 549 417 549 435 549 c 128,-1,6
 453 549 453 549 465.5 564 c 128,-1,7
 478 579 478 579 478 595 c 0,8,9
 478 610 478 610 464 626 c 128,-1,0
 450 642 450 642 432 642 c 128,-1,1
256 594 m 0,10,11
 196 594 196 594 196 564 c 1,12,-1
 331 564 l 1,13,14
 331 594 331 594 256 594 c 0,10,11
239 666 m 16,15,16
 259 666 259 666 287.5 658 c 128,-1,17
 316 650 316 650 334.5 641.5 c 2,18,-1
 353 633 l 1,19,20
 395 686 395 686 432 686 c 0,21,22
 470 686 470 686 496 660.5 c 128,-1,23
 522 635 522 635 522 598 c 0,24,25
 522 580 522 580 515 565.5 c 128,-1,26
 508 551 508 551 501.5 545.5 c 128,-1,27
 495 540 495 540 477 525 c 0,28,29
 467 517 467 517 449.5 510.5 c 128,-1,30
 432 504 432 504 419.5 502 c 2,31,-1
 407 500 l 1,32,-1
 104 500 l 1,33,34
 104 592 104 592 138 629 c 128,-1,35
 172 666 172 666 239 666 c 16,15,16
EndSplineSet
EndChar

StartChar: uni0E37
Encoding: 3639 3639 5
Width: 600
Flags: W
HStem: 500 76<177 276 422 458> 605 63<177.725 273.955>
VStem: 111 66<576 600.605> 354 68<576 667> 458 66<576 666>
LayerCount: 3
Fore
SplineSet
222 605 m 8
 201 605 177 603 177 576 c 9
 276 576 l 17
 276 599 249 605 222 605 c 8
223 668 m 16
 283 668 320 635 354 576 c 9
 354 667 l 25
 422 667 l 25
 422 576 l 25
 458 576 l 25
 458 666 l 25
 524 666 l 25
 524 500 l 25
 111 500 l 17
 111 631 144 668 223 668 c 16
EndSplineSet
Validated: 1
Layer: 2
SplineSet
222 605 m 8,0,1
 177 605 177 605 177 576 c 1,2,-1
 276 576 l 1,3,4
 276 605 276 605 222 605 c 8,0,1
223 668 m 16,5,6
 266 668 266 668 296.5 645.5 c 128,-1,7
 327 623 327 623 354 576 c 1,8,-1
 354 667 l 1,9,-1
 422 667 l 1,10,-1
 422 576 l 1,11,-1
 458 576 l 1,12,-1
 458 666 l 1,13,-1
 524 666 l 1,14,-1
 524 500 l 1,15,-1
 111 500 l 1,16,17
 111 596 111 596 136.5 632 c 128,-1,18
 162 668 162 668 223 668 c 16,5,6
EndSplineSet
EndChar

StartChar: uni0E47
Encoding: 3655 3655 6
Width: 600
Flags: W
HStem: 500 38<420.35 465.381> 583 35<420.565 465.327> 682 68<256.804 445.261>
VStem: 169 72<598.805 666.596> 466 32<539.38 581.633>
LayerCount: 3
Fore
SplineSet
443 583 m 0
 430 583 420 574 420 561 c 0
 420 548 430 538 443 538 c 0
 456 538 466 548 466 561 c 0
 466 574 456 583 443 583 c 0
285 500 m 17
 242 516 169 544 169 615 c 0
 169 660 177 691 205 712 c 0
 242 740 281 750 347 750 c 0
 447 750 481 799 481 799 c 9
 516 754 l 17
 516 754 474 681 360 681 c 0
 339 681 324 682 311 682 c 0
 260 682 241 646 241 628 c 0
 241 605 288 583 288 583 c 9
 335 618 l 1
 376 583 l 9
 388 583 l 17
 388 590 418 618 444 618 c 0
 477 618 498 585 498 558 c 0
 498 541 486 530 473 515 c 0
 465 505 449 500 449 500 c 1
 382 500 l 9
 335 535 l 25
 285 500 l 17
EndSplineSet
Validated: 1
Layer: 2
SplineSet
443 583 m 128,-1,1
 433 583 433 583 426.5 577 c 128,-1,2
 420 571 420 571 420 561 c 128,-1,3
 420 551 420 551 426.5 544.5 c 128,-1,4
 433 538 433 538 443 538 c 128,-1,5
 453 538 453 538 459.5 544.5 c 128,-1,6
 466 551 466 551 466 561 c 128,-1,7
 466 571 466 571 459.5 577 c 128,-1,0
 453 583 453 583 443 583 c 128,-1,1
285 500 m 17,8,9
 262 508 262 508 247.5 515 c 128,-1,10
 233 522 233 522 212 536 c 128,-1,11
 191 550 191 550 180 570 c 128,-1,12
 169 590 169 590 169 615 c 0,13,14
 169 685 169 685 205 712 c 0,15,16
 255 750 255 750 347 750 c 0,17,18
 391 750 391 750 424.5 762 c 128,-1,19
 458 774 458 774 469.5 786.5 c 2,20,-1
 481 799 l 1,21,-1
 516 754 l 2,22,23
 514 751 514 751 510.5 746 c 128,-1,24
 507 741 507 741 493.5 728.5 c 128,-1,25
 480 716 480 716 464 706.5 c 128,-1,26
 448 697 448 697 420 689 c 128,-1,27
 392 681 392 681 360 681 c 0,28,29
 348 681 348 681 332 681.5 c 128,-1,30
 316 682 316 682 311 682 c 0,31,32
 277 682 277 682 259 664 c 128,-1,33
 241 646 241 646 241 628 c 0,34,35
 241 618 241 618 252.5 606.5 c 128,-1,36
 264 595 264 595 276 589 c 2,37,-1
 288 583 l 1,38,-1
 335 618 l 1,39,-1
 376 583 l 1,40,-1
 388 583 l 1,41,42
 388 590 388 590 407.5 604 c 128,-1,43
 427 618 427 618 444 618 c 0,44,45
 467 618 467 618 482.5 599 c 128,-1,46
 498 580 498 580 498 558 c 0,47,48
 498 544 498 544 473 515 c 0,49,50
 469 511 469 511 463 507 c 128,-1,51
 457 503 457 503 453 501.5 c 2,52,-1
 449 500 l 1,53,-1
 382 500 l 1,54,-1
 335 535 l 1,55,-1
 285 500 l 17,8,9
EndSplineSet
EndChar

StartChar: uni0E48
Encoding: 3656 3656 7
Width: 600
Flags: W
HStem: 700 155<431 528>
VStem: 431 97<700 855>
LayerCount: 3
Fore
SplineSet
431 855 m 1
 528 855 l 1
 528 700 l 1
 431 700 l 1
 431 855 l 1
EndSplineSet
Validated: 1
Layer: 2
SplineSet
431 855 m 1,0,-1
 528 855 l 1,1,-1
 528 700 l 1,2,-1
 431 700 l 1,3,-1
 431 855 l 1,0,-1
EndSplineSet
EndChar

StartChar: uni0E49
Encoding: 3657 3657 8
Width: 600
Flags: W
HStem: 700 108<363.133 420.351> 700 79<319 363> 871 33<363.477 417.766>
VStem: 317 42<810.4 869.004> 422 43<810.223 869.123>
LayerCount: 3
Fore
SplineSet
390 871 m 0xb8
 373 871 359 857 359 840 c 0
 359 822 373 808 390 808 c 0
 408 808 422 822 422 840 c 0
 422 857 408 871 390 871 c 0xb8
390 904 m 16
 427 904 465 873 465 839 c 0
 465 816 451 781 451 781 c 1
 451 781 531 796 558 847 c 9
 623 813 l 17
 623 813 599 755 568 732 c 24
 533 706 469 700 460 700 c 2
 319 700 l 9
 319 779 l 17
 363 779 l 1x78
 363 779 317 797 317 840 c 8
 317 878 352 904 390 904 c 16
EndSplineSet
Validated: 1
Layer: 2
SplineSet
390 871 m 128,-1,1
 377 871 377 871 368 862 c 128,-1,2
 359 853 359 853 359 840 c 128,-1,3
 359 827 359 827 368 817.5 c 128,-1,4
 377 808 377 808 390 808 c 0,5,6
 404 808 404 808 413 817 c 128,-1,7
 422 826 422 826 422 840 c 0,8,9
 422 853 422 853 412.5 862 c 128,-1,0
 403 871 403 871 390 871 c 128,-1,1
390 904 m 16,10,11
 418 904 418 904 441.5 884 c 128,-1,12
 465 864 465 864 465 839 c 0,13,14
 465 829 465 829 461.5 814.5 c 128,-1,15
 458 800 458 800 454.5 790.5 c 2,16,-1
 451 781 l 1,17,18
 460 783 460 783 474 786.5 c 128,-1,19
 488 790 488 790 517 807 c 128,-1,20
 546 824 546 824 558 847 c 1,21,-1
 623 813 l 1,22,23
 599 755 599 755 568 732 c 0,24,25
 546 715 546 715 511 707.5 c 128,-1,26
 476 700 476 700 460 700 c 2,27,-1
 319 700 l 1,28,-1
 319 779 l 1,29,-1
 363 779 l 2,30,31
 358 781 358 781 350.5 785 c 128,-1,32
 343 789 343 789 330 805 c 128,-1,33
 317 821 317 821 317 840 c 0,34,35
 317 868 317 868 339 886 c 128,-1,36
 361 904 361 904 390 904 c 16,10,11
EndSplineSet
EndChar

StartChar: uni0E4B
Encoding: 3659 3659 9
Width: 600
Flags: W
HStem: 773 72<380 458 560 648>
VStem: 458 102<700 773 846 926>
LayerCount: 3
Fore
SplineSet
458 773 m 1
 380 773 l 1
 380 846 l 1
 458 846 l 1
 458 926 l 1
 560 926 l 1
 560 845 l 1
 648 845 l 1
 648 773 l 1
 560 773 l 1
 560 700 l 1
 458 700 l 1
 458 773 l 1
EndSplineSet
Validated: 1
Layer: 2
SplineSet
458 773 m 1,0,-1
 380 773 l 1,1,-1
 380 846 l 1,2,-1
 458 846 l 1,3,-1
 458 926 l 1,4,-1
 560 926 l 1,5,-1
 560 845 l 1,6,-1
 648 845 l 1,7,-1
 648 773 l 1,8,-1
 560 773 l 1,9,-1
 560 700 l 1,10,-1
 458 700 l 1,11,-1
 458 773 l 1,0,-1
EndSplineSet
EndChar

StartChar: uni0E4C
Encoding: 3660 3660 10
Width: 600
Flags: W
HStem: 695 41<412.18 471.354>
VStem: 364 46<738.064 797.856> 474 51<737.619 779.014>
DStem2: 435 849 522 772 0.868243 0.496139<29.3006 182.455>
LayerCount: 3
Fore
SplineSet
410 768 m 0
 410 750 424 736 442 736 c 0
 460 736 474 750 474 768 c 0
 474 786 460 800 442 800 c 0
 424 800 410 786 410 768 c 0
454 695 m 0
 411 695 364 721 364 768 c 24
 364 810 397 831 435 849 c 16
 477 870 536 903 600 938 c 25
 648 844 l 25
 522 772 l 1
 522 772 525 762 525 750 c 0
 525 715 486 695 454 695 c 0
EndSplineSet
Validated: 1
Layer: 2
SplineSet
410 768 m 128,-1,1
 410 754 410 754 419 745 c 128,-1,2
 428 736 428 736 442 736 c 128,-1,3
 456 736 456 736 465 745 c 128,-1,4
 474 754 474 754 474 768 c 128,-1,5
 474 782 474 782 465 791 c 128,-1,6
 456 800 456 800 442 800 c 128,-1,7
 428 800 428 800 419 791 c 128,-1,0
 410 782 410 782 410 768 c 128,-1,1
454 695 m 0,8,9
 419 695 419 695 391.5 715 c 128,-1,10
 364 735 364 735 364 768 c 0,11,12
 364 797 364 797 382.5 815 c 128,-1,13
 401 833 401 833 435 849 c 0,14,15
 461 862 461 862 600 938 c 1,16,-1
 648 844 l 1,17,-1
 522 772 l 1,18,19
 525 762 525 762 525 750 c 0,20,21
 525 725 525 725 502.5 710 c 128,-1,22
 480 695 480 695 454 695 c 0,8,9
EndSplineSet
EndChar

StartChar: exclam
Encoding: 33 33 12
Width: 600
Flags: W
HStem: -15 132<242.406 358.047> 618 20G<277.5 324>
VStem: 225 150<3.02535 98.9747 269.766 617.854>
LayerCount: 3
Fore
SplineSet
379 525 m 2
 350 228 l 2
 347 197 329 179 301 179 c 0
 273 179 254 198 251 228 c 2
 222 525 l 2
 221 537 220 551 220 558 c 0
 220 604 254 638 301 638 c 0
 347 638 381 604 381 558 c 0
 381 552 380 538 379 525 c 2
309 -15 m 2
 292 -15 l 2
 255 -15 225 15 225 51 c 0
 225 87 255 117 292 117 c 2
 309 117 l 2
 346 117 375 88 375 51 c 0
 375 14 346 -15 309 -15 c 2
EndSplineSet
Validated: 1
Layer: 2
SplineSet
379 525 m 2,0,-1
 350 228 l 2,1,2
 345 179 345 179 301 179 c 0,3,4
 280 179 280 179 266.5 192 c 128,-1,5
 253 205 253 205 251 228 c 2,6,-1
 222 525 l 2,7,8
 220 549 220 549 220 558 c 0,9,10
 220 593 220 593 243 615.5 c 128,-1,11
 266 638 266 638 301 638 c 128,-1,12
 336 638 336 638 358.5 615 c 128,-1,13
 381 592 381 592 381 558 c 0,14,15
 381 551 381 551 379 525 c 2,0,-1
309 -15 m 2,16,-1
 292 -15 l 2,17,18
 264 -15 264 -15 244.5 4.5 c 128,-1,19
 225 24 225 24 225 51 c 128,-1,20
 225 78 225 78 244.5 97.5 c 128,-1,21
 264 117 264 117 292 117 c 2,22,-1
 309 117 l 2,23,24
 337 117 337 117 356 98 c 128,-1,25
 375 79 375 79 375 51 c 128,-1,26
 375 23 375 23 356 4 c 128,-1,27
 337 -15 337 -15 309 -15 c 2,16,-1
EndSplineSet
EndChar

StartChar: quotedbl
Encoding: 34 34 13
Width: 600
Flags: W
HStem: 312 290<172.604 229.717 372.604 429.717>
VStem: 170 63<313.094 399.5> 370 63<313.094 399.5>
LayerCount: 3
Fore
SplineSet
136 602 m 1
 264 602 l 1
 233 348 l 2
 229 322 221 312 201 312 c 0
 182 312 173 322 170 347 c 2
 136 602 l 1
336 602 m 1
 464 602 l 1
 433 348 l 2
 429 322 421 312 401 312 c 0
 382 312 373 322 370 347 c 2
 336 602 l 1
EndSplineSet
Validated: 1
Layer: 2
SplineSet
136 602 m 1,0,-1
 264 602 l 1,1,-1
 233 348 l 2,2,3
 230 328 230 328 223 320 c 128,-1,4
 216 312 216 312 201 312 c 0,5,6
 174 312 174 312 170 347 c 2,7,-1
 136 602 l 1,0,-1
336 602 m 1,8,-1
 464 602 l 1,9,-1
 433 348 l 2,10,11
 430 328 430 328 423 320 c 128,-1,12
 416 312 416 312 401 312 c 0,13,14
 374 312 374 312 370 347 c 2,15,-1
 336 602 l 1,8,-1
EndSplineSet
EndChar

StartChar: numbersign
Encoding: 35 35 14
Width: 600
Flags: W
HStem: 139 99<70.0315 154 261 326 432 510.46> 344 100<89.8394 168 276 340 447 530.677>
DStem2: 143 -22 242 -29 0.0714632 0.997443<-17.8362 161.374 267.768 366.851 474.313 660.767> 326 139 414 -29 0.0699502 0.99755<-183.134 0 106.172 205.477 312.717 499.171>
LayerCount: 3
Fore
SplineSet
447 444 m 1
 472 444 l 2
 515 444 538 429 538 394 c 0
 538 359 515 344 472 344 c 2
 440 344 l 1
 432 238 l 1
 451 238 l 2
 495 238 518 223 518 188 c 0
 518 154 494 139 452 139 c 2
 425 139 l 1
 414 -29 l 2
 411 -79 383 -92 362 -92 c 0
 336 -92 313 -69 313 -44 c 0
 313 -37 314 -30 315 -22 c 2
 315 -22 322 86 326 139 c 1
 254 139 l 1
 242 -29 l 2
 239 -70 228 -92 192 -92 c 0
 163 -92 142 -70 142 -40 c 0
 142 -36 142 -29 143 -22 c 2
 154 139 l 1
 128 139 l 2
 86 139 62 154 62 189 c 0
 62 223 85 238 128 238 c 2
 161 238 l 1
 168 344 l 1
 149 344 l 2
 105 344 82 359 82 394 c 0
 82 429 104 444 149 444 c 2
 175 444 l 1
 187 612 l 2
 190 653 203 675 238 675 c 0
 263 675 289 652 289 630 c 0
 289 629 289 628 289 627 c 2
 289 627 280 504 276 444 c 1
 347 444 l 1
 359 612 l 2
 362 653 375 675 410 675 c 0
 435 675 460 652 460 630 c 0
 460 629 460 628 460 627 c 2
 447 444 l 1
340 344 m 1
 269 344 l 1
 261 238 l 1
 333 238 l 1
 340 344 l 1
EndSplineSet
Validated: 1
Layer: 2
SplineSet
447 444 m 1,0,-1
 472 444 l 2,1,2
 538 444 538 444 538 394 c 128,-1,3
 538 344 538 344 472 344 c 2,4,-1
 440 344 l 1,5,-1
 432 238 l 1,6,-1
 451 238 l 2,7,8
 518 238 518 238 518 188 c 0,9,10
 518 139 518 139 452 139 c 2,11,-1
 425 139 l 1,12,-1
 414 -29 l 2,13,14
 412 -63 412 -63 396.5 -77.5 c 128,-1,15
 381 -92 381 -92 362 -92 c 128,-1,16
 343 -92 343 -92 328 -77.5 c 128,-1,17
 313 -63 313 -63 313 -44 c 0,18,19
 313 -38 313 -38 315 -22 c 0,20,21
 322 86 322 86 326 139 c 1,22,-1
 254 139 l 1,23,-1
 242 -29 l 2,24,25
 240 -62 240 -62 229 -77 c 128,-1,26
 218 -92 218 -92 192 -92 c 0,27,28
 170 -92 170 -92 156 -77.5 c 128,-1,29
 142 -63 142 -63 142 -40 c 0,30,31
 142 -29 142 -29 143 -22 c 2,32,-1
 154 139 l 1,33,-1
 128 139 l 2,34,35
 62 139 62 139 62 189 c 0,36,37
 62 238 62 238 128 238 c 2,38,-1
 161 238 l 1,39,-1
 168 344 l 1,40,-1
 149 344 l 2,41,42
 82 344 82 344 82 394 c 128,-1,43
 82 444 82 444 149 444 c 2,44,-1
 175 444 l 1,45,-1
 187 612 l 2,46,47
 189 644 189 644 201 659.5 c 128,-1,48
 213 675 213 675 238 675 c 0,49,50
 257 675 257 675 273 661 c 128,-1,51
 289 647 289 647 289 630 c 2,52,-1
 289 627 l 1,53,54
 280 504 280 504 276 444 c 1,55,-1
 347 444 l 1,56,-1
 359 612 l 2,57,58
 361 644 361 644 373 659.5 c 128,-1,59
 385 675 385 675 410 675 c 0,60,61
 429 675 429 675 444.5 661 c 128,-1,62
 460 647 460 647 460 630 c 2,63,-1
 460 627 l 1,64,-1
 447 444 l 1,0,-1
340 344 m 1,65,-1
 269 344 l 1,66,-1
 261 238 l 1,67,-1
 333 238 l 1,68,-1
 340 344 l 1,65,-1
EndSplineSet
EndChar

StartChar: dollar
Encoding: 36 36 15
Width: 600
Flags: W
HStem: -123 247<261.622 340.972> 34 195<92.7047 172.255> 417 164<418.513 486.295> 495 189<261.809 341.919>
VStem: 83 101<152.094 220.181> 107 104<397.964 473.692> 252 99<-115.642 31.2717 587.624 676.677> 394 102<425.524 480.853> 413 104<155.147 243.341>
DStem2: 286 377 259 280 0.980068 -0.198662<-75.626 145.819>
LayerCount: 3
Fore
SplineSet
446 581 m 0x2680
 482 581 496 554 496 515 c 2
 496 483 l 2
 496 439 481 417 446 417 c 0
 419 417 400 432 394 459 c 1x27
 391 478 351 495 310 495 c 0
 250 495 211 470 211 433 c 0
 211 406 235 387 286 377 c 2
 351 363 l 2
 397 353 517 330 517 199 c 0
 517 112 455 47 351 27 c 1
 351 -56 l 2
 351 -100 336 -123 302 -123 c 0x9680
 267 -123 252 -100 252 -56 c 2
 252 27 l 1
 210 36 205 38 173 52 c 1
 157 38 148 34 134 34 c 0
 99 34 83 57 83 101 c 2
 83 162 l 2
 83 206 98 229 133 229 c 0
 178 229 183 184 184 180 c 0x4a80
 192 149 245 124 300 124 c 0
 365 124 413 157 413 200 c 0
 413 235 389 254 333 265 c 2
 259 280 l 2
 160 300 107 354 107 435 c 0
 107 513 166 577 252 592 c 1
 252 618 l 2
 252 661 267 684 302 684 c 0x9680
 336 684 351 661 351 618 c 2
 351 592 l 1
 376 587 394 584 418 574 c 1
 429 579 437 581 446 581 c 0x2680
EndSplineSet
Validated: 1
Layer: 2
SplineSet
446 581 m 0,0,1
 496 581 496 581 496 515 c 2,2,-1
 496 483 l 2,3,4
 496 417 496 417 446 417 c 0,5,6
 403 417 403 417 394 459 c 0,7,8
 392 473 392 473 366.5 484 c 128,-1,9
 341 495 341 495 310 495 c 0,10,11
 265 495 265 495 238 478 c 128,-1,12
 211 461 211 461 211 433 c 0,13,14
 211 392 211 392 286 377 c 2,15,-1
 351 363 l 2,16,17
 374 358 374 358 387 354.5 c 128,-1,18
 400 351 400 351 428.5 338.5 c 128,-1,19
 457 326 457 326 473 310.5 c 128,-1,20
 489 295 489 295 503 265.5 c 128,-1,21
 517 236 517 236 517 199 c 0,22,23
 517 134 517 134 473 88 c 128,-1,24
 429 42 429 42 351 27 c 1,25,-1
 351 -56 l 2,26,27
 351 -123 351 -123 302 -123 c 0,28,29
 252 -123 252 -123 252 -56 c 2,30,-1
 252 27 l 1,31,32
 209 36 209 36 173 52 c 1,33,34
 152 34 152 34 134 34 c 0,35,36
 83 34 83 34 83 101 c 2,37,-1
 83 162 l 2,38,39
 83 229 83 229 133 229 c 0,40,41
 140 229 140 229 146.5 227.5 c 128,-1,42
 153 226 153 226 157.5 223 c 128,-1,43
 162 220 162 220 166 217 c 128,-1,44
 170 214 170 214 172.5 210 c 128,-1,45
 175 206 175 206 177 202.5 c 128,-1,46
 179 199 179 199 180.5 194.5 c 128,-1,47
 182 190 182 190 182.5 187.5 c 128,-1,48
 183 185 183 185 183.5 182.5 c 2,49,-1
 184 180 l 2,50,51
 190 157 190 157 224.5 140.5 c 128,-1,52
 259 124 259 124 300 124 c 0,53,54
 349 124 349 124 381 146 c 128,-1,55
 413 168 413 168 413 200 c 0,56,57
 413 226 413 226 394 241.5 c 128,-1,58
 375 257 375 257 333 265 c 2,59,-1
 259 280 l 2,60,61
 107 311 107 311 107 435 c 0,62,63
 107 494 107 494 147.5 537.5 c 128,-1,64
 188 581 188 581 252 592 c 1,65,-1
 252 618 l 2,66,67
 252 684 252 684 302 684 c 0,68,69
 351 684 351 684 351 618 c 2,70,-1
 351 592 l 1,71,72
 397 583 397 583 418 574 c 1,73,74
 433 581 433 581 446 581 c 0,0,1
EndSplineSet
EndChar

StartChar: percent
Encoding: 37 37 16
Width: 600
Flags: W
HStem: -15 65<317.383 419.461> 199 65<317.314 420.638> 338 65<177.539 279.617> 552 65<177.314 280.638>
VStem: 89 65<426.607 528.686> 229 65<73.6073 175.686> 303 65<426.09 529.208> 443 65<73.09 176.208>
DStem2: 110 272 129 213 0.950763 0.309917<-20.2934 400.737>
LayerCount: 3
Fore
SplineSet
228 617 m 0
 307 617 368 555 368 476 c 0
 368 401 305 338 229 338 c 0
 152 338 89 401 89 478 c 0
 89 554 152 617 228 617 c 0
228 552 m 0
 188 552 154 518 154 478 c 0
 154 437 188 403 228 403 c 0
 269 403 303 437 303 477 c 0
 303 519 270 552 228 552 c 0
491 331 m 2
 129 213 l 2
 122 211 113 209 109 209 c 0
 94 209 80 224 80 241 c 0
 80 257 88 265 110 272 c 2
 472 390 l 2
 484 394 486 394 492 394 c 0
 507 394 521 379 521 362 c 0
 521 346 513 338 491 331 c 2
368 264 m 0
 447 264 508 202 508 123 c 0
 508 48 445 -15 368 -15 c 0
 292 -15 229 48 229 125 c 0
 229 201 292 264 368 264 c 0
368 199 m 0
 328 199 294 165 294 125 c 0
 294 84 328 50 369 50 c 0
 409 50 443 84 443 124 c 0
 443 166 410 199 368 199 c 0
EndSplineSet
Validated: 1
Layer: 2
SplineSet
228 617 m 0,0,1
 287 617 287 617 327.5 576 c 128,-1,2
 368 535 368 535 368 476 c 0,3,4
 368 420 368 420 327 379 c 128,-1,5
 286 338 286 338 229 338 c 0,6,7
 171 338 171 338 130 379 c 128,-1,8
 89 420 89 420 89 478 c 0,9,10
 89 535 89 535 130 576 c 128,-1,11
 171 617 171 617 228 617 c 0,0,1
228 552 m 0,12,13
 198 552 198 552 176 530 c 128,-1,14
 154 508 154 508 154 478 c 0,15,16
 154 447 154 447 176 425 c 128,-1,17
 198 403 198 403 228 403 c 0,18,19
 259 403 259 403 281 425 c 128,-1,20
 303 447 303 447 303 477 c 0,21,22
 303 508 303 508 281.5 530 c 128,-1,23
 260 552 260 552 228 552 c 0,12,13
491 331 m 2,24,-1
 129 213 l 2,25,26
 115 209 115 209 109 209 c 0,27,28
 98 209 98 209 89 218.5 c 128,-1,29
 80 228 80 228 80 241 c 0,30,31
 80 262 80 262 110 272 c 2,32,-1
 472 390 l 2,33,34
 484 394 484 394 492 394 c 0,35,36
 503 394 503 394 512 384.5 c 128,-1,37
 521 375 521 375 521 362 c 0,38,39
 521 341 521 341 491 331 c 2,24,-1
368 264 m 0,40,41
 427 264 427 264 467.5 223 c 128,-1,42
 508 182 508 182 508 123 c 0,43,44
 508 67 508 67 467 26 c 128,-1,45
 426 -15 426 -15 368 -15 c 0,46,47
 311 -15 311 -15 270 26 c 128,-1,48
 229 67 229 67 229 125 c 0,49,50
 229 182 229 182 270 223 c 128,-1,51
 311 264 311 264 368 264 c 0,40,41
368 199 m 0,52,53
 338 199 338 199 316 177 c 128,-1,54
 294 155 294 155 294 125 c 0,55,56
 294 94 294 94 316 72 c 128,-1,57
 338 50 338 50 369 50 c 0,58,59
 399 50 399 50 421 72 c 128,-1,60
 443 94 443 94 443 124 c 0,61,62
 443 156 443 156 421.5 177.5 c 128,-1,63
 400 199 400 199 368 199 c 0,52,53
EndSplineSet
EndChar

StartChar: ampersand
Encoding: 38 38 17
Width: 600
Flags: W
HStem: -14 100<189.021 311.432> 0 100<434 499.969> 450 100<247.277 338.197>
VStem: 75 100<100.542 198.22> 137 100<352.639 439.836>
LayerCount: 3
Fore
SplineSet
365 198 m 1xa8
 388 280 l 1
 441 280 l 2
 485 280 507 265 507 229 c 0
 507 203 488 182 464 180 c 1
 453 139 446 121 434 100 c 1
 442 100 l 2
 485 100 508 85 508 50 c 0
 508 15 484 0 442 0 c 2
 381 0 l 1x68
 370 15 l 1
 340 -6 310 -14 257 -14 c 0
 147 -14 75 48 75 144 c 0xb0
 75 211 109 267 171 303 c 1
 144 349 137 368 137 399 c 0
 137 480 208 550 289 550 c 0
 313 550 333 545 359 533 c 1
 371 537 380 540 387 540 c 0
 412 540 435 515 435 490 c 0
 435 467 426 456 394 438 c 2
 353 416 l 1
 324 442 310 450 290 450 c 0
 261 450 237 428 237 400 c 0
 237 389 246 370 265 343 c 2
 365 198 l 1xa8
312 100 m 1
 228 220 l 1
 193 204 175 177 175 144 c 0
 175 105 202 86 257 86 c 0xb0
 282 86 293 89 312 100 c 1
EndSplineSet
Validated: 1
Layer: 2
SplineSet
365 198 m 1,0,-1
 388 280 l 1,1,-1
 441 280 l 2,2,3
 507 280 507 280 507 229 c 0,4,5
 507 210 507 210 494.5 196 c 128,-1,6
 482 182 482 182 464 180 c 1,7,8
 450 128 450 128 434 100 c 1,9,-1
 442 100 l 2,10,11
 508 100 508 100 508 50 c 128,-1,12
 508 0 508 0 442 0 c 2,13,-1
 381 0 l 1,14,-1
 370 15 l 1,15,16
 329 -14 329 -14 257 -14 c 0,17,18
 174 -14 174 -14 124.5 29 c 128,-1,19
 75 72 75 72 75 144 c 0,20,21
 75 247 75 247 171 303 c 1,22,23
 137 361 137 361 137 399 c 0,24,25
 137 460 137 460 182.5 505 c 128,-1,26
 228 550 228 550 289 550 c 0,27,28
 322 550 322 550 359 533 c 1,29,30
 380 540 380 540 387 540 c 0,31,32
 406 540 406 540 420.5 524.5 c 128,-1,33
 435 509 435 509 435 490 c 0,34,35
 435 473 435 473 426.5 462.5 c 128,-1,36
 418 452 418 452 394 438 c 2,37,-1
 353 416 l 1,38,39
 315 450 315 450 290 450 c 0,40,41
 268 450 268 450 252.5 435.5 c 128,-1,42
 237 421 237 421 237 400 c 0,43,44
 237 383 237 383 265 343 c 2,45,-1
 365 198 l 1,0,-1
312 100 m 1,46,-1
 228 220 l 1,47,48
 175 196 175 196 175 144 c 0,49,50
 175 86 175 86 257 86 c 0,51,52
 288 86 288 86 312 100 c 1,46,-1
EndSplineSet
EndChar

StartChar: quotesingle
Encoding: 39 39 18
Width: 600
Flags: W
HStem: 312 290<272.604 329.717>
VStem: 270 63<313.094 399.5>
LayerCount: 3
Fore
SplineSet
236 602 m 1
 364 602 l 1
 333 348 l 2
 329 322 321 312 301 312 c 0
 282 312 273 322 270 347 c 2
 236 602 l 1
EndSplineSet
Validated: 1
Layer: 2
SplineSet
236 602 m 1,0,-1
 364 602 l 1,1,-1
 333 348 l 2,2,3
 330 328 330 328 323 320 c 128,-1,4
 316 312 316 312 301 312 c 0,5,6
 274 312 274 312 270 347 c 2,7,-1
 236 602 l 1,0,-1
EndSplineSet
EndChar

StartChar: parenleft
Encoding: 40 40 19
Width: 600
Flags: W
VStem: 264 111<99.9444 381.01>
LayerCount: 3
Fore
SplineSet
437 632 m 0
 466 632 488 610 488 583 c 0
 488 571 486 565 476 549 c 0
 406 437 375 341 375 240 c 0
 375 138 407 42 476 -70 c 0
 486 -86 488 -92 488 -104 c 0
 488 -131 466 -153 437 -153 c 0
 413 -153 400 -142 371 -95 c 0
 300 18 264 133 264 243 c 0
 264 350 307 478 380 587 c 0
 403 623 415 632 437 632 c 0
EndSplineSet
Validated: 1
Layer: 2
SplineSet
437 632 m 0,0,1
 459 632 459 632 473.5 617.5 c 128,-1,2
 488 603 488 603 488 583 c 0,3,4
 488 568 488 568 476 549 c 0,5,6
 375 387 375 387 375 240 c 0,7,8
 375 94 375 94 476 -70 c 0,9,10
 488 -89 488 -89 488 -104 c 0,11,12
 488 -124 488 -124 473.5 -138.5 c 128,-1,13
 459 -153 459 -153 437 -153 c 0,14,15
 419 -153 419 -153 406 -141.5 c 128,-1,16
 393 -130 393 -130 371 -95 c 0,17,18
 264 75 264 75 264 243 c 0,19,20
 264 323 264 323 294.5 414 c 128,-1,21
 325 505 325 505 380 587 c 0,22,23
 397 614 397 614 408.5 623 c 128,-1,24
 420 632 420 632 437 632 c 0,0,1
EndSplineSet
EndChar

StartChar: parenright
Encoding: 41 41 20
Width: 600
Flags: W
VStem: 230 111<97.9564 379.056>
LayerCount: 3
Fore
SplineSet
168 632 m 0
 192 632 205 621 234 574 c 0
 305 461 341 346 341 236 c 0
 341 129 298 1 225 -109 c 0
 202 -144 190 -153 168 -153 c 0
 139 -153 117 -131 117 -104 c 0
 117 -92 119 -86 129 -70 c 0
 199 42 230 138 230 239 c 0
 230 341 198 437 129 549 c 0
 119 565 117 571 117 583 c 0
 117 610 139 632 168 632 c 0
EndSplineSet
Validated: 1
Layer: 2
SplineSet
168 632 m 0,0,1
 186 632 186 632 199 620.5 c 128,-1,2
 212 609 212 609 234 574 c 0,3,4
 341 404 341 404 341 236 c 0,5,6
 341 156 341 156 310.5 64.5 c 128,-1,7
 280 -27 280 -27 225 -109 c 0,8,9
 208 -135 208 -135 196.5 -144 c 128,-1,10
 185 -153 185 -153 168 -153 c 0,11,12
 146 -153 146 -153 131.5 -138.5 c 128,-1,13
 117 -124 117 -124 117 -104 c 0,14,15
 117 -89 117 -89 129 -70 c 0,16,17
 230 92 230 92 230 239 c 0,18,19
 230 385 230 385 129 549 c 0,20,21
 117 568 117 568 117 583 c 0,22,23
 117 603 117 603 131.5 617.5 c 128,-1,24
 146 632 146 632 168 632 c 0,0,1
EndSplineSet
EndChar

StartChar: asterisk
Encoding: 42 42 21
Width: 600
Flags: W
HStem: 602 20G<282.5 317.5>
VStem: 250 100<467 614.677>
DStem2: 219 372 248 242 0.585491 0.810679<-133.494 0> 381 372 300 314 0.585491 -0.810679<0 133.494>
LayerCount: 3
Fore
SplineSet
219 372 m 1
 133 400 l 2
 96 411 83 425 83 452 c 0
 83 479 105 502 130 502 c 0
 140 502 143 501 164 495 c 2
 250 467 l 1
 250 556 l 2
 250 599 265 622 300 622 c 0
 335 622 350 599 350 556 c 2
 350 467 l 1
 436 495 l 2
 457 501 460 502 469 502 c 0
 494 502 517 478 517 452 c 0
 517 426 503 411 467 400 c 2
 381 372 l 1
 433 301 l 2
 448 280 452 271 452 258 c 0
 452 231 429 208 402 208 c 0
 381 208 373 214 352 242 c 2
 300 314 l 1
 248 242 l 2
 228 214 218 208 198 208 c 0
 171 208 148 231 148 258 c 0
 148 271 152 279 167 301 c 2
 219 372 l 1
EndSplineSet
Validated: 1
Layer: 2
SplineSet
219 372 m 1,0,-1
 133 400 l 2,1,2
 105 408 105 408 94 420 c 128,-1,3
 83 432 83 432 83 452 c 128,-1,4
 83 472 83 472 97 487 c 128,-1,5
 111 502 111 502 130 502 c 0,6,7
 140 502 140 502 164 495 c 2,8,-1
 250 467 l 1,9,-1
 250 556 l 2,10,11
 250 622 250 622 300 622 c 128,-1,12
 350 622 350 622 350 556 c 2,13,-1
 350 467 l 1,14,-1
 436 495 l 2,15,16
 460 502 460 502 469 502 c 0,17,18
 488 502 488 502 502.5 487 c 128,-1,19
 517 472 517 472 517 452 c 0,20,21
 517 415 517 415 467 400 c 2,22,-1
 381 372 l 1,23,-1
 433 301 l 2,24,25
 452 274 452 274 452 258 c 0,26,27
 452 238 452 238 437 223 c 128,-1,28
 422 208 422 208 402 208 c 0,29,30
 386 208 386 208 377 214.5 c 128,-1,31
 368 221 368 221 352 242 c 2,32,-1
 300 314 l 1,33,-1
 248 242 l 2,34,35
 233 221 233 221 223 214.5 c 128,-1,36
 213 208 213 208 198 208 c 0,37,38
 178 208 178 208 163 223 c 128,-1,39
 148 238 148 238 148 258 c 0,40,41
 148 273 148 273 167 301 c 2,42,-1
 219 372 l 1,0,-1
EndSplineSet
EndChar

StartChar: plus
Encoding: 43 43 22
Width: 600
Flags: W
HStem: 0 21G<282.5 317.5> 230 100<49.323 250 350 550.642>
VStem: 250 100<7.32297 230 330 551.969>
LayerCount: 3
Fore
SplineSet
350 230 m 1
 350 66 l 2
 350 23 335 0 300 0 c 0
 265 0 250 23 250 66 c 2
 250 230 l 1
 108 230 l 2
 65 230 42 245 42 280 c 0
 42 315 65 330 108 330 c 2
 250 330 l 1
 250 494 l 2
 250 537 266 560 300 560 c 0
 335 560 350 538 350 494 c 2
 350 330 l 1
 491 330 l 2
 535 330 558 315 558 280 c 0
 558 245 535 230 491 230 c 2
 350 230 l 1
EndSplineSet
Validated: 1
Layer: 2
SplineSet
350 230 m 1,0,-1
 350 66 l 2,1,2
 350 0 350 0 300 0 c 128,-1,3
 250 0 250 0 250 66 c 2,4,-1
 250 230 l 1,5,-1
 108 230 l 2,6,7
 42 230 42 230 42 280 c 128,-1,8
 42 330 42 330 108 330 c 2,9,-1
 250 330 l 1,10,-1
 250 494 l 2,11,12
 250 560 250 560 300 560 c 128,-1,13
 350 560 350 560 350 494 c 2,14,-1
 350 330 l 1,15,-1
 491 330 l 2,16,17
 558 330 558 330 558 280 c 128,-1,18
 558 230 558 230 491 230 c 2,19,-1
 350 230 l 1,0,-1
EndSplineSet
EndChar

StartChar: comma
Encoding: 44 44 23
Width: 600
Flags: W
HStem: -158 292
VStem: 147 204
LayerCount: 3
Fore
SplineSet
219 134 m 1
 351 134 l 1
 210 -134 l 2
 202 -150 190 -158 178 -158 c 0
 161 -158 147 -145 147 -130 c 0
 147 -124 147 -122 150 -111 c 2
 219 134 l 1
EndSplineSet
Validated: 1
Layer: 2
SplineSet
219 134 m 1,0,-1
 351 134 l 1,1,-1
 210 -134 l 2,2,3
 198 -158 198 -158 178 -158 c 0,4,5
 165 -158 165 -158 156 -149.5 c 128,-1,6
 147 -141 147 -141 147 -130 c 0,7,8
 147 -122 147 -122 150 -111 c 2,9,-1
 219 134 l 1,0,-1
EndSplineSet
EndChar

StartChar: hyphen
Encoding: 45 45 24
Width: 600
Flags: W
HStem: 229 100<50.0315 550.201>
LayerCount: 3
Fore
SplineSet
492 229 m 2
 108 229 l 2
 65 229 42 244 42 279 c 0
 42 313 65 329 108 329 c 2
 492 329 l 2
 536 329 558 314 558 279 c 0
 558 244 535 229 492 229 c 2
EndSplineSet
Validated: 1
Layer: 2
SplineSet
492 229 m 2,0,-1
 108 229 l 2,1,2
 42 229 42 229 42 279 c 128,-1,3
 42 329 42 329 108 329 c 2,4,-1
 492 329 l 2,5,6
 558 329 558 329 558 279 c 128,-1,7
 558 229 558 229 492 229 c 2,0,-1
EndSplineSet
EndChar

StartChar: period
Encoding: 46 46 25
Width: 600
Flags: W
HStem: -15 132<242.303 358.047>
VStem: 225 150<3.02535 98.9747>
LayerCount: 3
Fore
SplineSet
309 -15 m 2
 291 -15 l 2
 255 -15 225 15 225 51 c 0
 225 87 255 117 291 117 c 2
 309 117 l 2
 346 117 375 88 375 51 c 0
 375 14 346 -15 309 -15 c 2
EndSplineSet
Validated: 1
Layer: 2
SplineSet
309 -15 m 2,0,-1
 291 -15 l 2,1,2
 264 -15 264 -15 244.5 4.5 c 128,-1,3
 225 24 225 24 225 51 c 128,-1,4
 225 78 225 78 244.5 97.5 c 128,-1,5
 264 117 264 117 291 117 c 2,6,-1
 309 117 l 2,7,8
 337 117 337 117 356 98 c 128,-1,9
 375 79 375 79 375 51 c 128,-1,10
 375 23 375 23 356 4 c 128,-1,11
 337 -15 337 -15 309 -15 c 2,0,-1
EndSplineSet
EndChar

StartChar: slash
Encoding: 47 47 26
Width: 600
Flags: W
DStem2: 95 -27 185 -69 0.42631 0.904577<-39.0647 789.124>
LayerCount: 3
Fore
SplineSet
505 610 m 2
 185 -69 l 2
 170 -103 157 -113 133 -113 c 0
 107 -113 83 -90 83 -65 c 0
 83 -55 86 -45 95 -27 c 2
 416 651 l 2
 431 685 444 695 467 695 c 0
 494 695 517 672 517 647 c 0
 517 636 515 630 505 610 c 2
EndSplineSet
Validated: 1
Layer: 2
SplineSet
505 610 m 2,0,-1
 185 -69 l 2,1,2
 174 -94 174 -94 162.5 -103.5 c 128,-1,3
 151 -113 151 -113 133 -113 c 0,4,5
 113 -113 113 -113 98 -98.5 c 128,-1,6
 83 -84 83 -84 83 -65 c 0,7,8
 83 -51 83 -51 95 -27 c 2,9,-1
 416 651 l 2,10,11
 427 676 427 676 438 685.5 c 128,-1,12
 449 695 449 695 467 695 c 0,13,14
 487 695 487 695 502 680.5 c 128,-1,15
 517 666 517 666 517 647 c 0,16,17
 517 634 517 634 505 610 c 2,0,-1
EndSplineSet
EndChar

StartChar: zero
Encoding: 48 48 27
Width: 600
Flags: W
HStem: -15 100<240.262 359.582> 538 100<240.418 359.738>
VStem: 83 100<154.376 469.484> 417 100<153.516 468.624>
LayerCount: 3
Fore
SplineSet
300 638 m 0
 450 638 517 501 517 359 c 2
 517 264 l 2
 517 120 449 -15 300 -15 c 0
 150 -15 83 122 83 264 c 2
 83 359 l 2
 83 503 151 638 300 638 c 0
183 366 m 2
 183 257 l 2
 183 153 229 85 300 85 c 0
 371 85 417 153 417 257 c 2
 417 366 l 2
 417 470 371 538 300 538 c 0
 229 538 183 470 183 366 c 2
EndSplineSet
Validated: 1
Layer: 2
SplineSet
300 638 m 0,0,1
 406 638 406 638 461.5 556.5 c 128,-1,2
 517 475 517 475 517 359 c 2,3,-1
 517 264 l 2,4,5
 517 189 517 189 494.5 127.5 c 128,-1,6
 472 66 472 66 421.5 25.5 c 128,-1,7
 371 -15 371 -15 300 -15 c 0,8,9
 194 -15 194 -15 138.5 66.5 c 128,-1,10
 83 148 83 148 83 264 c 2,11,-1
 83 359 l 2,12,13
 83 434 83 434 105.5 495.5 c 128,-1,14
 128 557 128 557 178.5 597.5 c 128,-1,15
 229 638 229 638 300 638 c 0,0,1
183 366 m 2,16,-1
 183 257 l 2,17,18
 183 179 183 179 215 132 c 128,-1,19
 247 85 247 85 300 85 c 128,-1,20
 353 85 353 85 385 132 c 128,-1,21
 417 179 417 179 417 257 c 2,22,-1
 417 366 l 2,23,24
 417 444 417 444 385 491 c 128,-1,25
 353 538 353 538 300 538 c 128,-1,26
 247 538 247 538 215 491 c 128,-1,27
 183 444 183 444 183 366 c 2,16,-1
EndSplineSet
EndChar

StartChar: one
Encoding: 49 49 28
Width: 600
Flags: W
HStem: 0 100<91.5239 250 350 508.736> 618 20G<272.909 350>
VStem: 250 100<100 509>
LayerCount: 3
Fore
SplineSet
149 0 m 2
 92 0 83 30 83 50 c 0
 83 85 105 100 149 100 c 2
 250 100 l 1
 250 509 l 1
 163 486 l 2
 144 481 141 480 131 480 c 0
 105 480 85 503 85 532 c 0
 85 561 98 573 138 583 c 2
 350 638 l 1
 350 100 l 1
 451 100 l 2
 494 100 517 85 517 50 c 0
 517 16 493 0 451 0 c 2
 149 0 l 2
EndSplineSet
Validated: 1
Layer: 2
SplineSet
149 0 m 2,0,1
 83 0 83 0 83 50 c 128,-1,2
 83 100 83 100 149 100 c 2,3,-1
 250 100 l 1,4,-1
 250 509 l 1,5,-1
 163 486 l 2,6,7
 140 480 140 480 131 480 c 0,8,9
 112 480 112 480 98.5 495 c 128,-1,10
 85 510 85 510 85 532 c 128,-1,11
 85 554 85 554 96.5 564.5 c 128,-1,12
 108 575 108 575 138 583 c 2,13,-1
 350 638 l 1,14,-1
 350 100 l 1,15,-1
 451 100 l 2,16,17
 517 100 517 100 517 50 c 128,-1,18
 517 0 517 0 451 0 c 2,19,-1
 149 0 l 2,0,1
EndSplineSet
EndChar

StartChar: two
Encoding: 50 50 29
Width: 600
Flags: W
HStem: 0 154<416.965 498.968> 0 100<207 411.856> 538 100<213.418 361.934>
VStem: 403 100<100 142.813 396.902 499.568>
LayerCount: 3
Fore
SplineSet
503 444 m 0x70
 503 354 462 320 207 100 c 1
 408 100 l 1x70
 411 136 427 154 458 154 c 0xb0
 493 154 508 131 508 88 c 2
 508 0 l 1
 54 0 l 1
 54 105 l 1
 363 361 403 401 403 448 c 0
 403 499 353 538 288 538 c 0
 248 538 213 523 191 497 c 0
 165 466 175 422 124 422 c 0
 97 422 74 444 74 470 c 0
 74 521 140 638 290 638 c 0
 412 638 503 555 503 444 c 0x70
EndSplineSet
Validated: 1
Layer: 2
SplineSet
503 444 m 0,0,1
 503 379 503 379 456.5 327 c 128,-1,2
 410 275 410 275 207 100 c 1,3,-1
 408 100 l 1,4,5
 412 154 412 154 458 154 c 0,6,7
 508 154 508 154 508 88 c 2,8,-1
 508 0 l 1,9,-1
 54 0 l 1,10,-1
 54 105 l 1,11,12
 216 239 216 239 285 300 c 128,-1,13
 354 361 354 361 378.5 392 c 128,-1,14
 403 423 403 423 403 448 c 0,15,16
 403 486 403 486 370 512 c 128,-1,17
 337 538 337 538 288 538 c 0,18,19
 226 538 226 538 191 497 c 0,20,21
 182 486 182 486 174.5 465 c 128,-1,22
 167 444 167 444 157 433 c 128,-1,23
 147 422 147 422 124 422 c 0,24,25
 104 422 104 422 89 436.5 c 128,-1,26
 74 451 74 451 74 470 c 0,27,28
 74 491 74 491 87 518 c 128,-1,29
 100 545 100 545 125 572.5 c 128,-1,30
 150 600 150 600 193.5 619 c 128,-1,31
 237 638 237 638 290 638 c 0,32,33
 381 638 381 638 442 582.5 c 128,-1,34
 503 527 503 527 503 444 c 0,0,1
EndSplineSet
EndChar

StartChar: three
Encoding: 51 51 30
Width: 600
Flags: W
HStem: -15 100<151.141 386.076> 287 96<232.543 369.826> 538 100<209.27 377.374>
VStem: 407 100<412.303 510.378> 429 100<124.373 237.139>
LayerCount: 3
Fore
SplineSet
116 120 m 0xe8
 156 120 135 85 268 85 c 0
 361 85 429 106 429 183 c 0xe8
 429 244 359 287 276 287 c 0
 243 287 224 306 224 333 c 0
 224 362 246 383 276 383 c 0
 358 383 407 408 407 462 c 0
 407 509 364 538 295 538 c 0
 180 538 196 477 144 477 c 0
 117 477 95 500 95 527 c 0
 95 585 194 638 301 638 c 0
 452 638 507 534 507 464 c 0xf0
 507 409 481 372 416 333 c 1
 492 296 529 246 529 182 c 0
 529 49 421 -15 271 -15 c 0
 148 -15 66 19 66 70 c 0
 66 98 88 120 116 120 c 0xe8
EndSplineSet
Validated: 1
Layer: 2
SplineSet
116 120 m 0,0,1
 128 120 128 120 138 114.5 c 128,-1,2
 148 109 148 109 156.5 102.5 c 128,-1,3
 165 96 165 96 194 90.5 c 128,-1,4
 223 85 223 85 268 85 c 0,5,6
 345 85 345 85 387 107 c 128,-1,7
 429 129 429 129 429 183 c 0,8,9
 429 228 429 228 384 257.5 c 128,-1,10
 339 287 339 287 276 287 c 0,11,12
 252 287 252 287 238 299.5 c 128,-1,13
 224 312 224 312 224 333 c 0,14,15
 224 355 224 355 238.5 369 c 128,-1,16
 253 383 253 383 276 383 c 0,17,18
 407 383 407 383 407 462 c 0,19,20
 407 497 407 497 377 517.5 c 128,-1,21
 347 538 347 538 295 538 c 0,22,23
 256 538 256 538 230.5 528.5 c 128,-1,24
 205 519 205 519 195.5 507.5 c 128,-1,25
 186 496 186 496 173.5 486.5 c 128,-1,26
 161 477 161 477 144 477 c 0,27,28
 124 477 124 477 109.5 492 c 128,-1,29
 95 507 95 507 95 527 c 0,30,31
 95 570 95 570 158 604 c 128,-1,32
 221 638 221 638 301 638 c 0,33,34
 355 638 355 638 396.5 621 c 128,-1,35
 438 604 438 604 461 577 c 128,-1,36
 484 550 484 550 495.5 521 c 128,-1,37
 507 492 507 492 507 464 c 0,38,39
 507 423 507 423 486 392.5 c 128,-1,40
 465 362 465 362 416 333 c 1,41,42
 529 278 529 278 529 182 c 128,-1,43
 529 86 529 86 458.5 35.5 c 128,-1,44
 388 -15 388 -15 271 -15 c 0,45,46
 179 -15 179 -15 122.5 8.5 c 128,-1,47
 66 32 66 32 66 70 c 0,48,49
 66 91 66 91 80.5 105.5 c 128,-1,50
 95 120 95 120 116 120 c 0,0,1
EndSplineSet
EndChar

StartChar: four
Encoding: 52 52 31
Width: 600
Flags: W
HStem: 0 100<251.434 347 447 499.708> 138 100<197 347 447 499.708> 602 20G<303.98 447>
VStem: 243 265<10.0415 90.6895> 347 100<100 138 238 480>
DStem2: 75 221 197 238 0.515124 0.857116<77.4161 362.107>
LayerCount: 3
Fore
SplineSet
309 0 m 2xf0
 252 0 243 30 243 50 c 0xf0
 243 85 266 100 309 100 c 2
 347 100 l 1
 347 138 l 1
 75 138 l 1
 75 221 l 1
 316 622 l 1
 447 622 l 1
 447 238 l 1xe8
 486 238 508 220 508 188 c 0xf0
 508 156 487 139 447 138 c 1
 447 100 l 1xe8
 486 100 508 82 508 50 c 0
 508 16 485 0 441 0 c 2
 309 0 l 2xf0
347 238 m 1xe8
 347 480 l 1
 197 238 l 1
 347 238 l 1xe8
EndSplineSet
Validated: 1
Layer: 2
SplineSet
309 0 m 2,0,1
 243 0 243 0 243 50 c 128,-1,2
 243 100 243 100 309 100 c 2,3,-1
 347 100 l 1,4,-1
 347 138 l 1,5,-1
 75 138 l 1,6,-1
 75 221 l 1,7,-1
 316 622 l 1,8,-1
 447 622 l 1,9,-1
 447 238 l 1,10,11
 508 238 508 238 508 188 c 0,12,13
 508 140 508 140 447 138 c 1,14,-1
 447 100 l 1,15,16
 508 100 508 100 508 50 c 128,-1,17
 508 0 508 0 441 0 c 2,18,-1
 309 0 l 2,0,1
347 238 m 1,19,-1
 347 480 l 1,20,-1
 197 238 l 1,21,-1
 347 238 l 1,19,-1
EndSplineSet
EndChar

StartChar: five
Encoding: 53 53 32
Width: 600
Flags: W
HStem: -15 100<166.823 381.89> 282 340<129.237 216.969> 324 100<223.918 383.239> 522 100<219 479.677>
VStem: 119 100<407 522> 429 100<129.041 276.245>
LayerCount: 3
Fore
SplineSet
317 324 m 0xbc
 247 324 194 282 169 282 c 0xcc
 140 282 119 306 119 338 c 2
 119 622 l 1
 421 622 l 2
 464 622 487 607 487 572 c 0
 487 537 464 522 421 522 c 2
 219 522 l 1
 219 407 l 1
 255 418 289 424 318 424 c 0
 439 424 529 330 529 202 c 0
 529 58 431 -15 278 -15 c 0
 158 -15 66 28 66 84 c 0
 66 111 89 133 116 133 c 0
 164 133 141 85 277 85 c 0
 381 85 429 122 429 201 c 0
 429 275 384 324 317 324 c 0xbc
EndSplineSet
Validated: 1
Layer: 2
SplineSet
317 324 m 0,0,1
 276 324 276 324 226 303 c 128,-1,2
 176 282 176 282 169 282 c 0,3,4
 147 282 147 282 133 298 c 128,-1,5
 119 314 119 314 119 338 c 2,6,-1
 119 622 l 1,7,-1
 421 622 l 2,8,9
 487 622 487 622 487 572 c 128,-1,10
 487 522 487 522 421 522 c 2,11,-1
 219 522 l 1,12,-1
 219 407 l 1,13,14
 275 424 275 424 318 424 c 0,15,16
 409 424 409 424 469 361 c 128,-1,17
 529 298 529 298 529 202 c 0,18,19
 529 96 529 96 462 40.5 c 128,-1,20
 395 -15 395 -15 278 -15 c 0,21,22
 188 -15 188 -15 127 13.5 c 128,-1,23
 66 42 66 42 66 84 c 0,24,25
 66 104 66 104 81 118.5 c 128,-1,26
 96 133 96 133 116 133 c 0,27,28
 131 133 131 133 142.5 125.5 c 128,-1,29
 154 118 154 118 163 109 c 128,-1,30
 172 100 172 100 201.5 92.5 c 128,-1,31
 231 85 231 85 277 85 c 0,32,33
 355 85 355 85 392 113.5 c 128,-1,34
 429 142 429 142 429 201 c 0,35,36
 429 256 429 256 398 290 c 128,-1,37
 367 324 367 324 317 324 c 0,0,1
EndSplineSet
EndChar

StartChar: six
Encoding: 54 54 33
Width: 600
Flags: W
HStem: -15 100<268.276 399.857> 294 100<275.691 396.629> 535 103<342.403 500.83>
VStem: 435 100<120.516 254.556>
LayerCount: 3
Fore
SplineSet
535 189 m 0
 535 69 462 -15 331 -15 c 0
 174 -15 105 118 105 285 c 0
 105 475 252 638 423 638 c 0
 493 638 540 612 540 573 c 0
 540 545 517 522 489 522 c 0
 476 522 446 535 429 535 c 0
 323 535 231 447 208 324 c 1
 256 375 294 394 345 394 c 0
 450 394 535 302 535 189 c 0
218 209 m 1
 233 122 269 85 334 85 c 0
 397 85 435 125 435 190 c 0
 435 248 392 294 338 294 c 0
 295 294 245 258 218 209 c 1
EndSplineSet
Validated: 1
Layer: 2
SplineSet
535 189 m 0,0,1
 535 97 535 97 481 41 c 128,-1,2
 427 -15 427 -15 331 -15 c 0,3,4
 219 -15 219 -15 162 68.5 c 128,-1,5
 105 152 105 152 105 285 c 0,6,7
 105 427 105 427 200 532.5 c 128,-1,8
 295 638 295 638 423 638 c 0,9,10
 476 638 476 638 508 620 c 128,-1,11
 540 602 540 602 540 573 c 0,12,13
 540 552 540 552 525 537 c 128,-1,14
 510 522 510 522 489 522 c 0,15,16
 483 522 483 522 460.5 528.5 c 128,-1,17
 438 535 438 535 429 535 c 0,18,19
 350 535 350 535 287.5 475.5 c 128,-1,20
 225 416 225 416 208 324 c 1,21,22
 244 362 244 362 275.5 378 c 128,-1,23
 307 394 307 394 345 394 c 0,24,25
 424 394 424 394 479.5 334 c 128,-1,26
 535 274 535 274 535 189 c 0,0,1
218 209 m 1,27,28
 229 144 229 144 257 114.5 c 128,-1,29
 285 85 285 85 334 85 c 0,30,31
 381 85 381 85 408 113 c 128,-1,32
 435 141 435 141 435 190 c 0,33,34
 435 233 435 233 407 263.5 c 128,-1,35
 379 294 379 294 338 294 c 0,36,37
 306 294 306 294 272 270 c 128,-1,38
 238 246 238 246 218 209 c 1,27,28
EndSplineSet
EndChar

StartChar: seven
Encoding: 55 55 34
Width: 600
Flags: W
HStem: -1 21G<283.5 310> 468 154<84.032 166.035> 522 100<171.144 403>
DStem2: 253 81 349 48 0.317425 0.948283<-34.0637 465.807>
LayerCount: 3
Fore
SplineSet
403 522 m 1xa0
 175 522 l 1xa0
 172 486 156 468 125 468 c 0xc0
 90 468 75 491 75 534 c 2
 75 622 l 1
 508 622 l 1
 508 523 l 1
 349 48 l 2
 336 12 323 -1 297 -1 c 0
 270 -1 246 21 246 47 c 0
 246 56 248 64 253 81 c 2
 403 522 l 1xa0
EndSplineSet
Validated: 1
Layer: 2
SplineSet
403 522 m 1,0,-1
 175 522 l 1,1,2
 170 468 170 468 125 468 c 0,3,4
 75 468 75 468 75 534 c 2,5,-1
 75 622 l 1,6,-1
 508 622 l 1,7,-1
 508 523 l 1,8,-1
 349 48 l 2,9,10
 339 21 339 21 327.5 10 c 128,-1,11
 316 -1 316 -1 297 -1 c 0,12,13
 277 -1 277 -1 261.5 13.5 c 128,-1,14
 246 28 246 28 246 47 c 0,15,16
 246 57 246 57 253 81 c 2,17,-1
 403 522 l 1,0,-1
EndSplineSet
EndChar

StartChar: eight
Encoding: 56 56 35
Width: 600
Flags: W
HStem: -15 100<221.651 378.906> 263 101<226.052 372.819> 538 100<226.844 372.956>
VStem: 83 100<121.499 225.27> 92 100<396.545 505.695> 408 100<396.675 504.007> 417 100<121.386 225.157>
LayerCount: 3
Fore
SplineSet
420 319 m 1xec
 484 279 517 227 517 165 c 0
 517 58 429 -15 299 -15 c 0
 171 -15 83 58 83 165 c 0xf2
 83 227 116 279 180 319 c 1
 120 359 92 402 92 455 c 0
 92 557 184 638 300 638 c 0
 415 638 508 557 508 457 c 0
 508 402 480 359 420 319 c 1xec
300 538 m 0
 236 538 192 502 192 451 c 0
 192 400 237 364 300 364 c 0
 363 364 408 400 408 450 c 0xec
 408 502 364 538 300 538 c 0
300 263 m 0
 236 263 183 223 183 173 c 0
 183 122 232 85 300 85 c 0
 368 85 417 122 417 172 c 0xf2
 417 223 366 263 300 263 c 0
EndSplineSet
Validated: 1
Layer: 2
SplineSet
420 319 m 1,0,1
 517 258 517 258 517 165 c 0,2,3
 517 85 517 85 456.5 35 c 128,-1,4
 396 -15 396 -15 299 -15 c 0,5,6
 203 -15 203 -15 143 35 c 128,-1,7
 83 85 83 85 83 165 c 0,8,9
 83 258 83 258 180 319 c 1,10,11
 92 378 92 378 92 455 c 128,-1,12
 92 532 92 532 152.5 585 c 128,-1,13
 213 638 213 638 300 638 c 0,14,15
 386 638 386 638 447 585 c 128,-1,16
 508 532 508 532 508 457 c 0,17,18
 508 378 508 378 420 319 c 1,0,1
300 538 m 128,-1,20
 252 538 252 538 222 513.5 c 128,-1,21
 192 489 192 489 192 451 c 128,-1,22
 192 413 192 413 222.5 388.5 c 128,-1,23
 253 364 253 364 300 364 c 128,-1,24
 347 364 347 364 377.5 388 c 128,-1,25
 408 412 408 412 408 450 c 0,26,27
 408 489 408 489 378 513.5 c 128,-1,19
 348 538 348 538 300 538 c 128,-1,20
300 263 m 0,28,29
 252 263 252 263 217.5 236.5 c 128,-1,30
 183 210 183 210 183 173 c 0,31,32
 183 135 183 135 216 110 c 128,-1,33
 249 85 249 85 300 85 c 128,-1,34
 351 85 351 85 384 109.5 c 128,-1,35
 417 134 417 134 417 172 c 128,-1,36
 417 210 417 210 383 236.5 c 128,-1,37
 349 263 349 263 300 263 c 0,28,29
EndSplineSet
EndChar

StartChar: nine
Encoding: 57 57 36
Width: 600
Flags: W
HStem: -15 103<145.17 303.597> 229 100<249.655 370.372> 538 100<246.328 377.724>
VStem: 111 100<368.444 502.29>
LayerCount: 3
Fore
SplineSet
111 434 m 0
 111 553 185 638 315 638 c 0
 472 638 541 505 541 338 c 0
 541 148 394 -15 223 -15 c 0
 153 -15 106 11 106 50 c 0
 106 78 129 101 157 101 c 0
 170 101 200 88 217 88 c 0
 323 88 415 176 438 299 c 1
 390 248 352 229 302 229 c 0
 196 229 111 321 111 434 c 0
428 414 m 1
 413 501 377 538 312 538 c 0
 249 538 211 498 211 433 c 0
 211 375 254 329 308 329 c 0
 351 329 401 365 428 414 c 1
EndSplineSet
Validated: 1
Layer: 2
SplineSet
111 434 m 0,0,1
 111 525 111 525 165 581.5 c 128,-1,2
 219 638 219 638 315 638 c 0,3,4
 427 638 427 638 484 554.5 c 128,-1,5
 541 471 541 471 541 338 c 0,6,7
 541 196 541 196 446 90.5 c 128,-1,8
 351 -15 351 -15 223 -15 c 0,9,10
 170 -15 170 -15 138 3 c 128,-1,11
 106 21 106 21 106 50 c 0,12,13
 106 71 106 71 121 86 c 128,-1,14
 136 101 136 101 157 101 c 0,15,16
 163 101 163 101 185.5 94.5 c 128,-1,17
 208 88 208 88 217 88 c 0,18,19
 296 88 296 88 358.5 147.5 c 128,-1,20
 421 207 421 207 438 299 c 1,21,22
 372 229 372 229 302 229 c 0,23,24
 223 229 223 229 167 289 c 128,-1,25
 111 349 111 349 111 434 c 0,0,1
428 414 m 1,26,27
 417 479 417 479 389 508.5 c 128,-1,28
 361 538 361 538 312 538 c 0,29,30
 265 538 265 538 238 510 c 128,-1,31
 211 482 211 482 211 433 c 0,32,33
 211 390 211 390 239 359.5 c 128,-1,34
 267 329 267 329 308 329 c 0,35,36
 340 329 340 329 374 353 c 128,-1,37
 408 377 408 377 428 414 c 1,26,27
EndSplineSet
EndChar

StartChar: colon
Encoding: 58 58 37
Width: 600
Flags: W
HStem: -15 132<242.303 358.047> 304 133<242.303 358.047>
VStem: 225 150<3.02535 98.9747 322.025 418.861>
LayerCount: 3
Fore
SplineSet
309 -15 m 2
 291 -15 l 2
 255 -15 225 15 225 51 c 0
 225 87 255 117 291 117 c 2
 309 117 l 2
 346 117 375 88 375 51 c 0
 375 14 346 -15 309 -15 c 2
309 304 m 2
 291 304 l 2
 255 304 225 334 225 370 c 0
 225 407 255 437 291 437 c 2
 309 437 l 2
 346 437 375 408 375 370 c 0
 375 333 346 304 309 304 c 2
EndSplineSet
Validated: 1
Layer: 2
SplineSet
309 -15 m 2,0,-1
 291 -15 l 2,1,2
 264 -15 264 -15 244.5 4.5 c 128,-1,3
 225 24 225 24 225 51 c 128,-1,4
 225 78 225 78 244.5 97.5 c 128,-1,5
 264 117 264 117 291 117 c 2,6,-1
 309 117 l 2,7,8
 337 117 337 117 356 98 c 128,-1,9
 375 79 375 79 375 51 c 128,-1,10
 375 23 375 23 356 4 c 128,-1,11
 337 -15 337 -15 309 -15 c 2,0,-1
309 304 m 2,12,-1
 291 304 l 2,13,14
 264 304 264 304 244.5 323.5 c 128,-1,15
 225 343 225 343 225 370 c 0,16,17
 225 398 225 398 244.5 417.5 c 128,-1,18
 264 437 264 437 291 437 c 2,19,-1
 309 437 l 2,20,21
 337 437 337 437 356 417.5 c 128,-1,22
 375 398 375 398 375 370 c 128,-1,23
 375 342 375 342 356 323 c 128,-1,24
 337 304 337 304 309 304 c 2,12,-1
EndSplineSet
EndChar

StartChar: semicolon
Encoding: 59 59 38
Width: 600
Flags: W
HStem: 304 133<218.083 333.917>
VStem: 201 150<322 418.875>
LayerCount: 3
Fore
SplineSet
219 134 m 1
 351 134 l 1
 210 -134 l 2
 202 -150 190 -158 178 -158 c 0
 161 -158 147 -145 147 -130 c 0
 147 -124 147 -122 150 -111 c 2
 219 134 l 1
276 437 m 0
 322 437 351 411 351 370 c 0
 351 330 321 304 276 304 c 0
 231 304 201 331 201 371 c 0
 201 410 231 437 276 437 c 0
EndSplineSet
Validated: 1
Layer: 2
SplineSet
219 134 m 1,0,-1
 351 134 l 1,1,-1
 210 -134 l 2,2,3
 198 -158 198 -158 178 -158 c 0,4,5
 165 -158 165 -158 156 -149.5 c 128,-1,6
 147 -141 147 -141 147 -130 c 0,7,8
 147 -122 147 -122 150 -111 c 2,9,-1
 219 134 l 1,0,-1
276 437 m 128,-1,11
 310 437 310 437 330.5 419 c 128,-1,12
 351 401 351 401 351 370 c 0,13,14
 351 340 351 340 330.5 322 c 128,-1,15
 310 304 310 304 276 304 c 128,-1,16
 242 304 242 304 221.5 322.5 c 128,-1,17
 201 341 201 341 201 371 c 0,18,19
 201 400 201 400 221.5 418.5 c 128,-1,10
 242 437 242 437 276 437 c 128,-1,11
EndSplineSet
EndChar

StartChar: less
Encoding: 60 60 39
Width: 600
Flags: W
DStem2: 251 279 42 280 0.89276 -0.450532<0 325.115> 42 280 251 279 0.896916 0.442201<187.013 509.969>
LayerCount: 3
Fore
SplineSet
502 501 m 0
 527 501 544 473 544 455 c 0
 544 436 535 424 512 412 c 2
 251 279 l 1
 512 143 l 2
 535 131 544 119 544 100 c 0
 544 84 528 54 502 54 c 0
 494 54 483 57 472 63 c 2
 42 280 l 1
 472 492 l 2
 484 498 494 501 502 501 c 0
EndSplineSet
Validated: 1
Layer: 2
SplineSet
502 501 m 0,0,1
 519 501 519 501 531.5 485.5 c 128,-1,2
 544 470 544 470 544 455 c 0,3,4
 544 429 544 429 512 412 c 2,5,-1
 251 279 l 1,6,-1
 512 143 l 2,7,8
 544 126 544 126 544 100 c 0,9,10
 544 86 544 86 532 70 c 128,-1,11
 520 54 520 54 502 54 c 0,12,13
 488 54 488 54 472 63 c 2,14,-1
 42 280 l 1,15,-1
 472 492 l 2,16,17
 490 501 490 501 502 501 c 0,0,1
EndSplineSet
EndChar

StartChar: equal
Encoding: 61 61 40
Width: 600
Flags: W
HStem: 138 100<50.4967 550.677> 322 100<50.4967 550.677>
LayerCount: 3
Fore
SplineSet
108 422 m 2
 492 422 l 2
 535 422 558 407 558 372 c 0
 558 337 535 322 492 322 c 2
 108 322 l 2
 67 322 42 338 42 372 c 0
 42 407 65 422 108 422 c 2
108 238 m 2
 492 238 l 2
 535 238 558 223 558 188 c 0
 558 153 535 138 492 138 c 2
 108 138 l 2
 67 138 42 154 42 188 c 0
 42 223 65 238 108 238 c 2
EndSplineSet
Validated: 1
Layer: 2
SplineSet
108 422 m 2,0,-1
 492 422 l 2,1,2
 558 422 558 422 558 372 c 128,-1,3
 558 322 558 322 492 322 c 2,4,-1
 108 322 l 2,5,6
 42 322 42 322 42 372 c 128,-1,7
 42 422 42 422 108 422 c 2,0,-1
108 238 m 2,8,-1
 492 238 l 2,9,10
 558 238 558 238 558 188 c 128,-1,11
 558 138 558 138 492 138 c 2,12,-1
 108 138 l 2,13,14
 42 138 42 138 42 188 c 128,-1,15
 42 238 42 238 108 238 c 2,8,-1
EndSplineSet
EndChar

StartChar: greater
Encoding: 62 62 41
Width: 600
Flags: W
DStem2: 128 491 88 412 0.89276 -0.450532<-30.4999 294.615> 349 275 558 274 0.896916 0.442201<-322.997 0>
LayerCount: 3
Fore
SplineSet
98 53 m 0
 73 53 56 81 56 100 c 0
 56 118 65 130 88 142 c 2
 349 275 l 1
 88 412 l 2
 65 423 56 435 56 453 c 0
 56 474 75 500 98 500 c 0
 106 500 117 497 128 491 c 2
 558 274 l 1
 128 62 l 2
 116 56 105 53 98 53 c 0
EndSplineSet
Validated: 1
Layer: 2
SplineSet
98 53 m 0,0,1
 81 53 81 53 68.5 68.5 c 128,-1,2
 56 84 56 84 56 100 c 0,3,4
 56 125 56 125 88 142 c 2,5,-1
 349 275 l 1,6,-1
 88 412 l 2,7,8
 56 427 56 427 56 453 c 0,9,10
 56 470 56 470 68.5 485 c 128,-1,11
 81 500 81 500 98 500 c 0,12,13
 112 500 112 500 128 491 c 2,14,-1
 558 274 l 1,15,-1
 128 62 l 2,16,17
 110 53 110 53 98 53 c 0,0,1
EndSplineSet
EndChar

StartChar: question
Encoding: 63 63 42
Width: 600
Flags: W
HStem: -15 132<244.406 360.047> 498 100<208.908 384.245>
VStem: 104 100<402.031 483.352> 227 150<3.02535 98.9747> 417 100<368.687 465.411>
LayerCount: 3
Fore
SplineSet
104 460 m 2
 104 539 l 1
 200 585 244 598 308 598 c 0
 432 598 517 521 517 409 c 0
 517 328 474 281 353 228 c 1
 349 192 332 174 303 174 c 0
 268 174 253 197 253 240 c 2
 253 296 l 1
 381 345 417 371 417 414 c 0
 417 464 373 498 309 498 c 0
 271 498 237 490 204 474 c 1
 204 460 l 2
 204 417 188 394 154 394 c 0
 119 394 104 417 104 460 c 2
311 -15 m 2
 294 -15 l 2
 257 -15 227 15 227 51 c 0
 227 87 257 117 294 117 c 2
 311 117 l 2
 348 117 377 88 377 51 c 0
 377 14 348 -15 311 -15 c 2
EndSplineSet
Validated: 1
Layer: 2
SplineSet
104 460 m 2,0,-1
 104 539 l 1,1,2
 176 574 176 574 218 586 c 128,-1,3
 260 598 260 598 308 598 c 0,4,5
 401 598 401 598 459 545.5 c 128,-1,6
 517 493 517 493 517 409 c 0,7,8
 517 348 517 348 480.5 308 c 128,-1,9
 444 268 444 268 353 228 c 1,10,11
 347 174 347 174 303 174 c 0,12,13
 253 174 253 174 253 240 c 2,14,-1
 253 296 l 1,15,16
 349 333 349 333 383 357.5 c 128,-1,17
 417 382 417 382 417 414 c 0,18,19
 417 451 417 451 387 474.5 c 128,-1,20
 357 498 357 498 309 498 c 0,21,22
 254 498 254 498 204 474 c 1,23,-1
 204 460 l 2,24,25
 204 394 204 394 154 394 c 128,-1,26
 104 394 104 394 104 460 c 2,0,-1
311 -15 m 2,27,-1
 294 -15 l 2,28,29
 266 -15 266 -15 246.5 4.5 c 128,-1,30
 227 24 227 24 227 51 c 128,-1,31
 227 78 227 78 246.5 97.5 c 128,-1,32
 266 117 266 117 294 117 c 2,33,-1
 311 117 l 2,34,35
 339 117 339 117 358 98 c 128,-1,36
 377 79 377 79 377 51 c 128,-1,37
 377 23 377 23 358 4 c 128,-1,38
 339 -15 339 -15 311 -15 c 2,27,-1
EndSplineSet
EndChar

StartChar: at
Encoding: 64 64 43
Width: 600
Flags: W
HStem: -152 78<235.925 393.164> 72 81<320.218 407> 316 81<338.964 407> 541 79<237.209 366.745>
VStem: 76 79<31.0778 435.057> 218 79<176.75 277.214> 407 79<153.017 316 394.783 496.881>
LayerCount: 3
Fore
SplineSet
305 -74 m 0
 409 -74 406 -25 439 -25 c 0
 461 -25 479 -43 479 -66 c 0
 479 -113 397 -152 302 -152 c 0
 152 -152 76 -8 76 154 c 2
 76 323 l 2
 76 495 171 620 301 620 c 0
 409 620 486 540 486 429 c 2
 486 148 l 1
 502 141 509 130 509 113 c 0
 509 85 491 72 454 72 c 2
 407 72 l 1
 407 75 l 1
 392 73 383 72 374 72 c 0
 289 72 218 143 218 226 c 0
 218 319 295 389 407 397 c 1
 407 429 l 2
 407 495 364 541 302 541 c 0
 218 541 155 445 155 317 c 2
 155 161 l 2
 155 48 194 -74 305 -74 c 0
407 155 m 1
 407 316 l 1
 341 310 297 274 297 225 c 0
 297 184 333 153 381 153 c 0
 388 153 393 153 407 155 c 1
EndSplineSet
Validated: 1
Layer: 2
SplineSet
305 -74 m 0,0,1
 340 -74 340 -74 364.5 -66.5 c 128,-1,2
 389 -59 389 -59 398.5 -49.5 c 128,-1,3
 408 -40 408 -40 418.5 -32.5 c 128,-1,4
 429 -25 429 -25 439 -25 c 0,5,6
 456 -25 456 -25 467.5 -37 c 128,-1,7
 479 -49 479 -49 479 -66 c 0,8,9
 479 -101 479 -101 426.5 -126.5 c 128,-1,10
 374 -152 374 -152 302 -152 c 0,11,12
 195 -152 195 -152 135.5 -63.5 c 128,-1,13
 76 25 76 25 76 154 c 2,14,-1
 76 323 l 2,15,16
 76 452 76 452 139.5 536 c 128,-1,17
 203 620 203 620 301 620 c 0,18,19
 382 620 382 620 434 566 c 128,-1,20
 486 512 486 512 486 429 c 2,21,-1
 486 148 l 1,22,23
 509 138 509 138 509 113 c 0,24,25
 509 72 509 72 454 72 c 2,26,-1
 407 72 l 1,27,-1
 407 75 l 1,28,29
 384 72 384 72 374 72 c 0,30,31
 310 72 310 72 264 118 c 128,-1,32
 218 164 218 164 218 226 c 0,33,34
 218 296 218 296 270.5 343.5 c 128,-1,35
 323 391 323 391 407 397 c 1,36,-1
 407 429 l 2,37,38
 407 479 407 479 377.5 510 c 128,-1,39
 348 541 348 541 302 541 c 0,40,41
 239 541 239 541 197 477 c 128,-1,42
 155 413 155 413 155 317 c 2,43,-1
 155 161 l 2,44,45
 155 100 155 100 168.5 49.5 c 128,-1,46
 182 -1 182 -1 217.5 -37.5 c 128,-1,47
 253 -74 253 -74 305 -74 c 0,0,1
407 155 m 1,48,-1
 407 316 l 1,49,50
 357 311 357 311 327 286.5 c 128,-1,51
 297 262 297 262 297 225 c 0,52,53
 297 194 297 194 321 173.5 c 128,-1,54
 345 153 345 153 381 153 c 0,55,56
 393 153 393 153 407 155 c 1,48,-1
EndSplineSet
EndChar

StartChar: A
Encoding: 65 65 44
Width: 600
Flags: W
HStem: 0 100<-12.9279 46 155 235.969 358.524 439 553 613.389> 158 100<218 375> 483 100<78.8394 201>
VStem: -21 265<9.70469 90.968> 350 271<9.767 90.6322>
DStem2: 46 100 155 100 0.375143 0.926967<40.8906 103.283 210.985 413.175> 354 583 297 450 0.380942 -0.924599<101.258 308.494 416.573 478.961>
LayerCount: 3
Fore
SplineSet
416 0 m 2
 359 0 350 30 350 50 c 0
 350 85 372 100 416 100 c 2
 439 100 l 1
 416 158 l 1
 178 158 l 1
 155 100 l 1
 178 100 l 2
 221 100 244 85 244 50 c 0
 244 15 220 0 178 0 c 2
 45 0 l 2
 1 0 -21 17 -21 50 c 0
 -21 85 2 100 46 100 c 1
 201 483 l 1
 138 483 l 2
 95 483 71 498 71 533 c 0
 71 568 93 583 138 583 c 2
 354 583 l 1
 553 100 l 1
 597 100 621 86 621 50 c 0
 621 15 597 0 555 0 c 2
 416 0 l 2
375 258 m 1
 297 450 l 1
 218 258 l 1
 375 258 l 1
EndSplineSet
Validated: 1
Layer: 2
SplineSet
416 0 m 2,0,1
 350 0 350 0 350 50 c 128,-1,2
 350 100 350 100 416 100 c 2,3,-1
 439 100 l 1,4,-1
 416 158 l 1,5,-1
 178 158 l 1,6,-1
 155 100 l 1,7,-1
 178 100 l 2,8,9
 244 100 244 100 244 50 c 128,-1,10
 244 0 244 0 178 0 c 2,11,-1
 45 0 l 2,12,13
 -21 0 -21 0 -21 50 c 128,-1,14
 -21 100 -21 100 46 100 c 1,15,-1
 201 483 l 1,16,-1
 138 483 l 2,17,18
 71 483 71 483 71 533 c 128,-1,19
 71 583 71 583 138 583 c 2,20,-1
 354 583 l 1,21,-1
 553 100 l 1,22,23
 621 100 621 100 621 50 c 128,-1,24
 621 0 621 0 555 0 c 2,25,-1
 416 0 l 2,0,1
375 258 m 1,26,-1
 297 450 l 1,27,-1
 218 258 l 1,28,-1
 375 258 l 1,26,-1
EndSplineSet
EndChar

StartChar: B
Encoding: 66 66 45
Width: 600
Flags: W
HStem: 0 100<21.4338 94 194 454.562> 242 100<194 394.494> 483 100<21.0315 94 194 405.827>
VStem: 94 100<100 242 342 483> 428 100<372.854 461.086> 471 100<116.808 202.541>
LayerCount: 3
Fore
SplineSet
79 0 m 2xf4
 22 0 13 30 13 50 c 0
 13 85 36 100 79 100 c 2
 94 100 l 1
 94 483 l 1
 79 483 l 2
 36 483 13 499 13 533 c 0
 13 568 37 583 79 583 c 2
 332 583 l 2
 445 583 528 513 528 418 c 0xf8
 528 372 509 339 465 305 c 1
 537 269 571 223 571 160 c 0
 571 64 492 0 374 0 c 2
 79 0 l 2xf4
194 342 m 1
 307 342 l 2
 379 342 428 373 428 419 c 0
 428 459 390 483 327 483 c 2
 194 483 l 1
 194 342 l 1
471 154 m 0xf4
 471 187 440 242 329 242 c 2
 194 242 l 1
 194 100 l 1
 369 100 l 2
 437 100 471 118 471 154 c 0xf4
EndSplineSet
Validated: 1
Layer: 2
SplineSet
79 0 m 2,0,1
 13 0 13 0 13 50 c 128,-1,2
 13 100 13 100 79 100 c 2,3,-1
 94 100 l 1,4,-1
 94 483 l 1,5,-1
 79 483 l 2,6,7
 13 483 13 483 13 533 c 128,-1,8
 13 583 13 583 79 583 c 2,9,-1
 332 583 l 2,10,11
 417 583 417 583 472.5 536 c 128,-1,12
 528 489 528 489 528 418 c 0,13,14
 528 354 528 354 465 305 c 1,15,16
 571 252 571 252 571 160 c 0,17,18
 571 88 571 88 517 44 c 128,-1,19
 463 0 463 0 374 0 c 2,20,-1
 79 0 l 2,0,1
194 342 m 1,21,-1
 307 342 l 2,22,23
 361 342 361 342 394.5 363.5 c 128,-1,24
 428 385 428 385 428 419 c 0,25,26
 428 449 428 449 401 466 c 128,-1,27
 374 483 374 483 327 483 c 2,28,-1
 194 483 l 1,29,-1
 194 342 l 1,21,-1
471 154 m 0,30,31
 471 186 471 186 437 214 c 128,-1,32
 403 242 403 242 329 242 c 2,33,-1
 194 242 l 1,34,-1
 194 100 l 1,35,-1
 369 100 l 2,36,37
 471 100 471 100 471 154 c 0,30,31
EndSplineSet
EndChar

StartChar: C
Encoding: 67 67 46
Width: 600
Flags: W
HStem: -14 100<222.866 436.647> 367 216<459.427 539.968> 497 100<222.847 400.623>
VStem: 33 100<168.419 400.438> 450 99<374.541 456.205>
LayerCount: 3
Fore
SplineSet
447 563 m 1xb8
 457 559 l 1
 470 577 482 583 499 583 c 0
 534 583 549 560 549 517 c 2
 549 433 l 2
 549 390 534 367 499 367 c 0xd8
 466 367 457 385 450 420 c 0
 440 469 370 497 309 497 c 0
 207 497 133 420 133 315 c 2
 133 251 l 2
 133 151 210 86 330 86 c 0
 438 86 461 126 478 143 c 0
 489 154 501 159 514 159 c 0
 541 159 564 136 564 109 c 0
 564 60 475 -14 327 -14 c 0
 157 -14 33 97 33 249 c 2
 33 315 l 2
 33 475 151 597 305 597 c 0
 357 597 392 589 447 563 c 1xb8
EndSplineSet
Validated: 1
Layer: 2
SplineSet
447 563 m 1,0,-1
 457 559 l 1,1,2
 474 583 474 583 499 583 c 0,3,4
 549 583 549 583 549 517 c 2,5,-1
 549 433 l 2,6,7
 549 367 549 367 499 367 c 0,8,9
 476 367 476 367 466 379 c 128,-1,10
 456 391 456 391 450 420 c 0,11,12
 443 455 443 455 400.5 476 c 128,-1,13
 358 497 358 497 309 497 c 0,14,15
 233 497 233 497 183 445.5 c 128,-1,16
 133 394 133 394 133 315 c 2,17,-1
 133 251 l 2,18,19
 133 176 133 176 186.5 131 c 128,-1,20
 240 86 240 86 330 86 c 0,21,22
 356 86 356 86 377.5 89.5 c 128,-1,23
 399 93 399 93 412 96.5 c 128,-1,24
 425 100 425 100 438.5 108.5 c 128,-1,25
 452 117 452 117 456 120.5 c 128,-1,26
 460 124 460 124 469 133.5 c 2,27,-1
 478 143 l 2,28,29
 494 159 494 159 514 159 c 128,-1,30
 534 159 534 159 549 144 c 128,-1,31
 564 129 564 129 564 109 c 0,32,33
 564 67 564 67 497 26.5 c 128,-1,34
 430 -14 430 -14 327 -14 c 0,35,36
 200 -14 200 -14 116.5 60.5 c 128,-1,37
 33 135 33 135 33 249 c 2,38,-1
 33 315 l 2,39,40
 33 435 33 435 111 516 c 128,-1,41
 189 597 189 597 305 597 c 0,42,43
 375 597 375 597 447 563 c 1,0,-1
EndSplineSet
EndChar

StartChar: D
Encoding: 68 68 47
Width: 600
Flags: W
HStem: 0 100<21.5401 74 174 379.903> 483 100<21.2919 74 174 370.025>
VStem: 74 100<100 483> 450 100<171.261 395.503>
LayerCount: 3
Fore
SplineSet
74 100 m 1
 74 483 l 1
 35 483 13 501 13 533 c 0
 13 568 35 583 80 583 c 2
 292 583 l 2
 438 583 550 462 550 305 c 2
 550 258 l 2
 550 103 442 0 284 0 c 2
 80 0 l 2
 38 0 13 16 13 50 c 0
 13 82 36 100 74 100 c 1
450 307 m 2
 450 368 417 483 284 483 c 2
 174 483 l 1
 174 100 l 1
 285 100 l 2
 391 100 450 158 450 261 c 2
 450 307 l 2
EndSplineSet
Validated: 1
Layer: 2
SplineSet
74 100 m 1,0,-1
 74 483 l 1,1,2
 13 483 13 483 13 533 c 128,-1,3
 13 583 13 583 80 583 c 2,4,-1
 292 583 l 2,5,6
 401 583 401 583 475.5 503 c 128,-1,7
 550 423 550 423 550 305 c 2,8,-1
 550 258 l 2,9,10
 550 142 550 142 476.5 71 c 128,-1,11
 403 0 403 0 284 0 c 2,12,-1
 80 0 l 2,13,14
 13 0 13 0 13 50 c 0,15,16
 13 74 13 74 29 87 c 128,-1,17
 45 100 45 100 74 100 c 1,0,-1
450 307 m 2,18,19
 450 333 450 333 442.5 360.5 c 128,-1,20
 435 388 435 388 417.5 417 c 128,-1,21
 400 446 400 446 365.5 464.5 c 128,-1,22
 331 483 331 483 284 483 c 2,23,-1
 174 483 l 1,24,-1
 174 100 l 1,25,-1
 285 100 l 2,26,27
 364 100 364 100 407 142 c 128,-1,28
 450 184 450 184 450 261 c 2,29,-1
 450 307 l 2,18,19
EndSplineSet
EndChar

StartChar: E
Encoding: 69 69 48
Width: 600
Flags: W
HStem: 0 219<459.032 540.968> 0 100<21.4967 94 194 450> 170 246<288.032 367.7> 243 99<194 279> 366 217<437.032 518.968> 483 100<20.7988 94 194 428>
VStem: 94 100<100 243 342 483> 279 99<177.323 243 342 407.695> 428 100<373.358 483> 450 100<100 211.161>
LayerCount: 3
Fore
SplineSet
328 416 m 0x2380
 363 416 378 389 378 349 c 2
 378 236 l 2
 378 193 363 170 329 170 c 0x2380
 294 170 279 193 279 236 c 2
 279 243 l 1
 194 243 l 1
 194 100 l 1
 450 100 l 1x5340
 450 152 l 2
 450 197 465 219 500 219 c 0x8340
 535 219 550 196 550 152 c 2
 550 0 l 1x4340
 79 0 l 2
 38 0 13 16 13 50 c 0
 13 84 36 100 79 100 c 2
 94 100 l 1
 94 483 l 1
 79 483 l 2
 36 483 13 498 13 533 c 0
 13 568 35 583 79 583 c 2
 528 583 l 1x4780
 528 433 l 2
 528 389 513 366 478 366 c 0x0b80
 443 366 428 389 428 433 c 2
 428 483 l 1
 194 483 l 1
 194 342 l 1
 279 342 l 1x1780
 279 349 l 2
 279 392 294 416 328 416 c 0x2380
EndSplineSet
Validated: 1
Layer: 2
SplineSet
328 416 m 0,0,1
 378 416 378 416 378 349 c 2,2,-1
 378 236 l 2,3,4
 378 170 378 170 329 170 c 0,5,6
 279 170 279 170 279 236 c 2,7,-1
 279 243 l 1,8,-1
 194 243 l 1,9,-1
 194 100 l 1,10,-1
 450 100 l 1,11,-1
 450 152 l 2,12,13
 450 219 450 219 500 219 c 128,-1,14
 550 219 550 219 550 152 c 2,15,-1
 550 0 l 1,16,-1
 79 0 l 2,17,18
 13 0 13 0 13 50 c 128,-1,19
 13 100 13 100 79 100 c 2,20,-1
 94 100 l 1,21,-1
 94 483 l 1,22,-1
 79 483 l 2,23,24
 13 483 13 483 13 533 c 128,-1,25
 13 583 13 583 79 583 c 2,26,-1
 528 583 l 1,27,-1
 528 433 l 2,28,29
 528 366 528 366 478 366 c 128,-1,30
 428 366 428 366 428 433 c 2,31,-1
 428 483 l 1,32,-1
 194 483 l 1,33,-1
 194 342 l 1,34,-1
 279 342 l 1,35,-1
 279 349 l 2,36,37
 279 416 279 416 328 416 c 0,0,1
EndSplineSet
EndChar

StartChar: F
Encoding: 70 70 49
Width: 600
Flags: W
HStem: 0 100<21.4967 94 194 351.736> 169 246<288.032 369.052> 243 99<194 279> 366 217<459.355 540.968> 483 100<20.7988 94 194 450>
VStem: 94 100<100 243 342 483> 279 99<176.575 243 342 407.677> 450 100<374.031 483>
LayerCount: 3
Fore
SplineSet
360 50 m 0xa7
 360 16 336 0 294 0 c 2
 79 0 l 2
 38 0 13 16 13 50 c 0
 13 85 36 100 79 100 c 2
 94 100 l 1
 94 483 l 1
 79 483 l 2
 36 483 13 498 13 533 c 0
 13 568 35 583 79 583 c 2
 550 583 l 1xaf
 550 432 l 2
 550 389 535 366 500 366 c 0x97
 466 366 450 389 450 432 c 2
 450 483 l 1
 194 483 l 1
 194 342 l 1
 279 342 l 1xaf
 279 349 l 2
 279 392 294 415 329 415 c 0
 363 415 378 392 378 349 c 2
 378 236 l 2
 378 193 363 169 329 169 c 0xc7
 294 169 279 193 279 236 c 2
 279 243 l 1
 194 243 l 1
 194 100 l 1
 294 100 l 2
 338 100 360 85 360 50 c 0xa7
EndSplineSet
Validated: 1
Layer: 2
SplineSet
360 50 m 128,-1,1
 360 0 360 0 294 0 c 2,2,-1
 79 0 l 2,3,4
 13 0 13 0 13 50 c 128,-1,5
 13 100 13 100 79 100 c 2,6,-1
 94 100 l 1,7,-1
 94 483 l 1,8,-1
 79 483 l 2,9,10
 13 483 13 483 13 533 c 128,-1,11
 13 583 13 583 79 583 c 2,12,-1
 550 583 l 1,13,-1
 550 432 l 2,14,15
 550 366 550 366 500 366 c 128,-1,16
 450 366 450 366 450 432 c 2,17,-1
 450 483 l 1,18,-1
 194 483 l 1,19,-1
 194 342 l 1,20,-1
 279 342 l 1,21,-1
 279 349 l 2,22,23
 279 415 279 415 329 415 c 0,24,25
 378 415 378 415 378 349 c 2,26,-1
 378 236 l 2,27,28
 378 169 378 169 329 169 c 0,29,30
 279 169 279 169 279 236 c 2,31,-1
 279 243 l 1,32,-1
 194 243 l 1,33,-1
 194 100 l 1,34,-1
 294 100 l 2,35,0
 360 100 360 100 360 50 c 128,-1,1
EndSplineSet
EndChar

StartChar: G
Encoding: 71 71 50
Width: 600
Flags: W
HStem: -14 100<214.078 442.803> 180 100<292.264 450> 387 210<468.211 540.968> 497 100<223.789 420.391>
VStem: 33 100<164.424 406.66> 450 100<102.38 180 396.281 469.936>
LayerCount: 3
Fore
SplineSet
318 497 m 0xdc
 170 497 133 383 133 317 c 2
 133 253 l 2
 133 133 206 86 325 86 c 0
 373 86 412 94 450 111 c 1
 450 180 l 1
 350 180 l 2
 308 180 284 196 284 230 c 0
 284 265 307 280 350 280 c 2
 525 280 l 2
 569 280 592 265 592 230 c 0
 592 205 578 188 550 180 c 1
 550 48 l 1
 461 1 409 -14 331 -14 c 0
 153 -14 33 73 33 246 c 2
 33 317 l 2
 33 441 121 597 317 597 c 0xdc
 371 597 420 586 462 565 c 1
 474 589 484 597 503 597 c 0
 532 597 550 583 550 531 c 2
 550 453 l 2
 550 409 535 387 500 387 c 0xec
 457 387 454 429 451 440 c 0
 441 475 391 497 318 497 c 0xdc
EndSplineSet
Validated: 1
Layer: 2
SplineSet
318 497 m 0,0,1
 266 497 266 497 227.5 478.5 c 128,-1,2
 189 460 189 460 169.5 431 c 128,-1,3
 150 402 150 402 141.5 373.5 c 128,-1,4
 133 345 133 345 133 317 c 2,5,-1
 133 253 l 2,6,7
 133 86 133 86 325 86 c 0,8,9
 394 86 394 86 450 111 c 1,10,-1
 450 180 l 1,11,-1
 350 180 l 2,12,13
 284 180 284 180 284 230 c 128,-1,14
 284 280 284 280 350 280 c 2,15,-1
 525 280 l 2,16,17
 592 280 592 280 592 230 c 0,18,19
 592 192 592 192 550 180 c 1,20,-1
 550 48 l 1,21,22
 483 13 483 13 436 -0.5 c 128,-1,23
 389 -14 389 -14 331 -14 c 0,24,25
 194 -14 194 -14 113.5 52.5 c 128,-1,26
 33 119 33 119 33 246 c 2,27,-1
 33 317 l 2,28,29
 33 365 33 365 50.5 413 c 128,-1,30
 68 461 68 461 101 503 c 128,-1,31
 134 545 134 545 190.5 571 c 128,-1,32
 247 597 247 597 317 597 c 0,33,34
 398 597 398 597 462 565 c 1,35,36
 478 597 478 597 503 597 c 0,37,38
 526 597 526 597 538 582.5 c 128,-1,39
 550 568 550 568 550 531 c 2,40,-1
 550 453 l 2,41,42
 550 387 550 387 500 387 c 0,43,44
 490 387 490 387 482 390.5 c 128,-1,45
 474 394 474 394 469 398 c 128,-1,46
 464 402 464 402 460.5 409.5 c 128,-1,47
 457 417 457 417 455.5 421.5 c 128,-1,48
 454 426 454 426 452.5 432.5 c 128,-1,49
 451 439 451 439 451 440 c 0,50,51
 443 466 443 466 408 481.5 c 128,-1,52
 373 497 373 497 318 497 c 0,0,1
EndSplineSet
EndChar

StartChar: H
Encoding: 72 72 51
Width: 600
Flags: W
HStem: 0 100<30.323 95 195 267.969 336.031 409 509 573.201> 241 100<195 409> 483 100<51.3995 95 195 268.201 335.323 409 509 552.476>
VStem: 23 253<9.03198 90.968> 43 233<492.492 573.968> 95 100<100 241 341 483> 328 253<9.35498 90.968> 328 233<492.492 573.968> 409 100<100 241 341 483>
LayerCount: 3
Fore
SplineSet
409 241 m 1xe080
 195 241 l 1
 195 100 l 1xe480
 210 100 l 2
 253 100 276 85 276 50 c 0
 276 15 252 0 210 0 c 2
 89 0 l 2
 46 0 23 15 23 50 c 0xf0
 23 85 46 100 89 100 c 2
 95 100 l 1
 95 483 l 1xe4
 62 486 43 504 43 533 c 0
 43 568 66 583 109 583 c 2
 210 583 l 2
 254 583 276 568 276 533 c 0xe8
 276 498 253 483 210 483 c 2
 195 483 l 1
 195 341 l 1
 409 341 l 1
 409 483 l 1xe480
 394 483 l 2
 351 483 328 498 328 533 c 0
 328 568 351 583 394 583 c 2
 495 583 l 2
 539 583 561 568 561 533 c 0xe1
 561 504 542 486 509 483 c 1
 509 100 l 1xe080
 515 100 l 2
 559 100 581 85 581 50 c 0
 581 15 557 0 515 0 c 2
 394 0 l 2
 351 0 328 16 328 50 c 0xe2
 328 85 351 100 394 100 c 2
 409 100 l 1
 409 241 l 1xe080
EndSplineSet
Validated: 1
Layer: 2
SplineSet
409 241 m 1,0,-1
 195 241 l 1,1,-1
 195 100 l 1,2,-1
 210 100 l 2,3,4
 276 100 276 100 276 50 c 128,-1,5
 276 0 276 0 210 0 c 2,6,-1
 89 0 l 2,7,8
 23 0 23 0 23 50 c 128,-1,9
 23 100 23 100 89 100 c 2,10,-1
 95 100 l 1,11,-1
 95 483 l 1,12,13
 43 488 43 488 43 533 c 0,14,15
 43 583 43 583 109 583 c 2,16,-1
 210 583 l 2,17,18
 276 583 276 583 276 533 c 128,-1,19
 276 483 276 483 210 483 c 2,20,-1
 195 483 l 1,21,-1
 195 341 l 1,22,-1
 409 341 l 1,23,-1
 409 483 l 1,24,-1
 394 483 l 2,25,26
 328 483 328 483 328 533 c 128,-1,27
 328 583 328 583 394 583 c 2,28,-1
 495 583 l 2,29,30
 561 583 561 583 561 533 c 0,31,32
 561 488 561 488 509 483 c 1,33,-1
 509 100 l 1,34,-1
 515 100 l 2,35,36
 581 100 581 100 581 50 c 128,-1,37
 581 0 581 0 515 0 c 2,38,-1
 394 0 l 2,39,40
 328 0 328 0 328 50 c 128,-1,41
 328 100 328 100 394 100 c 2,42,-1
 409 100 l 1,43,-1
 409 241 l 1,0,-1
EndSplineSet
EndChar

StartChar: I
Encoding: 73 73 52
Width: 600
Flags: W
HStem: 0 100<91.5239 250 350 509.201> 483 100<90.7988 250 350 509.201>
VStem: 250 100<100 483>
LayerCount: 3
Fore
SplineSet
149 0 m 2
 92 0 83 30 83 50 c 0
 83 85 105 100 149 100 c 2
 250 100 l 1
 250 483 l 1
 149 483 l 2
 106 483 83 498 83 533 c 0
 83 568 105 583 149 583 c 2
 451 583 l 2
 495 583 517 568 517 533 c 0
 517 498 494 483 451 483 c 2
 350 483 l 1
 350 100 l 1
 451 100 l 2
 495 100 517 85 517 50 c 0
 517 17 495 0 451 0 c 2
 149 0 l 2
EndSplineSet
Validated: 1
Layer: 2
SplineSet
149 0 m 2,0,1
 83 0 83 0 83 50 c 128,-1,2
 83 100 83 100 149 100 c 2,3,-1
 250 100 l 1,4,-1
 250 483 l 1,5,-1
 149 483 l 2,6,7
 83 483 83 483 83 533 c 128,-1,8
 83 583 83 583 149 583 c 2,9,-1
 451 583 l 2,10,11
 517 583 517 583 517 533 c 128,-1,12
 517 483 517 483 451 483 c 2,13,-1
 350 483 l 1,14,-1
 350 100 l 1,15,-1
 451 100 l 2,16,17
 517 100 517 100 517 50 c 128,-1,18
 517 0 517 0 451 0 c 2,19,-1
 149 0 l 2,0,1
EndSplineSet
EndChar

StartChar: J
Encoding: 74 74 53
Width: 600
Flags: W
HStem: -14 100<176.735 350.108> 483 100<212.799 390 490 605.201>
VStem: 54 100<107.624 272.642> 390 100<128.441 483>
LayerCount: 3
Fore
SplineSet
490 483 m 1
 490 187 l 2
 490 66 390 -14 269 -14 c 0
 212 -14 145 6 54 51 c 1
 54 213 l 2
 54 257 69 280 104 280 c 0
 139 280 154 257 154 213 c 2
 154 117 l 1
 203 95 237 86 271 86 c 0
 341 86 390 120 390 198 c 2
 390 483 l 1
 271 483 l 2
 228 483 205 498 205 533 c 0
 205 568 227 583 271 583 c 2
 547 583 l 2
 591 583 613 568 613 533 c 0
 613 498 590 483 547 483 c 2
 490 483 l 1
EndSplineSet
Validated: 1
Layer: 2
SplineSet
490 483 m 1,0,-1
 490 187 l 2,1,2
 490 98 490 98 426 42 c 128,-1,3
 362 -14 362 -14 269 -14 c 0,4,5
 185 -14 185 -14 54 51 c 1,6,-1
 54 213 l 2,7,8
 54 280 54 280 104 280 c 128,-1,9
 154 280 154 280 154 213 c 2,10,-1
 154 117 l 1,11,12
 223 86 223 86 271 86 c 0,13,14
 326 86 326 86 358 114 c 128,-1,15
 390 142 390 142 390 198 c 2,16,-1
 390 483 l 1,17,-1
 271 483 l 2,18,19
 205 483 205 483 205 533 c 128,-1,20
 205 583 205 583 271 583 c 2,21,-1
 547 583 l 2,22,23
 613 583 613 583 613 533 c 128,-1,24
 613 483 613 483 547 483 c 2,25,-1
 490 483 l 1,0,-1
EndSplineSet
EndChar

StartChar: K
Encoding: 75 75 54
Width: 600
Flags: W
HStem: 0 100<21.4338 94 194 286.736 495.192 593.736> 483 100<20.7988 94 194 287.201 511 565.201>
VStem: 94 100<100 208 334 483> 341 232<492.002 573.295>
DStem2: 194 334 335 330 0.755374 0.655293<0 5.46403 103.887 234.717>
LayerCount: 3
Fore
SplineSet
295 50 m 0
 295 16 271 0 229 0 c 2
 79 0 l 2
 22 0 13 30 13 50 c 0
 13 85 36 100 79 100 c 2
 94 100 l 1
 94 483 l 1
 79 483 l 2
 36 483 13 498 13 533 c 0
 13 568 35 583 79 583 c 2
 229 583 l 2
 273 583 295 568 295 533 c 0
 295 498 272 483 229 483 c 2
 194 483 l 1
 194 334 l 1
 372 487 l 1
 351 495 341 509 341 532 c 0
 341 569 368 583 407 583 c 2
 507 583 l 2
 551 583 573 568 573 533 c 0
 573 500 552 483 511 483 c 1
 335 330 l 1
 396 298 458 215 504 100 c 1
 536 100 l 2
 579 100 602 85 602 50 c 0
 602 16 578 0 536 0 c 2
 426 0 l 1
 379 143 315 240 254 259 c 1
 194 208 l 1
 194 100 l 1
 229 100 l 2
 272 100 295 85 295 50 c 0
EndSplineSet
Validated: 1
Layer: 2
SplineSet
295 50 m 128,-1,1
 295 0 295 0 229 0 c 2,2,-1
 79 0 l 2,3,4
 13 0 13 0 13 50 c 128,-1,5
 13 100 13 100 79 100 c 2,6,-1
 94 100 l 1,7,-1
 94 483 l 1,8,-1
 79 483 l 2,9,10
 13 483 13 483 13 533 c 128,-1,11
 13 583 13 583 79 583 c 2,12,-1
 229 583 l 2,13,14
 295 583 295 583 295 533 c 128,-1,15
 295 483 295 483 229 483 c 2,16,-1
 194 483 l 1,17,-1
 194 334 l 1,18,-1
 372 487 l 1,19,20
 341 499 341 499 341 532 c 0,21,22
 341 583 341 583 407 583 c 2,23,-1
 507 583 l 2,24,25
 573 583 573 583 573 533 c 128,-1,26
 573 483 573 483 511 483 c 1,27,-1
 335 330 l 1,28,29
 432 279 432 279 504 100 c 1,30,-1
 536 100 l 2,31,32
 602 100 602 100 602 50 c 128,-1,33
 602 0 602 0 536 0 c 2,34,-1
 426 0 l 1,35,36
 391 107 391 107 345.5 176 c 128,-1,37
 300 245 300 245 254 259 c 1,38,-1
 194 208 l 1,39,-1
 194 100 l 1,40,-1
 229 100 l 2,41,0
 295 100 295 100 295 50 c 128,-1,1
EndSplineSet
EndChar

StartChar: L
Encoding: 76 76 55
Width: 600
Flags: W
HStem: 0 259<480.032 561.968> 0 100<41.5239 156 256 471> 483 100<40.7988 156 256 371.677>
VStem: 156 100<100 483> 471 100<100 251.642>
LayerCount: 3
Fore
SplineSet
99 0 m 2x78
 42 0 33 30 33 50 c 0
 33 85 55 100 99 100 c 2
 156 100 l 1
 156 483 l 1
 99 483 l 2
 56 483 33 498 33 533 c 0
 33 568 55 583 99 583 c 2
 313 583 l 2
 356 583 379 568 379 533 c 0
 379 498 356 483 313 483 c 2
 256 483 l 1
 256 100 l 1
 471 100 l 1x78
 471 192 l 2
 471 236 486 259 521 259 c 0xb8
 556 259 571 236 571 192 c 2
 571 0 l 1
 99 0 l 2x78
EndSplineSet
Validated: 1
Layer: 2
SplineSet
99 0 m 2,0,1
 33 0 33 0 33 50 c 128,-1,2
 33 100 33 100 99 100 c 2,3,-1
 156 100 l 1,4,-1
 156 483 l 1,5,-1
 99 483 l 2,6,7
 33 483 33 483 33 533 c 128,-1,8
 33 583 33 583 99 583 c 2,9,-1
 313 583 l 2,10,11
 379 583 379 583 379 533 c 128,-1,12
 379 483 379 483 313 483 c 2,13,-1
 256 483 l 1,14,-1
 256 100 l 1,15,-1
 471 100 l 1,16,-1
 471 192 l 2,17,18
 471 259 471 259 521 259 c 128,-1,19
 571 259 571 259 571 192 c 2,20,-1
 571 0 l 1,21,-1
 99 0 l 2,0,1
EndSplineSet
EndChar

StartChar: M
Encoding: 77 77 56
Width: 600
Flags: W
HStem: 0 100<-10.7081 42 142 234.736 369.524 462 562 614.708> 483 100<-1.60051 42 562 605.476>
VStem: -19 262<9.70469 90.6895> 42 100<100 389> 361 262<10.0415 90.6895> 462 100<100 389>
DStem2: 303 286 142 389 0.42138 -0.906884<-161.251 0> 303 286 351 138 0.413803 0.910366<0 159.562>
LayerCount: 3
Fore
SplineSet
427 0 m 2xc8
 370 0 361 30 361 50 c 0xc8
 361 85 383 100 427 100 c 2
 462 100 l 1
 462 389 l 1
 351 138 l 1
 260 138 l 1
 142 389 l 1
 142 100 l 1xd4
 177 100 l 2
 221 100 243 85 243 50 c 0
 243 16 219 0 177 0 c 2
 48 0 l 2
 6 0 -19 15 -19 50 c 0xe0
 -19 82 3 100 42 100 c 1
 42 483 l 1
 9 486 -10 504 -10 534 c 0
 -10 565 14 583 52 583 c 2
 165 583 l 1
 303 286 l 1
 438 583 l 1
 548 583 l 2
 592 583 614 568 614 533 c 0
 614 504 595 486 562 483 c 1
 562 100 l 1xd4
 601 100 623 82 623 50 c 0
 623 16 599 0 557 0 c 2
 427 0 l 2xc8
EndSplineSet
Validated: 1
Layer: 2
SplineSet
427 0 m 2,0,1
 361 0 361 0 361 50 c 128,-1,2
 361 100 361 100 427 100 c 2,3,-1
 462 100 l 1,4,-1
 462 389 l 1,5,-1
 351 138 l 1,6,-1
 260 138 l 1,7,-1
 142 389 l 1,8,-1
 142 100 l 1,9,-1
 177 100 l 2,10,11
 243 100 243 100 243 50 c 128,-1,12
 243 0 243 0 177 0 c 2,13,-1
 48 0 l 2,14,15
 -19 0 -19 0 -19 50 c 128,-1,16
 -19 100 -19 100 42 100 c 1,17,-1
 42 483 l 1,18,19
 -10 488 -10 488 -10 534 c 0,20,21
 -10 557 -10 557 6.5 570 c 128,-1,22
 23 583 23 583 52 583 c 2,23,-1
 165 583 l 1,24,-1
 303 286 l 1,25,-1
 438 583 l 1,26,-1
 548 583 l 2,27,28
 614 583 614 583 614 533 c 0,29,30
 614 488 614 488 562 483 c 1,31,-1
 562 100 l 1,32,33
 623 100 623 100 623 50 c 128,-1,34
 623 0 623 0 557 0 c 2,35,-1
 427 0 l 2,0,1
EndSplineSet
EndChar

StartChar: N
Encoding: 78 78 57
Width: 600
Flags: W
HStem: 0 100<20.2919 73 173 265.736> 483 100<-0.201172 73 337.799 431 531 583.956>
VStem: 12 262<9.70469 90.6895> 73 100<100 394> 330 262<492.032 573.968> 431 100<191 483>
DStem2: 173 583 173 394 0.549305 -0.835622<157.933 469.284>
LayerCount: 3
Fore
SplineSet
173 394 m 1xd4
 173 100 l 1xd4
 208 100 l 2
 252 100 274 85 274 50 c 0
 274 16 250 0 208 0 c 2
 79 0 l 2
 37 0 12 15 12 50 c 0xe0
 12 82 34 100 73 100 c 1
 73 483 l 1
 58 483 l 2
 15 483 -8 498 -8 533 c 0
 -8 568 14 583 58 583 c 2
 173 583 l 1
 431 191 l 1
 431 483 l 1xd4
 396 483 l 2
 353 483 330 498 330 533 c 0
 330 568 352 583 396 583 c 2
 526 583 l 2
 569 583 592 568 592 533 c 0xc8
 592 501 571 483 531 483 c 1
 531 0 l 1
 432 0 l 1
 173 394 l 1xd4
EndSplineSet
Validated: 1
Layer: 2
SplineSet
173 394 m 1,0,-1
 173 100 l 1,1,-1
 208 100 l 2,2,3
 274 100 274 100 274 50 c 128,-1,4
 274 0 274 0 208 0 c 2,5,-1
 79 0 l 2,6,7
 12 0 12 0 12 50 c 128,-1,8
 12 100 12 100 73 100 c 1,9,-1
 73 483 l 1,10,-1
 58 483 l 2,11,12
 -8 483 -8 483 -8 533 c 128,-1,13
 -8 583 -8 583 58 583 c 2,14,-1
 173 583 l 1,15,-1
 431 191 l 1,16,-1
 431 483 l 1,17,-1
 396 483 l 2,18,19
 330 483 330 483 330 533 c 128,-1,20
 330 583 330 583 396 583 c 2,21,-1
 526 583 l 2,22,23
 592 583 592 583 592 533 c 128,-1,24
 592 483 592 483 531 483 c 1,25,-1
 531 0 l 1,26,-1
 432 0 l 1,27,-1
 173 394 l 1,0,-1
EndSplineSet
EndChar

StartChar: O
Encoding: 79 79 58
Width: 600
Flags: W
HStem: -14 100<223.211 376.218> 497 100<223.211 377.173>
VStem: 21 100<194.003 385.854> 479 100<195.749 386.892>
LayerCount: 3
Fore
SplineSet
300 597 m 0
 421 597 579 497 579 287 c 0
 579 123 452 -14 300 -14 c 0
 146 -14 21 123 21 292 c 0
 21 460 146 597 300 597 c 0
300 497 m 0
 202 497 121 404 121 292 c 0
 121 179 202 86 300 86 c 0
 397 86 479 179 479 289 c 0
 479 404 399 497 300 497 c 0
EndSplineSet
Validated: 1
Layer: 2
SplineSet
300 597 m 0,0,1
 347 597 347 597 395 577.5 c 128,-1,2
 443 558 443 558 484.5 521.5 c 128,-1,3
 526 485 526 485 552.5 423.5 c 128,-1,4
 579 362 579 362 579 287 c 0,5,6
 579 164 579 164 496.5 75 c 128,-1,7
 414 -14 414 -14 300 -14 c 0,8,9
 184 -14 184 -14 102.5 75.5 c 128,-1,10
 21 165 21 165 21 292 c 0,11,12
 21 418 21 418 103 507.5 c 128,-1,13
 185 597 185 597 300 597 c 0,0,1
300 497 m 0,14,15
 227 497 227 497 174 436.5 c 128,-1,16
 121 376 121 376 121 292 c 0,17,18
 121 207 121 207 173.5 146.5 c 128,-1,19
 226 86 226 86 300 86 c 0,20,21
 373 86 373 86 426 146 c 128,-1,22
 479 206 479 206 479 289 c 0,23,24
 479 375 479 375 426.5 436 c 128,-1,25
 374 497 374 497 300 497 c 0,14,15
EndSplineSet
EndChar

StartChar: P
Encoding: 80 80 59
Width: 600
Flags: W
HStem: 0 100<21.4338 94 194 350.736> 200 100<194 387.25> 483 100<21.0315 94 194 389.477>
VStem: 94 100<100 200 300 483> 423 106<332.952 449.25>
LayerCount: 3
Fore
SplineSet
359 50 m 0
 359 16 335 0 293 0 c 2
 79 0 l 2
 22 0 13 30 13 50 c 0
 13 85 36 100 79 100 c 2
 94 100 l 1
 94 483 l 1
 79 483 l 2
 36 483 13 499 13 533 c 0
 13 568 35 583 79 583 c 2
 312 583 l 2
 439 583 529 505 529 394 c 0
 529 266 430 200 292 200 c 2
 194 200 l 1
 194 100 l 1
 293 100 l 2
 336 100 359 85 359 50 c 0
194 483 m 1
 194 300 l 1
 312 300 l 2
 381 300 423 335 423 391 c 0
 423 448 381 483 312 483 c 2
 194 483 l 1
EndSplineSet
Validated: 1
Layer: 2
SplineSet
359 50 m 128,-1,1
 359 0 359 0 293 0 c 2,2,-1
 79 0 l 2,3,4
 13 0 13 0 13 50 c 128,-1,5
 13 100 13 100 79 100 c 2,6,-1
 94 100 l 1,7,-1
 94 483 l 1,8,-1
 79 483 l 2,9,10
 13 483 13 483 13 533 c 128,-1,11
 13 583 13 583 79 583 c 2,12,-1
 312 583 l 2,13,14
 407 583 407 583 468 530 c 128,-1,15
 529 477 529 477 529 394 c 0,16,17
 529 301 529 301 464 250.5 c 128,-1,18
 399 200 399 200 292 200 c 2,19,-1
 194 200 l 1,20,-1
 194 100 l 1,21,-1
 293 100 l 2,22,0
 359 100 359 100 359 50 c 128,-1,1
194 483 m 1,23,-1
 194 300 l 1,24,-1
 312 300 l 2,25,26
 364 300 364 300 393.5 324.5 c 128,-1,27
 423 349 423 349 423 391 c 0,28,29
 423 434 423 434 393.5 458.5 c 128,-1,30
 364 483 364 483 312 483 c 2,31,-1
 194 483 l 1,23,-1
EndSplineSet
EndChar

StartChar: Q
Encoding: 81 81 60
Width: 600
Flags: W
HStem: -145 100<362.048 496.309> -117 92<268.437 402.526> -33 20G<511 540.5> -7 92<269.956 376.276> 497 100<223.211 376.83>
VStem: 21 100<195.965 385.691> 479 100<193.992 385.74>
LayerCount: 3
Fore
SplineSet
319 -117 m 0x5e
 274 -117 177 -143 165 -143 c 0
 139 -143 117 -119 117 -91 c 0
 117 -76 121 -68 137 -53 c 2
 199 7 l 1
 85 72 21 141 21 292 c 0
 21 460 146 597 300 597 c 0
 453 597 579 460 579 294 c 0
 579 141 470 -7 289 -7 c 0
 287 -7 279 -7 271 -6 c 1
 267 -30 l 1
 291 -26 303 -25 318 -25 c 0x5e
 376 -25 411 -45 443 -45 c 0
 482 -45 496 -13 526 -13 c 0
 555 -13 577 -35 577 -63 c 0
 577 -111 485 -145 444 -145 c 0xbe
 389 -145 376 -117 319 -117 c 0x5e
300 497 m 0
 202 497 121 404 121 291 c 0
 121 179 202 85 300 85 c 0
 397 85 479 178 479 288 c 0
 479 404 399 497 300 497 c 0
EndSplineSet
Validated: 1
Layer: 2
SplineSet
319 -117 m 0,0,1
 292 -117 292 -117 229.5 -130 c 128,-1,2
 167 -143 167 -143 165 -143 c 0,3,4
 146 -143 146 -143 131.5 -127.5 c 128,-1,5
 117 -112 117 -112 117 -91 c 0,6,7
 117 -72 117 -72 137 -53 c 2,8,-1
 199 7 l 1,9,10
 138 42 138 42 101.5 76.5 c 128,-1,11
 65 111 65 111 43 165 c 128,-1,12
 21 219 21 219 21 292 c 0,13,14
 21 418 21 418 103 507.5 c 128,-1,15
 185 597 185 597 300 597 c 128,-1,16
 415 597 415 597 497 508 c 128,-1,17
 579 419 579 419 579 294 c 0,18,19
 579 173 579 173 499 83 c 128,-1,20
 419 -7 419 -7 289 -7 c 0,21,22
 279 -7 279 -7 271 -6 c 1,23,-1
 267 -30 l 1,24,25
 297 -25 297 -25 318 -25 c 0,26,27
 350 -25 350 -25 390 -35 c 128,-1,28
 430 -45 430 -45 443 -45 c 0,29,30
 464 -45 464 -45 488 -29 c 128,-1,31
 512 -13 512 -13 526 -13 c 0,32,33
 548 -13 548 -13 562.5 -27.5 c 128,-1,34
 577 -42 577 -42 577 -63 c 0,35,36
 577 -96 577 -96 529 -120.5 c 128,-1,37
 481 -145 481 -145 444 -145 c 0,38,39
 417 -145 417 -145 382.5 -131 c 128,-1,40
 348 -117 348 -117 319 -117 c 0,0,1
300 497 m 128,-1,42
 226 497 226 497 173.5 436.5 c 128,-1,43
 121 376 121 376 121 291 c 0,44,45
 121 207 121 207 174 146 c 128,-1,46
 227 85 227 85 300 85 c 128,-1,47
 373 85 373 85 426 145 c 128,-1,48
 479 205 479 205 479 288 c 0,49,50
 479 375 479 375 426.5 436 c 128,-1,41
 374 497 374 497 300 497 c 128,-1,42
EndSplineSet
EndChar

StartChar: R
Encoding: 82 82 61
Width: 600
Flags: W
HStem: 0 100<21.4338 94 194 286.736 526.379 610.736> 222 100<194 321.012> 483 100<20.7988 94 194 381.047>
VStem: 13 282<10.0415 90.968> 94 100<100 222 322 483> 416 106<362.689 452.635>
LayerCount: 3
Fore
SplineSet
295 50 m 0xf4
 295 16 271 0 229 0 c 2
 79 0 l 2
 22 0 13 30 13 50 c 0xf4
 13 85 36 100 79 100 c 2
 94 100 l 1
 94 483 l 1xec
 79 483 l 2
 36 483 13 498 13 533 c 0xf4
 13 568 35 583 79 583 c 2
 302 583 l 2
 432 583 522 510 522 405 c 0
 522 342 487 294 414 254 c 1
 461 213 498 167 540 100 c 1
 553 100 l 2
 596 100 619 86 619 50 c 0
 619 16 595 0 553 0 c 2
 474 0 l 1
 424 97 332 207 290 222 c 1
 194 222 l 1
 194 100 l 1xec
 229 100 l 2
 273 100 295 85 295 50 c 0xf4
194 322 m 1xec
 270 322 l 2
 354 322 416 358 416 408 c 0
 416 451 370 483 306 483 c 2
 194 483 l 1
 194 322 l 1xec
EndSplineSet
Validated: 1
Layer: 2
SplineSet
295 50 m 128,-1,1
 295 0 295 0 229 0 c 2,2,-1
 79 0 l 2,3,4
 13 0 13 0 13 50 c 128,-1,5
 13 100 13 100 79 100 c 2,6,-1
 94 100 l 1,7,-1
 94 483 l 1,8,-1
 79 483 l 2,9,10
 13 483 13 483 13 533 c 128,-1,11
 13 583 13 583 79 583 c 2,12,-1
 302 583 l 2,13,14
 399 583 399 583 460.5 533.5 c 128,-1,15
 522 484 522 484 522 405 c 0,16,17
 522 313 522 313 414 254 c 1,18,19
 479 197 479 197 540 100 c 1,20,-1
 553 100 l 2,21,22
 619 100 619 100 619 50 c 128,-1,23
 619 0 619 0 553 0 c 2,24,-1
 474 0 l 1,25,26
 437 72 437 72 379.5 141.5 c 128,-1,27
 322 211 322 211 290 222 c 1,28,-1
 194 222 l 1,29,-1
 194 100 l 1,30,-1
 229 100 l 2,31,0
 295 100 295 100 295 50 c 128,-1,1
194 322 m 1,32,-1
 270 322 l 2,33,34
 333 322 333 322 374.5 346.5 c 128,-1,35
 416 371 416 371 416 408 c 0,36,37
 416 440 416 440 385 461.5 c 128,-1,38
 354 483 354 483 306 483 c 2,39,-1
 194 483 l 1,40,-1
 194 322 l 1,32,-1
EndSplineSet
EndChar

StartChar: S
Encoding: 83 83 62
Width: 600
Flags: W
HStem: -14 100<207.044 393.852> 1 198<71.032 150.673> 376 221<434.606 508.052> 497 100<220.8 384.026>
VStem: 62 101<121.364 190.228> 82 104<376.997 465.38> 418 99<384.072 464.681> 434 104<121.623 204.612>
LayerCount: 3
Fore
SplineSet
517 531 m 2x26
 517 443 l 2
 517 399 502 376 468 376 c 0
 422 376 421 417 418 430 c 0x26
 409 470 361 497 299 497 c 0
 236 497 186 464 186 421 c 0
 186 364 257 352 311 342 c 0
 421 322 538 288 538 160 c 0
 538 56 446 -14 309 -14 c 0x95
 255 -14 202 -1 153 25 c 1
 136 5 129 1 113 1 c 0
 78 1 62 22 62 67 c 2
 62 133 l 2
 62 176 77 199 112 199 c 0
 156 199 161 159 163 151 c 0x49
 173 115 236 86 302 86 c 0
 376 86 434 119 434 162 c 0
 434 218 366 228 291 242 c 0
 185 262 82 296 82 420 c 0
 82 521 175 597 299 597 c 0x95
 350 597 394 586 429 564 c 1
 439 589 448 597 468 597 c 0
 504 597 517 575 517 531 c 2x26
EndSplineSet
Validated: 1
Layer: 2
SplineSet
517 531 m 2,0,-1
 517 443 l 2,1,2
 517 376 517 376 468 376 c 0,3,4
 457 376 457 376 448.5 379.5 c 128,-1,5
 440 383 440 383 435.5 387 c 128,-1,6
 431 391 431 391 427 398.5 c 128,-1,7
 423 406 423 406 422 410 c 128,-1,8
 421 414 421 414 419.5 421.5 c 128,-1,9
 418 429 418 429 418 430 c 0,10,11
 411 460 411 460 378.5 478.5 c 128,-1,12
 346 497 346 497 299 497 c 128,-1,13
 252 497 252 497 219 475 c 128,-1,14
 186 453 186 453 186 421 c 0,15,16
 186 401 186 401 196.5 386.5 c 128,-1,17
 207 372 207 372 230 363.5 c 128,-1,18
 253 355 253 355 267.5 351 c 128,-1,19
 282 347 282 347 311 342 c 0,20,21
 349 335 349 335 377.5 327.5 c 128,-1,22
 406 320 406 320 438 306 c 128,-1,23
 470 292 470 292 490.5 273.5 c 128,-1,24
 511 255 511 255 524.5 226 c 128,-1,25
 538 197 538 197 538 160 c 0,26,27
 538 82 538 82 475 34 c 128,-1,28
 412 -14 412 -14 309 -14 c 0,29,30
 226 -14 226 -14 153 25 c 1,31,32
 133 1 133 1 113 1 c 0,33,34
 62 1 62 1 62 67 c 2,35,-1
 62 133 l 2,36,37
 62 199 62 199 112 199 c 0,38,39
 119 199 119 199 125 197.5 c 128,-1,40
 131 196 131 196 136 193.5 c 128,-1,41
 141 191 141 191 144.5 188.5 c 128,-1,42
 148 186 148 186 150.5 181.5 c 128,-1,43
 153 177 153 177 155 174 c 128,-1,44
 157 171 157 171 158.5 167 c 128,-1,45
 160 163 160 163 160.5 160.5 c 128,-1,46
 161 158 161 158 162 154.5 c 2,47,-1
 163 151 l 2,48,49
 170 124 170 124 211 105 c 128,-1,50
 252 86 252 86 302 86 c 0,51,52
 358 86 358 86 396 108 c 128,-1,53
 434 130 434 130 434 162 c 0,54,55
 434 187 434 187 412.5 203.5 c 128,-1,56
 391 220 391 220 370 225.5 c 128,-1,57
 349 231 349 231 300.882243111 240.165773042 c 0,58,59
 294 241 294 241 291 242 c 0,60,61
 245 251 245 251 212.5 261.5 c 128,-1,62
 180 272 180 272 147.5 291.5 c 128,-1,63
 115 311 115 311 98.5 343.5 c 128,-1,64
 82 376 82 376 82 420 c 0,65,66
 82 496 82 496 144 546.5 c 128,-1,67
 206 597 206 597 299 597 c 0,68,69
 376 597 376 597 429 564 c 1,70,71
 437 583 437 583 445 590 c 128,-1,72
 453 597 453 597 468 597 c 0,73,74
 517 597 517 597 517 531 c 2,0,-1
EndSplineSet
EndChar

StartChar: T
Encoding: 84 84 63
Width: 600
Flags: W
HStem: 0 100<126.757 249 349 472.736> 324 259<51.032 132.968 467.032 548.968> 483 100<142 249 349 458>
VStem: 42 100<331.323 483> 249 100<100 483> 458 100<331.799 483>
LayerCount: 3
Fore
SplineSet
481 50 m 0xbc
 481 16 457 0 415 0 c 2
 184 0 l 2
 128 0 118 30 118 50 c 0
 118 85 140 100 184 100 c 2
 249 100 l 1
 249 483 l 1
 142 483 l 1xbc
 142 390 l 2
 142 347 127 324 92 324 c 0xdc
 57 324 42 347 42 390 c 2
 42 583 l 1
 558 583 l 1xbc
 558 390 l 2
 558 346 543 324 508 324 c 0xdc
 473 324 458 348 458 390 c 2
 458 483 l 1
 349 483 l 1
 349 100 l 1
 415 100 l 2
 458 100 481 85 481 50 c 0xbc
EndSplineSet
Validated: 1
Layer: 2
SplineSet
481 50 m 128,-1,1
 481 0 481 0 415 0 c 2,2,-1
 184 0 l 2,3,4
 118 0 118 0 118 50 c 128,-1,5
 118 100 118 100 184 100 c 2,6,-1
 249 100 l 1,7,-1
 249 483 l 1,8,-1
 142 483 l 1,9,-1
 142 390 l 2,10,11
 142 324 142 324 92 324 c 128,-1,12
 42 324 42 324 42 390 c 2,13,-1
 42 583 l 1,14,-1
 558 583 l 1,15,-1
 558 390 l 2,16,17
 558 324 558 324 508 324 c 128,-1,18
 458 324 458 324 458 390 c 2,19,-1
 458 483 l 1,20,-1
 349 483 l 1,21,-1
 349 100 l 1,22,-1
 415 100 l 2,23,0
 481 100 481 100 481 50 c 128,-1,1
EndSplineSet
EndChar

StartChar: U
Encoding: 85 85 64
Width: 600
Flags: W
HStem: -14 100<224.39 375.41> 483 100<18.0436 71 171 264.201 335.799 429 529 581.956>
VStem: 10 262<492.074 573.968> 71 100<139.724 483> 328 262<492.032 573.968> 429 100<139.017 483>
LayerCount: 3
Fore
SplineSet
300 -14 m 0xc4
 185 -14 71 69 71 205 c 2
 71 483 l 1xd4
 31 484 10 501 10 533 c 0
 10 568 33 583 76 583 c 2
 206 583 l 2
 250 583 272 569 272 533 c 0xe0
 272 498 249 483 206 483 c 2
 171 483 l 1
 171 196 l 2
 171 135 229 86 300 86 c 0
 371 86 429 135 429 196 c 2
 429 483 l 1xd4
 394 483 l 2
 351 483 328 498 328 533 c 0
 328 568 350 583 394 583 c 2
 524 583 l 2
 568 583 590 568 590 533 c 0xc8
 590 501 569 483 529 483 c 1
 529 205 l 2
 529 67 414 -14 300 -14 c 0xc4
EndSplineSet
Validated: 1
Layer: 2
SplineSet
300 -14 m 128,-1,1
 209 -14 209 -14 140 46.5 c 128,-1,2
 71 107 71 107 71 205 c 2,3,-1
 71 483 l 1,4,5
 10 485 10 485 10 533 c 0,6,7
 10 583 10 583 76 583 c 2,8,-1
 206 583 l 2,9,10
 272 583 272 583 272 533 c 128,-1,11
 272 483 272 483 206 483 c 2,12,-1
 171 483 l 1,13,-1
 171 196 l 2,14,15
 171 150 171 150 209 118 c 128,-1,16
 247 86 247 86 300 86 c 128,-1,17
 353 86 353 86 391 118 c 128,-1,18
 429 150 429 150 429 196 c 2,19,-1
 429 483 l 1,20,-1
 394 483 l 2,21,22
 328 483 328 483 328 533 c 128,-1,23
 328 583 328 583 394 583 c 2,24,-1
 524 583 l 2,25,26
 590 583 590 583 590 533 c 128,-1,27
 590 483 590 483 529 483 c 1,28,-1
 529 205 l 2,29,30
 529 106 529 106 460 46 c 128,-1,0
 391 -14 391 -14 300 -14 c 128,-1,1
EndSplineSet
EndChar

StartChar: V
Encoding: 86 86 65
Width: 600
Flags: W
HStem: 0 21G<240.636 356.489> 483 100<-12.9553 47 159 236.677 364.799 447 553 612.955>
VStem: -21 265<492.032 573.968> 357 264<492.032 573.968>
DStem2: 159 483 47 483 0.385836 -0.922567<0 368.311> 303 144 348 0 0.390697 0.920519<0 368.316>
LayerCount: 3
Fore
SplineSet
303 144 m 1
 447 483 l 1
 423 483 l 2
 380 483 357 498 357 533 c 0
 357 568 379 583 423 583 c 2
 555 583 l 2
 598 583 621 568 621 533 c 0
 621 496 595 483 553 483 c 1
 348 0 l 1
 249 0 l 1
 47 483 l 1
 5 483 -21 496 -21 533 c 0
 -21 568 1 583 45 583 c 2
 178 583 l 2
 221 583 244 568 244 533 c 0
 244 498 221 483 178 483 c 2
 159 483 l 1
 303 144 l 1
EndSplineSet
Validated: 1
Layer: 2
SplineSet
303 144 m 1,0,-1
 447 483 l 1,1,-1
 423 483 l 2,2,3
 357 483 357 483 357 533 c 128,-1,4
 357 583 357 583 423 583 c 2,5,-1
 555 583 l 2,6,7
 621 583 621 583 621 533 c 128,-1,8
 621 483 621 483 553 483 c 1,9,-1
 348 0 l 1,10,-1
 249 0 l 1,11,-1
 47 483 l 1,12,13
 -21 483 -21 483 -21 533 c 128,-1,14
 -21 583 -21 583 45 583 c 2,15,-1
 178 583 l 2,16,17
 244 583 244 583 244 533 c 128,-1,18
 244 483 244 483 178 483 c 2,19,-1
 159 483 l 1,20,-1
 303 144 l 1,0,-1
EndSplineSet
EndChar

StartChar: W
Encoding: 87 87 66
Width: 600
Flags: W
HStem: 0 21G<95.4327 215.57 386.285 505.484> 417 20G<244.274 361.726> 483 100<-2.21222 36 139 246.642 354.799 466 563 601.476>
VStem: -10 264<492.032 573.968> 347 263<492.032 573.968>
DStem2: 139 483 36 483 0.12732 -0.991862<0 274.37> 431 211 503 0 0.123276 0.992372<0 274.24>
LayerCount: 3
Fore
SplineSet
300 277 m 1
 209 0 l 1
 98 0 l 1
 36 483 l 1
 6 487 -10 503 -10 531 c 0
 -10 567 11 583 56 583 c 2
 187 583 l 2
 231 583 254 568 254 533 c 0
 254 498 231 483 187 483 c 2
 139 483 l 1
 175 211 l 1
 251 437 l 1
 355 437 l 1
 431 211 l 1
 466 483 l 1
 413 483 l 2
 370 483 347 498 347 533 c 0
 347 568 369 583 413 583 c 2
 544 583 l 2
 588 583 610 568 610 533 c 0
 610 506 593 488 563 483 c 1
 503 0 l 1
 393 0 l 1
 300 277 l 1
EndSplineSet
Validated: 1
Layer: 2
SplineSet
300 277 m 1,0,-1
 209 0 l 1,1,-1
 98 0 l 1,2,-1
 36 483 l 1,3,4
 -10 489 -10 489 -10 531 c 0,5,6
 -10 583 -10 583 56 583 c 2,7,-1
 187 583 l 2,8,9
 254 583 254 583 254 533 c 128,-1,10
 254 483 254 483 187 483 c 2,11,-1
 139 483 l 1,12,-1
 175 211 l 1,13,-1
 251 437 l 1,14,-1
 355 437 l 1,15,-1
 431 211 l 1,16,-1
 466 483 l 1,17,-1
 413 483 l 2,18,19
 347 483 347 483 347 533 c 128,-1,20
 347 583 347 583 413 583 c 2,21,-1
 544 583 l 2,22,23
 610 583 610 583 610 533 c 0,24,25
 610 491 610 491 563 483 c 1,26,-1
 503 0 l 1,27,-1
 393 0 l 1,28,-1
 300 277 l 1,0,-1
EndSplineSet
EndChar

StartChar: X
Encoding: 88 88 67
Width: 600
Flags: W
HStem: 0 100<18.199 69 199 245.46 355.174 402 531 581.736> 483 100<27.6251 77 521 569.476>
VStem: 10 243<9.35498 90.7681> 19 224<493.647 572.597> 347 243<9.70469 90.7681> 355 223<493.808 572.958>
DStem2: 69 100 199 100 0.644871 0.764291<83.8332 241.325 359.145 502.426> 205 484 77 483 0.647187 -0.762331<0 144.577 263.385 420.231>
LayerCount: 3
Fore
SplineSet
19 533 m 0xd0
 19 568 48 583 85 583 c 2
 176 583 l 2
 220 583 243 568 243 533 c 0
 243 511 234 498 205 484 c 1
 300 375 l 1
 393 484 l 1
 365 498 355 511 355 533 c 0
 355 567 380 583 422 583 c 2
 512 583 l 2
 556 583 578 568 578 533 c 0xd4
 578 502 556 483 521 483 c 1
 364 297 l 1
 531 100 l 1
 569 100 590 81 590 50 c 0
 590 15 566 0 524 0 c 2
 413 0 l 2
 369 0 347 17 347 50 c 0
 347 80 367 100 402 100 c 1
 301 220 l 1
 199 100 l 1
 233 100 253 80 253 50 c 0
 253 15 229 0 187 0 c 2
 76 0 l 2
 33 0 10 16 10 50 c 0xe8
 10 81 32 100 69 100 c 1
 235 298 l 1
 77 483 l 1
 40 483 19 503 19 533 c 0xd0
EndSplineSet
Validated: 1
Layer: 2
SplineSet
19 533 m 0,0,1
 19 583 19 583 85 583 c 2,2,-1
 176 583 l 2,3,4
 243 583 243 583 243 533 c 0,5,6
 243 502 243 502 205 484 c 1,7,-1
 300 375 l 1,8,-1
 393 484 l 1,9,10
 355 503 355 503 355 533 c 0,11,12
 355 583 355 583 422 583 c 2,13,-1
 512 583 l 2,14,15
 578 583 578 583 578 533 c 0,16,17
 578 510 578 510 562.5 496.5 c 128,-1,18
 547 483 547 483 521 483 c 1,19,-1
 364 297 l 1,20,-1
 531 100 l 1,21,22
 559 100 559 100 574.5 86.5 c 128,-1,23
 590 73 590 73 590 50 c 0,24,25
 590 0 590 0 524 0 c 2,26,-1
 413 0 l 2,27,28
 347 0 347 0 347 50 c 0,29,30
 347 73 347 73 361.5 86.5 c 128,-1,31
 376 100 376 100 402 100 c 1,32,-1
 301 220 l 1,33,-1
 199 100 l 1,34,35
 224 100 224 100 238.5 86.5 c 128,-1,36
 253 73 253 73 253 50 c 0,37,38
 253 0 253 0 187 0 c 2,39,-1
 76 0 l 2,40,41
 10 0 10 0 10 50 c 0,42,43
 10 73 10 73 25.5 86.5 c 128,-1,44
 41 100 41 100 69 100 c 1,45,-1
 235 298 l 1,46,-1
 77 483 l 1,47,48
 50 483 50 483 34.5 496.5 c 128,-1,49
 19 510 19 510 19 533 c 0,0,1
EndSplineSet
EndChar

StartChar: Y
Encoding: 89 89 68
Width: 600
Flags: W
HStem: 0 100<125.839 250 350 474.642> 483 100<29.6793 85 514 570.026>
VStem: 21 222<493.062 572.948> 250 100<100 245> 354 225<493.258 573.968>
DStem2: 205 484 85 483 0.569749 -0.821819<0 165.894> 300 348 350 245 0.56741 0.823436<0 165.324>
LayerCount: 3
Fore
SplineSet
21 533 m 0
 21 569 49 583 88 583 c 2
 177 583 l 2
 221 583 243 568 243 533 c 0
 243 510 231 495 205 484 c 1
 300 348 l 1
 394 484 l 1
 367 494 354 510 354 533 c 0
 354 568 377 583 421 583 c 2
 513 583 l 2
 557 583 579 568 579 533 c 0
 579 501 555 483 514 483 c 1
 350 245 l 1
 350 100 l 1
 415 100 l 2
 459 100 482 85 482 50 c 0
 482 15 459 0 415 0 c 2
 185 0 l 2
 143 0 118 15 118 50 c 0
 118 85 140 100 185 100 c 2
 250 100 l 1
 250 245 l 1
 85 483 l 1
 44 483 21 501 21 533 c 0
EndSplineSet
Validated: 1
Layer: 2
SplineSet
21 533 m 128,-1,1
 21 583 21 583 88 583 c 2,2,-1
 177 583 l 2,3,4
 243 583 243 583 243 533 c 0,5,6
 243 500 243 500 205 484 c 1,7,-1
 300 348 l 1,8,-1
 394 484 l 1,9,10
 354 499 354 499 354 533 c 0,11,12
 354 583 354 583 421 583 c 2,13,-1
 513 583 l 2,14,15
 579 583 579 583 579 533 c 128,-1,16
 579 483 579 483 514 483 c 1,17,-1
 350 245 l 1,18,-1
 350 100 l 1,19,-1
 415 100 l 2,20,21
 482 100 482 100 482 50 c 128,-1,22
 482 0 482 0 415 0 c 2,23,-1
 185 0 l 2,24,25
 118 0 118 0 118 50 c 128,-1,26
 118 100 118 100 185 100 c 2,27,-1
 250 100 l 1,28,-1
 250 245 l 1,29,-1
 85 483 l 1,30,0
 21 483 21 483 21 533 c 128,-1,1
EndSplineSet
EndChar

StartChar: Z
Encoding: 90 90 69
Width: 600
Flags: W
HStem: 0 238<436.032 517.968> 0 100<201 427> 347 236<105.355 186.968> 483 100<196 375>
VStem: 96 100<355.031 483> 427 100<100 230.201>
DStem2: 73 100 201 100 0.617462 0.786601<79.0351 487.742>
LayerCount: 3
Fore
SplineSet
201 100 m 1x5c
 427 100 l 1x5c
 427 172 l 2
 427 215 442 238 477 238 c 0x8c
 512 238 527 216 527 172 c 2
 527 0 l 1
 73 0 l 1
 73 100 l 1
 375 483 l 1
 196 483 l 1x5c
 196 413 l 2
 196 369 181 347 146 347 c 0x2c
 112 347 96 370 96 413 c 2
 96 583 l 1
 504 583 l 1
 504 486 l 1
 201 100 l 1x5c
EndSplineSet
Validated: 1
Layer: 2
SplineSet
201 100 m 1,0,-1
 427 100 l 1,1,-1
 427 172 l 2,2,3
 427 238 427 238 477 238 c 128,-1,4
 527 238 527 238 527 172 c 2,5,-1
 527 0 l 1,6,-1
 73 0 l 1,7,-1
 73 100 l 1,8,-1
 375 483 l 1,9,-1
 196 483 l 1,10,-1
 196 413 l 2,11,12
 196 347 196 347 146 347 c 128,-1,13
 96 347 96 347 96 413 c 2,14,-1
 96 583 l 1,15,-1
 504 583 l 1,16,-1
 504 486 l 1,17,-1
 201 100 l 1,0,-1
EndSplineSet
EndChar

StartChar: bracketleft
Encoding: 91 91 70
Width: 600
Flags: W
HStem: -148 100<350 466.969> 527 100<350 466.201>
VStem: 250 225<-138.645 -57.032 536.705 617.968> 250 100<-48 527>
LayerCount: 3
Fore
SplineSet
350 527 m 1xd0
 350 -48 l 1xd0
 409 -48 l 2
 452 -48 475 -63 475 -98 c 0xe0
 475 -132 452 -148 409 -148 c 2
 250 -148 l 1
 250 627 l 1
 408 627 l 2
 452 627 474 612 474 577 c 0
 474 542 451 527 408 527 c 2
 350 527 l 1xd0
EndSplineSet
Validated: 1
Layer: 2
SplineSet
350 527 m 1,0,-1
 350 -48 l 1,1,-1
 409 -48 l 2,2,3
 475 -48 475 -48 475 -98 c 128,-1,4
 475 -148 475 -148 409 -148 c 2,5,-1
 250 -148 l 1,6,-1
 250 627 l 1,7,-1
 408 627 l 2,8,9
 474 627 474 627 474 577 c 128,-1,10
 474 527 474 527 408 527 c 2,11,-1
 350 527 l 1,0,-1
EndSplineSet
EndChar

StartChar: backslash
Encoding: 92 92 71
Width: 600
Flags: W
DStem2: 184 651 95 610 0.42631 -0.904577<-38.9752 789.214>
LayerCount: 3
Fore
SplineSet
184 651 m 2
 505 -27 l 2
 514 -45 517 -55 517 -65 c 0
 517 -90 493 -113 467 -113 c 0
 443 -113 431 -103 415 -69 c 2
 95 610 l 2
 85 630 83 636 83 647 c 0
 83 672 106 695 133 695 c 0
 156 695 169 685 184 651 c 2
EndSplineSet
Validated: 1
Layer: 2
SplineSet
184 651 m 2,0,-1
 505 -27 l 2,1,2
 517 -51 517 -51 517 -65 c 0,3,4
 517 -84 517 -84 502 -98.5 c 128,-1,5
 487 -113 487 -113 467 -113 c 0,6,7
 449 -113 449 -113 438 -103.5 c 128,-1,8
 427 -94 427 -94 415 -69 c 2,9,-1
 95 610 l 2,10,11
 83 634 83 634 83 647 c 0,12,13
 83 666 83 666 98 680.5 c 128,-1,14
 113 695 113 695 133 695 c 0,15,16
 151 695 151 695 162 685.5 c 128,-1,17
 173 676 173 676 184 651 c 2,0,-1
EndSplineSet
EndChar

StartChar: bracketright
Encoding: 93 93 72
Width: 600
Flags: W
HStem: -148 100<133.799 250> 527 100<133.031 250>
VStem: 126 224<-138.968 -57.032 535.384 618.307> 250 100<-48 527>
LayerCount: 3
Fore
SplineSet
250 -48 m 1xd0
 250 527 l 1
 191 527 l 2
 148 527 125 542 125 577 c 0
 125 611 148 627 191 627 c 2
 350 627 l 1
 350 -148 l 1xd0
 192 -148 l 2
 148 -148 126 -133 126 -98 c 0xe0
 126 -63 149 -48 192 -48 c 2
 250 -48 l 1xd0
EndSplineSet
Validated: 1
Layer: 2
SplineSet
250 -48 m 1,0,-1
 250 527 l 1,1,-1
 191 527 l 2,2,3
 125 527 125 527 125 577 c 128,-1,4
 125 627 125 627 191 627 c 2,5,-1
 350 627 l 1,6,-1
 350 -148 l 1,7,-1
 192 -148 l 2,8,9
 126 -148 126 -148 126 -98 c 128,-1,10
 126 -48 126 -48 192 -48 c 2,11,-1
 250 -48 l 1,0,-1
EndSplineSet
EndChar

StartChar: asciicircum
Encoding: 94 94 73
Width: 600
Flags: W
HStem: 325 327
DStem2: 105 419 182 356 0.63986 0.768492<-47.3522 181.77> 299 652 299 494 0.643731 -0.765252<120.91 351.772>
LayerCount: 3
Fore
SplineSet
299 494 m 1
 182 356 l 2
 160 330 153 325 133 325 c 0
 106 325 83 348 83 375 c 0
 83 390 87 398 105 419 c 2
 299 652 l 1
 495 419 l 2
 513 398 517 390 517 375 c 0
 517 348 494 325 467 325 c 0
 448 325 439 330 418 355 c 2
 299 494 l 1
EndSplineSet
Validated: 1
Layer: 2
SplineSet
299 494 m 1,0,-1
 182 356 l 2,1,2
 165 336 165 336 156.5 330.5 c 128,-1,3
 148 325 148 325 133 325 c 0,4,5
 113 325 113 325 98 340 c 128,-1,6
 83 355 83 355 83 375 c 0,7,8
 83 393 83 393 105 419 c 2,9,-1
 299 652 l 1,10,-1
 495 419 l 2,11,12
 517 393 517 393 517 375 c 0,13,14
 517 355 517 355 502 340 c 128,-1,15
 487 325 487 325 467 325 c 0,16,17
 453 325 453 325 443.5 330.5 c 128,-1,18
 434 336 434 336 418 355 c 2,19,-1
 299 494 l 1,0,-1
EndSplineSet
EndChar

StartChar: underscore
Encoding: 95 95 74
Width: 600
Flags: W
HStem: -125 50<-12 612>
LayerCount: 3
Fore
SplineSet
612 -75 m 1
 612 -125 l 1
 -12 -125 l 1
 -12 -75 l 1
 612 -75 l 1
EndSplineSet
Validated: 1
Layer: 2
SplineSet
612 -75 m 1,0,-1
 612 -125 l 1,1,-1
 -12 -125 l 1,2,-1
 -12 -75 l 1,3,-1
 612 -75 l 1,0,-1
EndSplineSet
EndChar

StartChar: grave
Encoding: 96 96 75
Width: 600
Flags: W
HStem: 496 200
VStem: 125 225
DStem2: 194 680 281 512 0.764911 -0.644136<-34.3908 209.187>
LayerCount: 3
Fore
SplineSet
194 680 m 2
 327 569 l 2
 343 556 350 545 350 532 c 0
 350 513 333 496 313 496 c 0
 303 496 296 500 281 512 c 2
 148 624 l 2
 132 638 125 647 125 660 c 0
 125 680 141 696 162 696 c 0
 173 696 178 693 194 680 c 2
EndSplineSet
Validated: 1
Layer: 2
SplineSet
194 680 m 2,0,-1
 327 569 l 2,1,2
 350 550 350 550 350 532 c 0,3,4
 350 518 350 518 339 507 c 128,-1,5
 328 496 328 496 313 496 c 0,6,7
 301 496 301 496 281 512 c 2,8,-1
 148 624 l 2,9,10
 125 644 125 644 125 660 c 0,11,12
 125 675 125 675 135.5 685.5 c 128,-1,13
 146 696 146 696 162 696 c 0,14,15
 174 696 174 696 194 680 c 2,0,-1
EndSplineSet
EndChar

StartChar: a
Encoding: 97 97 76
Width: 600
Flags: W
HStem: -16 100<155.744 330.994> 0 100<489 563.201> 196 92<189.807 386.606> 350 100<152.763 376.546>
VStem: 42 106<95.2491 160.582> 388 101<123.047 188.615 278 335.061>
LayerCount: 3
Fore
SplineSet
295 350 m 0xbc
 225 350 170 327 139 327 c 0
 111 327 90 349 90 378 c 0
 90 399 100 413 120 420 c 0
 168 437 242 450 292 450 c 0
 415 450 489 395 489 302 c 2
 489 100 l 1
 505 100 l 2
 549 100 571 85 571 50 c 0
 571 15 548 0 505 0 c 2
 388 0 l 1x7c
 388 23 l 1
 340 -2 281 -16 222 -16 c 0
 123 -16 42 45 42 119 c 0
 42 197 123 288 284 288 c 0
 316 288 347 285 388 278 c 1
 388 301 l 2
 388 335 359 350 295 350 c 0xbc
389 135 m 1
 389 185 l 1
 349 192 312 196 278 196 c 0
 210 196 148 161 148 123 c 0
 148 101 181 84 224 84 c 0xbc
 278 84 334 101 389 135 c 1
EndSplineSet
Validated: 1
Layer: 2
SplineSet
295 350 m 0,0,1
 255 350 255 350 202.5 338.5 c 128,-1,2
 150 327 150 327 139 327 c 0,3,4
 118 327 118 327 104 341.5 c 128,-1,5
 90 356 90 356 90 378 c 0,6,7
 90 409.5 90 409.5 120 420 c 0,8,9
 205 450 205 450 292 450 c 0,10,11
 384 450 384 450 436.5 411 c 128,-1,12
 489 372 489 372 489 302 c 2,13,-1
 489 100 l 1,14,-1
 505 100 l 2,15,16
 571 100 571 100 571 50 c 128,-1,17
 571 0 571 0 505 0 c 2,18,-1
 388 0 l 1,19,-1
 388 23 l 1,20,21
 313 -16 313 -16 222 -16 c 0,22,23
 148 -16 148 -16 95 23.5 c 128,-1,24
 42 63 42 63 42 119 c 0,25,26
 42 184 42 184 106.5 236 c 128,-1,27
 171 288 171 288 284 288 c 0,28,29
 329 288 329 288 388 278 c 1,30,-1
 388 301 l 2,31,32
 388 350 388 350 295 350 c 0,0,1
389 135 m 1,33,-1
 389 185 l 1,34,35
 326 196 326 196 278 196 c 0,36,37
 227 196 227 196 187.5 174 c 128,-1,38
 148 152 148 152 148 123 c 0,39,40
 148 106 148 106 170 95 c 128,-1,41
 192 84 192 84 224 84 c 0,42,43
 306 84 306 84 389 135 c 1,33,-1
EndSplineSet
EndChar

StartChar: b
Encoding: 98 98 77
Width: 600
Flags: W
HStem: -14 100<237.569 405.885> 0 100<-0.677029 74> 351 100<235.733 404.743> 524 100<-0.677029 74>
VStem: -8 182<9.03198 35 533.032 614.968> 74 100<148.298 288.463 401 524> 471 100<149.34 287.042>
LayerCount: 3
Fore
SplineSet
571 218 m 0x76
 571 107 493 -14 325 -14 c 0
 266 -14 226 -1 174 35 c 1xba
 174 0 l 1x76
 58 0 l 2
 15 0 -8 15 -8 50 c 0x7a
 -8 85 15 100 58 100 c 2
 74 100 l 1
 74 524 l 1x76
 58 524 l 2
 15 524 -8 539 -8 574 c 0x7a
 -8 609 15 624 58 624 c 2
 174 624 l 1
 174 401 l 1
 217 435 264 451 324 451 c 0
 493 451 571 331 571 218 c 0x76
323 351 m 0
 204 351 174 263 174 220 c 0xb6
 174 141 235 86 323 86 c 0
 410 86 471 142 471 219 c 0
 471 261 441 351 323 351 c 0
EndSplineSet
Validated: 1
Layer: 2
SplineSet
571 218 m 0,0,1
 571 126 571 126 507 56 c 128,-1,2
 443 -14 443 -14 325 -14 c 0,3,4
 245 -14 245 -14 174 35 c 1,5,-1
 174 0 l 1,6,-1
 58 0 l 2,7,8
 -8 0 -8 0 -8 50 c 128,-1,9
 -8 100 -8 100 58 100 c 2,10,-1
 74 100 l 1,11,-1
 74 524 l 1,12,-1
 58 524 l 2,13,14
 -8 524 -8 524 -8 574 c 128,-1,15
 -8 624 -8 624 58 624 c 2,16,-1
 174 624 l 1,17,-1
 174 401 l 1,18,19
 237 451 237 451 324 451 c 0,20,21
 385 451 385 451 433.5 430.5 c 128,-1,22
 482 410 482 410 511.5 376.5 c 128,-1,23
 541 343 541 343 556 302.5 c 128,-1,24
 571 262 571 262 571 218 c 0,0,1
323 351 m 0,25,26
 281 351 281 351 250 337 c 128,-1,27
 219 323 219 323 203.5 301 c 128,-1,28
 188 279 188 279 181 259 c 128,-1,29
 174 239 174 239 174 220 c 0,30,31
 174 161 174 161 215.5 123.5 c 128,-1,32
 257 86 257 86 323 86 c 0,33,34
 388 86 388 86 429.5 123.5 c 128,-1,35
 471 161 471 161 471 219 c 0,36,37
 471 237 471 237 464 257.5 c 128,-1,38
 457 278 457 278 441.5 300 c 128,-1,39
 426 322 426 322 395 336.5 c 128,-1,40
 364 351 364 351 323 351 c 0,25,26
EndSplineSet
EndChar

StartChar: c
Encoding: 99 99 78
Width: 600
Flags: W
HStem: -16 100<216.056 454.411> 16 124<475.604 534.011> 241 209<457.424 530.968> 350 100<223.089 410.157>
VStem: 54 100<136.663 283.176> 439 101<248.628 324.156>
LayerCount: 3
Fore
SplineSet
310 350 m 0x1c
 215 350 154 292 154 207 c 0
 154 125 213 84 330 84 c 0x9c
 445 84 467 113 485 128 c 0
 494 136 503 140 515 140 c 0
 542 140 565 117 565 89 c 0
 565 63 542 37 501 16 c 0x4c
 460 -4 396 -16 323 -16 c 0
 89 -16 54 133 54 207 c 0
 54 350 159 450 310 450 c 0x9c
 367 450 415 440 454 420 c 1
 460 441 471 450 492 450 c 0
 525 450 540 430 540 384 c 2
 540 307 l 2
 540 264 525 241 490 241 c 0x2c
 458 241 446 256 439 289 c 0
 435 307 429 316 416 325 c 0
 390 341 354 350 310 350 c 0x1c
EndSplineSet
Validated: 1
Layer: 2
SplineSet
310 350 m 0,0,1
 239 350 239 350 196.5 310.5 c 128,-1,2
 154 271 154 271 154 207 c 0,3,4
 154 84 154 84 330 84 c 0,5,6
 351 84 351 84 369 85.5 c 128,-1,7
 387 87 387 87 400 88.5 c 128,-1,8
 413 90 413 90 425 94 c 128,-1,9
 437 98 437 98 443.5 100 c 128,-1,10
 450 102 450 102 458.5 107.5 c 128,-1,11
 467 113 467 113 469.5 114.5 c 128,-1,12
 472 116 472 116 478.5 122 c 2,13,-1
 485 128 l 2,14,15
 498 140 498 140 515 140 c 0,16,17
 535 140 535 140 550 125 c 128,-1,18
 565 110 565 110 565 89 c 0,19,20
 565 49 565 49 501 16 c 0,21,22
 435 -16 435 -16 323 -16 c 0,23,24
 256 -16 256 -16 205.5 0.5 c 128,-1,25
 155 17 155 17 127 41 c 128,-1,26
 99 65 99 65 81.5 97 c 128,-1,27
 64 129 64 129 59 155 c 128,-1,28
 54 181 54 181 54 207 c 0,29,30
 54 314 54 314 125.5 382 c 128,-1,31
 197 450 197 450 310 450 c 0,32,33
 395.5 450 395.5 450 454 420 c 1,34,35
 463 450 463 450 492 450 c 0,36,37
 540 450 540 450 540 384 c 2,38,-1
 540 307 l 2,39,40
 540 241 540 241 490 241 c 0,41,42
 467 241 467 241 455.5 252 c 128,-1,43
 444 263 444 263 439 289 c 0,44,45
 434 313 434 313 416 325 c 0,46,47
 375 350 375 350 310 350 c 0,0,1
EndSplineSet
EndChar

StartChar: d
Encoding: 100 100 79
Width: 600
Flags: W
HStem: -14 100<199.392 369.066> 0 100<531 605.201> 351 100<194.5 369.105> 525 99<356.323 431>
VStem: 33 100<148.871 287.525> 349 182<534.032 615.052> 431 100<148.96 288.729 401 525>
LayerCount: 3
Fore
SplineSet
33 219 m 0xba
 33 330 110 451 281 451 c 0
 341 451 388 435 431 401 c 1
 431 525 l 1xba
 415 525 l 2
 372 525 349 540 349 575 c 0xbc
 349 609 372 624 415 624 c 2
 531 624 l 1
 531 100 l 1
 547 100 l 2
 591 100 613 85 613 50 c 0
 613 15 590 0 547 0 c 2
 431 0 l 1x7a
 431 35 l 1
 378 -1 339 -14 280 -14 c 0
 110 -14 33 108 33 219 c 0xba
431 217 m 0
 431 265 401 351 281 351 c 0
 163 351 133 263 133 219 c 0
 133 144 192 86 282 86 c 0
 401 86 431 175 431 217 c 0
EndSplineSet
Validated: 1
Layer: 2
SplineSet
33 219 m 0,0,1
 33 278 33 278 58.5 329 c 128,-1,2
 84 380 84 380 142 415.5 c 128,-1,3
 200 451 200 451 281 451 c 0,4,5
 368 451 368 451 431 401 c 1,6,-1
 431 525 l 1,7,-1
 415 525 l 2,8,9
 349 525 349 525 349 575 c 0,10,11
 349 624 349 624 415 624 c 2,12,-1
 531 624 l 1,13,-1
 531 100 l 1,14,-1
 547 100 l 2,15,16
 613 100 613 100 613 50 c 128,-1,17
 613 0 613 0 547 0 c 2,18,-1
 431 0 l 1,19,-1
 431 35 l 1,20,21
 359 -14 359 -14 280 -14 c 0,22,23
 161 -14 161 -14 97 56 c 128,-1,24
 33 126 33 126 33 219 c 0,0,1
431 217 m 0,25,26
 431 237 431 237 424 258.5 c 128,-1,27
 417 280 417 280 401.5 301.5 c 128,-1,28
 386 323 386 323 354.5 337 c 128,-1,29
 323 351 323 351 281 351 c 128,-1,30
 239 351 239 351 208.5 337 c 128,-1,31
 178 323 178 323 162.5 301 c 128,-1,32
 147 279 147 279 140 258.5 c 128,-1,33
 133 238 133 238 133 219 c 0,34,35
 133 162 133 162 174.5 124 c 128,-1,36
 216 86 216 86 282 86 c 0,37,38
 324 86 324 86 355 100 c 128,-1,39
 386 114 386 114 401.5 136 c 128,-1,40
 417 158 417 158 424 178.5 c 128,-1,41
 431 199 431 199 431 217 c 0,25,26
EndSplineSet
EndChar

StartChar: e
Encoding: 101 101 80
Width: 600
Flags: W
HStem: -16 100<201.085 444.792> 172 88<145 439> 350 100<204.278 382.214>
LayerCount: 3
Fore
SplineSet
306 84 m 0
 399 84 463 117 502 117 c 0
 529 117 550 95 550 67 c 0
 550 47 539 33 515 22 c 0
 470 2 368 -16 297 -16 c 0
 142 -16 33 80 33 216 c 0
 33 348 145 450 291 450 c 0
 440 450 550 349 550 211 c 2
 550 172 l 1
 142 172 l 1
 165 112 218 84 306 84 c 0
145 260 m 1
 439 260 l 1
 423 315 365 350 292 350 c 0
 219 350 160 314 145 260 c 1
EndSplineSet
Validated: 1
Layer: 2
SplineSet
306 84 m 0,0,1
 359 84 359 84 424 100.5 c 128,-1,2
 489 117 489 117 502 117 c 0,3,4
 522 117 522 117 536 102.5 c 128,-1,5
 550 88 550 88 550 67 c 0,6,7
 550 38 550 38 515 22 c 0,8,9
 481 7 481 7 415.5 -4.5 c 128,-1,10
 350 -16 350 -16 297 -16 c 0,11,12
 181 -16 181 -16 107 49 c 128,-1,13
 33 114 33 114 33 216 c 0,14,15
 33 315 33 315 107.5 382.5 c 128,-1,16
 182 450 182 450 291 450 c 0,17,18
 403 450 403 450 476.5 382 c 128,-1,19
 550 314 550 314 550 211 c 2,20,-1
 550 172 l 1,21,-1
 142 172 l 1,22,23
 176 84 176 84 306 84 c 0,0,1
145 260 m 1,24,-1
 439 260 l 1,25,26
 427 301 427 301 387 325.5 c 128,-1,27
 347 350 347 350 292 350 c 128,-1,28
 237 350 237 350 196.5 325 c 128,-1,29
 156 300 156 300 145 260 c 1,24,-1
EndSplineSet
EndChar

StartChar: f
Encoding: 102 102 81
Width: 600
Flags: W
HStem: 0 100<82.7988 199 299 495.736> 337 100<94.5703 199 299 507.969> 523 100<309.734 534.133>
VStem: 199 100<100 337 437 510.675>
LayerCount: 3
Fore
SplineSet
524 509 m 0
 510 509 439 523 383 523 c 0
 326 523 299 507 299 474 c 2
 299 437 l 1
 450 437 l 2
 493 437 516 422 516 387 c 0
 516 353 493 337 450 337 c 2
 299 337 l 1
 299 100 l 1
 438 100 l 2
 482 100 504 85 504 50 c 0
 504 16 480 0 438 0 c 2
 141 0 l 2
 99 0 75 15 75 50 c 0
 75 85 97 100 141 100 c 2
 199 100 l 1
 199 337 l 1
 152 337 l 2
 111 337 86 353 86 387 c 0
 86 422 108 437 153 437 c 2
 199 437 l 1
 199 474 l 2
 199 566 273 623 392 623 c 0
 434 623 497 616 529 607 c 0
 556 600 571 583 571 560 c 0
 571 531 550 509 524 509 c 0
EndSplineSet
Validated: 1
Layer: 2
SplineSet
524 509 m 0,0,1
 522 509 522 509 469 516 c 128,-1,2
 416 523 416 523 383 523 c 0,3,4
 299 523 299 523 299 474 c 2,5,-1
 299 437 l 1,6,-1
 450 437 l 2,7,8
 516 437 516 437 516 387 c 128,-1,9
 516 337 516 337 450 337 c 2,10,-1
 299 337 l 1,11,-1
 299 100 l 1,12,-1
 438 100 l 2,13,14
 504 100 504 100 504 50 c 128,-1,15
 504 0 504 0 438 0 c 2,16,-1
 141 0 l 2,17,18
 75 0 75 0 75 50 c 128,-1,19
 75 100 75 100 141 100 c 2,20,-1
 199 100 l 1,21,-1
 199 337 l 1,22,-1
 152 337 l 2,23,24
 86 337 86 337 86 387 c 128,-1,25
 86 437 86 437 153 437 c 2,26,-1
 199 437 l 1,27,-1
 199 474 l 2,28,29
 199 543 199 543 251 583 c 128,-1,30
 303 623 303 623 392 623 c 0,31,32
 472 623 472 623 529 607 c 0,33,34
 571 596 571 596 571 560 c 0,35,36
 571 538 571 538 557.5 523.5 c 128,-1,37
 544 509 544 509 524 509 c 0,0,1
EndSplineSet
EndChar

StartChar: g
Encoding: 103 103 82
Width: 600
Flags: W
HStem: -205 100<149.264 381.619> -14 100<197.088 345.817> 337 100<510 584.201> 351 100<197.088 346.9>
VStem: 33 100<147.323 289.54> 410 100<-76.4346 35 149.227 289.664>
LayerCount: 3
Fore
SplineSet
410 401 m 1xdc
 410 437 l 1
 526 437 l 2
 570 437 592 422 592 387 c 0
 592 352 569 337 526 337 c 2
 510 337 l 1xec
 510 -20 l 2
 510 -126 428 -205 319 -205 c 2
 207 -205 l 2
 165 -205 141 -189 141 -155 c 0
 141 -120 163 -105 207 -105 c 2
 316 -105 l 2
 373 -105 410 -72 410 -20 c 2
 410 35 l 1
 364 1 321 -14 269 -14 c 0
 135 -14 33 86 33 218 c 0
 33 351 135 451 269 451 c 0
 323 451 371 434 410 401 c 1xdc
271 351 m 0xdc
 195 351 133 292 133 219 c 0
 133 145 195 86 271 86 c 0
 347 86 410 145 410 217 c 0
 410 292 349 351 271 351 c 0xdc
EndSplineSet
Validated: 1
Layer: 2
SplineSet
410 401 m 1,0,-1
 410 437 l 1,1,-1
 526 437 l 2,2,3
 592 437 592 437 592 387 c 128,-1,4
 592 337 592 337 526 337 c 2,5,-1
 510 337 l 1,6,-1
 510 -20 l 2,7,8
 510 -99 510 -99 455.5 -152 c 128,-1,9
 401 -205 401 -205 319 -205 c 2,10,-1
 207 -205 l 2,11,12
 141 -205 141 -205 141 -155 c 128,-1,13
 141 -105 141 -105 207 -105 c 2,14,-1
 316 -105 l 2,15,16
 359 -105 359 -105 384.5 -82 c 128,-1,17
 410 -59 410 -59 410 -20 c 2,18,-1
 410 35 l 1,19,20
 344 -14 344 -14 269 -14 c 0,21,22
 168 -14 168 -14 100.5 52.5 c 128,-1,23
 33 119 33 119 33 218 c 0,24,25
 33 318 33 318 100.5 384.5 c 128,-1,26
 168 451 168 451 269 451 c 0,27,28
 351 451 351 451 410 401 c 1,0,-1
271 351 m 0,29,30
 214 351 214 351 173.5 312.5 c 128,-1,31
 133 274 133 274 133 219 c 128,-1,32
 133 164 133 164 173.5 125 c 128,-1,33
 214 86 214 86 271 86 c 128,-1,34
 328 86 328 86 369 124.5 c 128,-1,35
 410 163 410 163 410 217 c 0,36,37
 410 273 410 273 369.5 312 c 128,-1,38
 329 351 329 351 271 351 c 0,29,30
EndSplineSet
EndChar

StartChar: h
Encoding: 104 104 83
Width: 600
Flags: W
HStem: 0 100<31.0315 95 195 259.996 343.575 409 509 573.031> 350 100<247.984 391.95> 524 100<20.323 95>
VStem: 13 182<533.032 614.968> 23 245<9.35498 90.6479> 95 100<100 301.67 389 524> 336 245<9.03198 90.6479> 409 100<100 331.829>
LayerCount: 3
Fore
SplineSet
195 624 m 1xe4
 195 389 l 1
 235 430 280 450 332 450 c 0
 438 450 509 384 509 284 c 2
 509 100 l 1xe5
 556 100 581 88 581 50 c 0
 581 15 557 0 515 0 c 2
 403 0 l 2
 360 0 336 15 336 50 c 0xe2
 336 88 362 100 409 100 c 1
 409 271 l 2
 409 331 379 350 321 350 c 0
 274 350 252 338 195 283 c 1
 195 100 l 1xe5
 243 100 268 88 268 50 c 0
 268 15 244 0 201 0 c 2
 89 0 l 2
 46 0 23 16 23 50 c 0xe8
 23 88 48 100 95 100 c 1
 95 524 l 1xe4
 79 524 l 2
 36 524 13 539 13 574 c 0xf0
 13 609 36 624 79 624 c 2
 195 624 l 1xe4
EndSplineSet
Validated: 1
Layer: 2
SplineSet
195 624 m 1,0,-1
 195 389 l 1,1,2
 255 450 255 450 332 450 c 0,3,4
 412 450 412 450 460.5 404.5 c 128,-1,5
 509 359 509 359 509 284 c 2,6,-1
 509 100 l 1,7,8
 546 100 546 100 563.5 89 c 128,-1,9
 581 78 581 78 581 50 c 0,10,11
 581 0 581 0 515 0 c 2,12,-1
 403 0 l 2,13,14
 336 0 336 0 336 50 c 0,15,16
 336 77 336 77 354 88.5 c 128,-1,17
 372 100 372 100 409 100 c 1,18,-1
 409 271 l 2,19,20
 409 315 409 315 387.5 332.5 c 128,-1,21
 366 350 366 350 321 350 c 0,22,23
 286 350 286 350 262 337 c 128,-1,24
 238 324 238 324 195 283 c 1,25,-1
 195 100 l 1,26,27
 233 100 233 100 250.5 89 c 128,-1,28
 268 78 268 78 268 50 c 0,29,30
 268 0 268 0 201 0 c 2,31,-1
 89 0 l 2,32,33
 23 0 23 0 23 50 c 0,34,35
 23 78 23 78 40.5 89 c 128,-1,36
 58 100 58 100 95 100 c 1,37,-1
 95 524 l 1,38,-1
 79 524 l 2,39,40
 13 524 13 524 13 574 c 128,-1,41
 13 624 13 624 79 624 c 2,42,-1
 195 624 l 1,0,-1
EndSplineSet
EndChar

StartChar: i
Encoding: 105 105 84
Width: 600
Flags: W
HStem: 0 100<70.5239 250 350 529.736> 337 100<112.839 250> 518 105<218 336>
VStem: 105 245<346.032 427.968> 218 118<518 623> 250 100<100 337>
LayerCount: 3
Fore
SplineSet
128 0 m 2xe4
 71 0 62 30 62 50 c 0
 62 85 84 100 128 100 c 2
 250 100 l 1
 250 337 l 1xe4
 172 337 l 2
 129 337 105 352 105 387 c 0xf0
 105 422 127 437 172 437 c 2
 350 437 l 1
 350 100 l 1
 472 100 l 2
 515 100 538 85 538 50 c 0
 538 16 514 0 472 0 c 2
 128 0 l 2xe4
336 623 m 1xe8
 336 518 l 1
 218 518 l 1
 218 623 l 1
 336 623 l 1xe8
EndSplineSet
Validated: 1
Layer: 2
SplineSet
128 0 m 2,0,1
 62 0 62 0 62 50 c 128,-1,2
 62 100 62 100 128 100 c 2,3,-1
 250 100 l 1,4,-1
 250 337 l 1,5,-1
 172 337 l 2,6,7
 105 337 105 337 105 387 c 128,-1,8
 105 437 105 437 172 437 c 2,9,-1
 350 437 l 1,10,-1
 350 100 l 1,11,-1
 472 100 l 2,12,13
 538 100 538 100 538 50 c 128,-1,14
 538 0 538 0 472 0 c 2,15,-1
 128 0 l 2,0,1
336 623 m 1,16,-1
 336 518 l 1,17,-1
 218 518 l 1,18,-1
 218 623 l 1,19,-1
 336 623 l 1,16,-1
EndSplineSet
EndChar

StartChar: j
Encoding: 106 106 85
Width: 600
Flags: W
HStem: -205 100<125.264 359.619> 337 100<128.264 388> 518 105<311 430>
VStem: 311 119<518 623> 388 100<-76.0632 337>
LayerCount: 3
Fore
SplineSet
388 337 m 1xe8
 186 337 l 2
 144 337 120 353 120 387 c 0
 120 422 142 437 186 437 c 2
 488 437 l 1
 488 -20 l 2
 488 -125 406 -205 297 -205 c 2
 183 -205 l 2
 141 -205 117 -189 117 -155 c 0
 117 -120 140 -105 183 -105 c 2
 294 -105 l 2
 351 -105 388 -72 388 -20 c 2
 388 337 l 1xe8
430 623 m 1xf0
 430 518 l 1
 311 518 l 1
 311 623 l 1
 430 623 l 1xf0
EndSplineSet
Validated: 1
Layer: 2
SplineSet
388 337 m 1,0,-1
 186 337 l 2,1,2
 120 337 120 337 120 387 c 128,-1,3
 120 437 120 437 186 437 c 2,4,-1
 488 437 l 1,5,-1
 488 -20 l 2,6,7
 488 -99 488 -99 433.5 -152 c 128,-1,8
 379 -205 379 -205 297 -205 c 2,9,-1
 183 -205 l 2,10,11
 117 -205 117 -205 117 -155 c 128,-1,12
 117 -105 117 -105 183 -105 c 2,13,-1
 294 -105 l 2,14,15
 337 -105 337 -105 362.5 -82 c 128,-1,16
 388 -59 388 -59 388 -20 c 2,17,-1
 388 337 l 1,0,-1
430 623 m 1,18,-1
 430 518 l 1,19,-1
 311 518 l 1,20,-1
 311 623 l 1,21,-1
 430 623 l 1,18,-1
EndSplineSet
EndChar

StartChar: k
Encoding: 107 107 86
Width: 600
Flags: W
HStem: 0 100<41.0315 115 471 562.928> 337 100<429 514.969> 524 100<40.323 115>
VStem: 33 182<9.67798 90.968 533.032 614.968> 115 100<100 164 287 524> 278 245<350.653 427.968> 320 251<9.70469 86.3928>
LayerCount: 3
Fore
SplineSet
215 164 m 1xea
 215 0 l 1xea
 99 0 l 2
 55 0 33 17 33 50 c 0xf0
 33 85 56 100 99 100 c 2
 115 100 l 1
 115 524 l 1xe8
 99 524 l 2
 56 524 33 539 33 574 c 0xf0
 33 609 56 624 99 624 c 2
 215 624 l 1
 215 287 l 1
 294 350 l 1
 282 364 278 373 278 387 c 0
 278 422 301 437 345 437 c 2
 457 437 l 2
 500 437 523 422 523 387 c 0xec
 523 353 500 337 457 337 c 2
 429 337 l 1
 311 241 l 1
 471 100 l 1
 504 100 l 2
 548 100 571 85 571 50 c 0
 571 15 547 0 504 0 c 2
 386 0 l 2
 342 0 320 17 320 50 c 0
 320 64 324 74 336 87 c 1
 233 178 l 1
 215 164 l 1xea
EndSplineSet
Validated: 1
Layer: 2
SplineSet
215 164 m 1,0,-1
 215 0 l 1,1,-1
 99 0 l 2,2,3
 33 0 33 0 33 50 c 128,-1,4
 33 100 33 100 99 100 c 2,5,-1
 115 100 l 1,6,-1
 115 524 l 1,7,-1
 99 524 l 2,8,9
 33 524 33 524 33 574 c 128,-1,10
 33 624 33 624 99 624 c 2,11,-1
 215 624 l 1,12,-1
 215 287 l 1,13,-1
 294 350 l 1,14,15
 278 369 278 369 278 387 c 0,16,17
 278 437 278 437 345 437 c 2,18,-1
 457 437 l 2,19,20
 523 437 523 437 523 387 c 128,-1,21
 523 337 523 337 457 337 c 2,22,-1
 429 337 l 1,23,-1
 311 241 l 1,24,-1
 471 100 l 1,25,-1
 504 100 l 2,26,27
 571 100 571 100 571 50 c 128,-1,28
 571 0 571 0 504 0 c 2,29,-1
 386 0 l 2,30,31
 320 0 320 0 320 50 c 0,32,33
 320 70 320 70 336 87 c 1,34,-1
 233 178 l 1,35,-1
 215 164 l 1,0,-1
EndSplineSet
EndChar

StartChar: l
Encoding: 108 108 87
Width: 600
Flags: W
HStem: 0 100<70.5239 250 350 529.736> 524 100<113.072 250>
VStem: 105 245<533.032 615.291> 250 100<100 524>
LayerCount: 3
Fore
SplineSet
128 0 m 2xd0
 71 0 62 30 62 50 c 0
 62 85 84 100 128 100 c 2
 250 100 l 1
 250 524 l 1xd0
 172 524 l 2
 129 524 105 539 105 574 c 0xe0
 105 610 128 624 172 624 c 2
 350 624 l 1
 350 100 l 1
 472 100 l 2
 515 100 538 85 538 50 c 0
 538 16 514 0 472 0 c 2
 128 0 l 2xd0
EndSplineSet
Validated: 1
Layer: 2
SplineSet
128 0 m 2,0,1
 62 0 62 0 62 50 c 128,-1,2
 62 100 62 100 128 100 c 2,3,-1
 250 100 l 1,4,-1
 250 524 l 1,5,-1
 172 524 l 2,6,7
 105 524 105 524 105 574 c 128,-1,8
 105 624 105 624 172 624 c 2,9,-1
 350 624 l 1,10,-1
 350 100 l 1,11,-1
 472 100 l 2,12,13
 538 100 538 100 538 50 c 128,-1,14
 538 0 538 0 472 0 c 2,15,-1
 128 0 l 2,0,1
EndSplineSet
EndChar

StartChar: m
Encoding: 109 109 88
Width: 600
Flags: W
HStem: 0 100<-10.4626 41 141 193.708 352 403.736 563 614.755> 337 100<-9.99738 41> 350 100<164.476 249.547 376.029 460.288>
VStem: -19 221<10.0415 90.6895> 41 100<100 327.45> 252 160<9.35498 90.3808> 252 100<100 326.009> 463 160<9.67798 90.6895> 463 100<100 346.162>
LayerCount: 3
Fore
SplineSet
-19 387 m 0xd0
 -19 421 8 437 48 437 c 2
 141 437 l 1xc8
 141 413 l 1
 176 441 196 450 226 450 c 0
 265 450 298 434 328 401 c 1
 359 435 391 450 432 450 c 0
 507 450 563 394 563 319 c 2
 563 100 l 1xa880
 601 100 623 82 623 50 c 0xa1
 623 17 601 0 557 0 c 2
 463 0 l 1
 463 311 l 2
 463 340 454 350 428 350 c 0
 402 350 386 341 352 305 c 1
 352 100 l 1xa280
 390 100 412 81 412 50 c 0xa4
 412 16 388 0 346 0 c 2
 252 0 l 1
 252 311 l 2
 252 339 242 350 217 350 c 0
 190 350 171 339 141 305 c 1
 141 100 l 1xaa
 180 100 202 82 202 50 c 0
 202 16 178 0 136 0 c 2
 48 0 l 2
 6 0 -19 16 -19 50 c 0xb0
 -19 82 3 100 41 100 c 1
 41 337 l 1xc8
 3 338 -19 356 -19 387 c 0xd0
EndSplineSet
Validated: 1
Layer: 2
SplineSet
-19 387 m 0,0,1
 -19 437 -19 437 48 437 c 2,2,-1
 141 437 l 1,3,-1
 141 413 l 1,4,5
 187 450 187 450 226 450 c 0,6,7
 283 450 283 450 328 401 c 1,8,9
 373 450 373 450 432 450 c 0,10,11
 488 450 488 450 525.5 412.5 c 128,-1,12
 563 375 563 375 563 319 c 2,13,-1
 563 100 l 1,14,15
 623 100 623 100 623 50 c 128,-1,16
 623 0 623 0 557 0 c 2,17,-1
 463 0 l 1,18,-1
 463 311 l 2,19,20
 463 333 463 333 455.5 341.5 c 128,-1,21
 448 350 448 350 428 350 c 128,-1,22
 408 350 408 350 392.5 341 c 128,-1,23
 377 332 377 332 352 305 c 1,24,-1
 352 100 l 1,25,26
 380 100 380 100 396 86.5 c 128,-1,27
 412 73 412 73 412 50 c 0,28,29
 412 0 412 0 346 0 c 2,30,-1
 252 0 l 1,31,-1
 252 311 l 2,32,33
 252 332 252 332 244 341 c 128,-1,34
 236 350 236 350 217 350 c 0,35,36
 181 350 181 350 141 305 c 1,37,-1
 141 100 l 1,38,39
 202 100 202 100 202 50 c 128,-1,40
 202 0 202 0 136 0 c 2,41,-1
 48 0 l 2,42,43
 -19 0 -19 0 -19 50 c 128,-1,44
 -19 100 -19 100 41 100 c 1,45,-1
 41 337 l 1,46,47
 -19 339 -19 339 -19 387 c 0,0,1
EndSplineSet
EndChar

StartChar: n
Encoding: 110 110 89
Width: 600
Flags: W
HStem: 0 100<31.0315 95 195 258.736 357.292 410 510 562.708> 337 100<42.4434 95> 350 100<246.863 390.97>
VStem: 23 244<9.70469 90.968> 95 100<100 303.481> 349 222<9.70469 90.6895> 410 100<100 329.731>
LayerCount: 3
Fore
SplineSet
34 387 m 0xc8
 34 423 62 437 101 437 c 2
 195 437 l 1xc8
 195 389 l 1
 243 435 277 450 332 450 c 0
 432 450 510 392 510 282 c 2
 510 100 l 1xaa
 549 100 571 82 571 50 c 0
 571 15 547 0 505 0 c 2
 416 0 l 2
 371 0 349 17 349 50 c 0xa4
 349 82 371 100 410 100 c 1
 410 278 l 2
 410 327 382 350 320 350 c 0
 274 350 242 333 195 282 c 1
 195 100 l 1xaa
 201 100 l 2
 244 100 267 85 267 50 c 0
 267 16 243 0 201 0 c 2
 89 0 l 2
 47 0 23 15 23 50 c 0xb0
 23 85 46 100 89 100 c 2
 95 100 l 1
 95 337 l 1
 56 338 34 355 34 387 c 0xc8
EndSplineSet
Validated: 1
Layer: 2
SplineSet
34 387 m 0,0,1
 34 437 34 437 101 437 c 2,2,-1
 195 437 l 1,3,-1
 195 389 l 1,4,5
 231 423 231 423 261 436.5 c 128,-1,6
 291 450 291 450 332 450 c 0,7,8
 410 450 410 450 460 406 c 128,-1,9
 510 362 510 362 510 282 c 2,10,-1
 510 100 l 1,11,12
 571 100 571 100 571 50 c 128,-1,13
 571 0 571 0 505 0 c 2,14,-1
 416 0 l 2,15,16
 349 0 349 0 349 50 c 128,-1,17
 349 100 349 100 410 100 c 1,18,-1
 410 278 l 2,19,20
 410 350 410 350 320 350 c 0,21,22
 285 350 285 350 257.5 335 c 128,-1,23
 230 320 230 320 195 282 c 1,24,-1
 195 100 l 1,25,-1
 201 100 l 2,26,27
 267 100 267 100 267 50 c 128,-1,28
 267 0 267 0 201 0 c 2,29,-1
 89 0 l 2,30,31
 23 0 23 0 23 50 c 128,-1,32
 23 100 23 100 89 100 c 2,33,-1
 95 100 l 1,34,-1
 95 337 l 1,35,36
 34 339 34 339 34 387 c 0,0,1
EndSplineSet
EndChar

StartChar: o
Encoding: 111 111 90
Width: 600
Flags: W
HStem: -16 100<215.369 384.631> 350 100<213.156 385.653>
VStem: 42 100<151.429 283.146> 458 100<151.429 282.172>
LayerCount: 3
Fore
SplineSet
303 450 m 0
 444 450 558 346 558 217 c 0
 558 87 444 -16 300 -16 c 0
 156 -16 42 87 42 217 c 0
 42 349 155 450 303 450 c 0
302 350 m 0
 211 350 142 293 142 217 c 0
 142 142 211 84 300 84 c 0
 389 84 458 142 458 217 c 0
 458 291 389 350 302 350 c 0
EndSplineSet
Validated: 1
Layer: 2
SplineSet
303 450 m 0,0,1
 409 450 409 450 483.5 382 c 128,-1,2
 558 314 558 314 558 217 c 0,3,4
 558 119 558 119 483 51.5 c 128,-1,5
 408 -16 408 -16 300 -16 c 128,-1,6
 192 -16 192 -16 117 51.5 c 128,-1,7
 42 119 42 119 42 217 c 0,8,9
 42 316 42 316 117 383 c 128,-1,10
 192 450 192 450 303 450 c 0,0,1
302 350 m 0,11,12
 234 350 234 350 188 312 c 128,-1,13
 142 274 142 274 142 217 c 0,14,15
 142 161 142 161 187.5 122.5 c 128,-1,16
 233 84 233 84 300 84 c 128,-1,17
 367 84 367 84 412.5 122.5 c 128,-1,18
 458 161 458 161 458 217 c 128,-1,19
 458 273 458 273 412.5 311.5 c 128,-1,20
 367 350 367 350 302 350 c 0,11,12
EndSplineSet
EndChar

StartChar: p
Encoding: 112 112 91
Width: 600
Flags: W
HStem: -205 100<-0.460022 74 174 289.969> 10 100<234.609 409.608> 337 100<-0.677029 74> 350 100<234.08 408.701>
VStem: -8 306<-195.632 -114.032> 74 100<-105 66 166.404 294.012> 471 100<167.517 292.708>
LayerCount: 3
Fore
SplineSet
174 66 m 1xd6
 174 -105 l 1xd6
 232 -105 l 2
 276 -105 298 -120 298 -155 c 0
 298 -189 275 -205 232 -205 c 2
 58 -205 l 2
 16 -205 -8 -191 -8 -155 c 0xda
 -8 -120 15 -105 58 -105 c 2
 74 -105 l 1
 74 337 l 1xe6
 58 337 l 2
 15 337 -8 352 -8 387 c 0xea
 -8 422 15 437 58 437 c 2
 174 437 l 1xe6
 174 392 l 1
 223 434 265 450 327 450 c 0
 467 450 571 353 571 224 c 0
 571 101 468 10 329 10 c 0
 270 10 226 26 174 66 c 1xd6
471 230 m 0
 471 275 435 350 323 350 c 0
 207 350 174 272 174 231 c 0
 174 160 235 110 323 110 c 0
 409 110 471 160 471 230 c 0
EndSplineSet
Validated: 1
Layer: 2
SplineSet
174 66 m 1,0,-1
 174 -105 l 1,1,-1
 232 -105 l 2,2,3
 298 -105 298 -105 298 -155 c 128,-1,4
 298 -205 298 -205 232 -205 c 2,5,-1
 58 -205 l 2,6,7
 -8 -205 -8 -205 -8 -155 c 128,-1,8
 -8 -105 -8 -105 58 -105 c 2,9,-1
 74 -105 l 1,10,-1
 74 337 l 1,11,-1
 58 337 l 2,12,13
 -8 337 -8 337 -8 387 c 128,-1,14
 -8 437 -8 437 58 437 c 2,15,-1
 174 437 l 1,16,-1
 174 392 l 1,17,18
 242 450 242 450 327 450 c 0,19,20
 432 450 432 450 501.5 385.5 c 128,-1,21
 571 321 571 321 571 224 c 0,22,23
 571 132 571 132 502 71 c 128,-1,24
 433 10 433 10 329 10 c 0,25,26
 247 10 247 10 174 66 c 1,0,-1
471 230 m 0,27,28
 471 273 471 273 434.5 311.5 c 128,-1,29
 398 350 398 350 323 350 c 0,30,31
 246 350 246 350 210 311 c 128,-1,32
 174 272 174 272 174 231 c 0,33,34
 174 178 174 178 215.5 144 c 128,-1,35
 257 110 257 110 323 110 c 0,36,37
 388 110 388 110 429.5 144 c 128,-1,38
 471 178 471 178 471 230 c 0,27,28
EndSplineSet
EndChar

StartChar: q
Encoding: 113 113 92
Width: 600
Flags: W
HStem: -205 100<315.031 431 531 604.969> 10 100<194.307 371.58> 337 100<531 605.201> 350 100<194.653 370.566>
VStem: 33 100<167.336 293.538> 307 306<-195.645 -114.032> 431 100<-105 66 165.988 293.596>
LayerCount: 3
Fore
SplineSet
431 -105 m 1xea
 431 66 l 1
 379 26 334 10 275 10 c 0
 136 10 33 101 33 224 c 0
 33 354 137 450 277 450 c 0xda
 340 450 382 434 431 392 c 1
 431 437 l 1xea
 547 437 l 2
 591 437 613 422 613 387 c 0xec
 613 352 590 337 547 337 c 2
 531 337 l 1
 531 -105 l 1xea
 547 -105 l 2
 591 -105 613 -120 613 -155 c 0
 613 -189 590 -205 547 -205 c 2
 373 -205 l 2
 331 -205 307 -190 307 -155 c 0xec
 307 -120 330 -105 373 -105 c 2
 431 -105 l 1xea
282 110 m 0
 398 110 431 188 431 229 c 0
 431 300 370 350 281 350 c 0
 173 350 133 278 133 230 c 0
 133 187 167 110 282 110 c 0
EndSplineSet
Validated: 1
Layer: 2
SplineSet
431 -105 m 1,0,-1
 431 66 l 1,1,2
 358 10 358 10 275 10 c 0,3,4
 171 10 171 10 102 71 c 128,-1,5
 33 132 33 132 33 224 c 0,6,7
 33 321 33 321 102.5 385.5 c 128,-1,8
 172 450 172 450 277 450 c 0,9,10
 324 450 324 450 359 437 c 128,-1,11
 394 424 394 424 431 392 c 1,12,-1
 431 437 l 1,13,-1
 547 437 l 2,14,15
 613 437 613 437 613 387 c 128,-1,16
 613 337 613 337 547 337 c 2,17,-1
 531 337 l 1,18,-1
 531 -105 l 1,19,-1
 547 -105 l 2,20,21
 613 -105 613 -105 613 -155 c 128,-1,22
 613 -205 613 -205 547 -205 c 2,23,-1
 373 -205 l 2,24,25
 307 -205 307 -205 307 -155 c 128,-1,26
 307 -105 307 -105 373 -105 c 2,27,-1
 431 -105 l 1,0,-1
282 110 m 128,-1,29
 359 110 359 110 395 149 c 128,-1,30
 431 188 431 188 431 229 c 0,31,32
 431 282 431 282 389.5 316 c 128,-1,33
 348 350 348 350 281 350 c 0,34,35
 208 350 208 350 170.5 312 c 128,-1,36
 133 274 133 274 133 230 c 0,37,38
 133 188 133 188 169 149 c 128,-1,28
 205 110 205 110 282 110 c 128,-1,29
EndSplineSet
EndChar

StartChar: r
Encoding: 114 114 93
Width: 600
Flags: W
HStem: 0 100<61.7988 178 278 476.642> 337 100<85.5239 178> 349 100<384.502 485.644>
VStem: 178 100<100 264.307>
LayerCount: 3
Fore
SplineSet
521 313 m 0xb0
 484 313 480 349 443 349 c 0xb0
 411 349 373 325 278 247 c 1
 278 100 l 1
 417 100 l 2
 461 100 484 85 484 50 c 0
 484 15 461 0 417 0 c 2
 120 0 l 2
 78 0 54 15 54 50 c 0
 54 85 76 100 120 100 c 2
 178 100 l 1
 178 337 l 1
 143 337 l 2
 101 337 77 353 77 387 c 0
 77 418 99 437 143 437 c 2
 278 437 l 1xd0
 278 372 l 1
 358 432 396 449 445 449 c 0
 488 449 571 414 571 364 c 0
 571 336 548 313 521 313 c 0xb0
EndSplineSet
Validated: 1
Layer: 2
SplineSet
521 313 m 0,0,1
 503 313 503 313 482.5 331 c 128,-1,2
 462 349 462 349 443 349 c 0,3,4
 419 349 419 349 384.5 327.5 c 128,-1,5
 350 306 350 306 278 247 c 1,6,-1
 278 100 l 1,7,-1
 417 100 l 2,8,9
 484 100 484 100 484 50 c 128,-1,10
 484 0 484 0 417 0 c 2,11,-1
 120 0 l 2,12,13
 54 0 54 0 54 50 c 128,-1,14
 54 100 54 100 120 100 c 2,15,-1
 178 100 l 1,16,-1
 178 337 l 1,17,-1
 143 337 l 2,18,19
 77 337 77 337 77 387 c 128,-1,20
 77 437 77 437 143 437 c 2,21,-1
 278 437 l 1,22,-1
 278 372 l 1,23,24
 338 417 338 417 373 433 c 128,-1,25
 408 449 408 449 445 449 c 0,26,27
 483 449 483 449 527 423.5 c 128,-1,28
 571 398 571 398 571 364 c 0,29,30
 571 343 571 343 556 328 c 128,-1,31
 541 313 541 313 521 313 c 0,0,1
EndSplineSet
EndChar

StartChar: s
Encoding: 115 115 94
Width: 600
Flags: W
HStem: -16 100<200.059 399.824> 1 166<82.8053 155.487> 281 169<429.059 496.968> 350 100<210.422 391.73>
VStem: 417 110<102.504 155.116>
LayerCount: 3
Fore
SplineSet
124 1 m 0x48
 86 1 73 27 73 67 c 2
 73 100 l 2
 73 144 89 167 124 167 c 0x48
 150 167 166 153 175 123 c 1
 204 97 246 84 300 84 c 0
 364 84 417 104 417 127 c 0
 417 169 321 176 291 179 c 0
 151 194 92 234 92 313 c 0
 92 393 178 450 298 450 c 0x98
 347 450 388 442 427 424 c 1
 435 443 444 450 459 450 c 0
 491 450 506 430 506 384 c 2
 506 347 l 2
 506 304 491 281 456 281 c 0x28
 430 281 417 298 404 321 c 1
 376 341 343 350 301 350 c 0
 250 350 202 333 202 315 c 0
 202 290 249 285 307 277 c 0
 411 262 527 237 527 125 c 0
 527 43 433 -16 304 -16 c 0x98
 247 -16 196 -6 156 13 c 1
 145 4 137 1 124 1 c 0x48
EndSplineSet
Validated: 1
Layer: 2
SplineSet
124 1 m 0,0,1
 73 1 73 1 73 67 c 2,2,-1
 73 100 l 2,3,4
 73 167 73 167 124 167 c 0,5,6
 162 167 162 167 175 123 c 1,7,8
 218 84 218 84 300 84 c 0,9,10
 348 84 348 84 382.5 97 c 128,-1,11
 417 110 417 110 417 127 c 0,12,13
 417 166 417 166 291 179 c 0,14,15
 186 190 186 190 139 222 c 128,-1,16
 92 254 92 254 92 313 c 0,17,18
 92 373 92 373 150 411.5 c 128,-1,19
 208 450 208 450 298 450 c 0,20,21
 371 450 371 450 427 424 c 1,22,23
 438 450 438 450 459 450 c 0,24,25
 506 450 506 450 506 384 c 2,26,-1
 506 347 l 2,27,28
 506 281 506 281 456 281 c 0,29,30
 427 281 427 281 404 321 c 1,31,32
 363 350 363 350 301 350 c 0,33,34
 263 350 263 350 232.5 339.5 c 128,-1,35
 202 329 202 329 202 315 c 0,36,37
 202 299 202 299 225 292 c 128,-1,38
 248 285 248 285 297.763426209 278.2655223 c 0,39,40
 304 277 304 277 307 277 c 0,41,42
 344 272 344 272 370.5 266.5 c 128,-1,43
 397 261 397 261 429 249.5 c 128,-1,44
 461 238 461 238 480.5 222.5 c 128,-1,45
 500 207 500 207 513.5 182 c 128,-1,46
 527 157 527 157 527 125 c 0,47,48
 527 64 527 64 464 24 c 128,-1,49
 401 -16 401 -16 304 -16 c 0,50,51
 217 -16 217 -16 156 13 c 1,52,53
 141 1 141 1 124 1 c 0,0,1
EndSplineSet
EndChar

StartChar: t
Encoding: 116 116 95
Width: 600
Flags: W
HStem: -16 100<222.132 417.373> 337 100<20.7988 114 214 453.677> 571 20G<146 181.5>
VStem: 114 100<95.2853 337 437 583.201>
LayerCount: 3
Fore
SplineSet
300 84 m 0
 412 84 448 129 481 129 c 0
 508 129 529 106 529 78 c 0
 529 54 517 41 479 24 c 0
 430 1 351 -16 299 -16 c 0
 185 -16 114 37 114 122 c 2
 114 337 l 1
 79 337 l 2
 37 337 13 352 13 387 c 0
 13 422 35 437 79 437 c 2
 114 437 l 1
 114 525 l 2
 114 567 128 591 164 591 c 0
 199 591 214 569 214 525 c 2
 214 437 l 1
 395 437 l 2
 438 437 461 422 461 387 c 0
 461 352 438 337 395 337 c 2
 214 337 l 1
 214 141 l 2
 214 89 242 84 300 84 c 0
EndSplineSet
Validated: 1
Layer: 2
SplineSet
300 84 m 0,0,1
 349 84 349 84 387 95 c 128,-1,2
 425 106 425 106 447 117.5 c 128,-1,3
 469 129 469 129 481 129 c 0,4,5
 501 129 501 129 515 114 c 128,-1,6
 529 99 529 99 529 78 c 0,7,8
 529 60 529 60 518 48.5 c 128,-1,9
 507 37 507 37 479 24 c 0,10,11
 443 7 443 7 390.5 -4.5 c 128,-1,12
 338 -16 338 -16 299 -16 c 0,13,14
 214 -16 214 -16 164 21 c 128,-1,15
 114 58 114 58 114 122 c 2,16,-1
 114 337 l 1,17,-1
 79 337 l 2,18,19
 13 337 13 337 13 387 c 128,-1,20
 13 437 13 437 79 437 c 2,21,-1
 114 437 l 1,22,-1
 114 525 l 2,23,24
 114 591 114 591 164 591 c 128,-1,25
 214 591 214 591 214 525 c 2,26,-1
 214 437 l 1,27,-1
 395 437 l 2,28,29
 461 437 461 437 461 387 c 128,-1,30
 461 337 461 337 395 337 c 2,31,-1
 214 337 l 1,32,-1
 214 141 l 2,33,34
 214 105 214 105 233 94.5 c 128,-1,35
 252 84 252 84 300 84 c 0,0,1
EndSplineSet
EndChar

StartChar: u
Encoding: 117 117 96
Width: 600
Flags: W
HStem: -13 100<213.55 358.752> 0 100<510 562.708> 337 100<21.7721 95 318.195 410>
VStem: 13 182<346.526 427.968> 95 100<108.203 337> 309 201<347.753 427.968> 410 100<134.208 337>
LayerCount: 3
Fore
SplineSet
273 -13 m 0xa2
 171 -13 95 46 95 156 c 2
 95 337 l 1xaa
 68 337 l 2
 35 337 13 358 13 387 c 0xb0
 13 422 36 437 79 437 c 2
 195 437 l 1
 195 159 l 2
 195 110 223 87 283 87 c 0
 333 87 358 100 410 155 c 1
 410 337 l 1xaa
 375 337 l 2
 337 337 309 353 309 387 c 0xa4
 309 422 332 437 375 437 c 2
 510 437 l 1
 510 100 l 1
 549 100 571 82 571 50 c 0
 571 16 547 0 505 0 c 2
 410 0 l 1x62
 410 48 l 1
 360 1 328 -13 273 -13 c 0xa2
EndSplineSet
Validated: 1
Layer: 2
SplineSet
273 -13 m 0,0,1
 194 -13 194 -13 144.5 31.5 c 128,-1,2
 95 76 95 76 95 156 c 2,3,-1
 95 337 l 1,4,-1
 68 337 l 2,5,6
 43 337 43 337 28 351 c 128,-1,7
 13 365 13 365 13 387 c 0,8,9
 13 437 13 437 79 437 c 2,10,-1
 195 437 l 1,11,-1
 195 159 l 2,12,13
 195 87 195 87 283 87 c 0,14,15
 321 87 321 87 346 100.5 c 128,-1,16
 371 114 371 114 410 155 c 1,17,-1
 410 337 l 1,18,-1
 375 337 l 2,19,20
 345 337 345 337 327 349.5 c 128,-1,21
 309 362 309 362 309 387 c 0,22,23
 309 437 309 437 375 437 c 2,24,-1
 510 437 l 1,25,-1
 510 100 l 1,26,27
 571 100 571 100 571 50 c 128,-1,28
 571 0 571 0 505 0 c 2,29,-1
 410 0 l 1,30,-1
 410 48 l 1,31,32
 373 13 373 13 343.5 0 c 128,-1,33
 314 -13 314 -13 273 -13 c 0,0,1
EndSplineSet
EndChar

StartChar: v
Encoding: 118 118 97
Width: 600
Flags: W
HStem: 0 21G<237.089 360.911> 337 100<7.323 80 193 255.849 340.959 409 518 592.677>
VStem: 0 264<346.705 427.968> 333 267<346.311 427.968>
DStem2: 193 337 80 337 0.44402 -0.896017<0 241.042> 302 122 351 0 0.44402 0.896017<0 240.154>
LayerCount: 3
Fore
SplineSet
302 122 m 1
 409 337 l 1
 361 337 333 347 333 387 c 0
 333 422 356 437 399 437 c 2
 534 437 l 2
 577 437 600 422 600 387 c 0
 600 352 577 337 534 337 c 2
 518 337 l 1
 351 0 l 1
 247 0 l 1
 80 337 l 1
 66 337 l 2
 23 337 0 352 0 387 c 0
 0 422 23 437 66 437 c 2
 198 437 l 2
 241 437 264 422 264 387 c 0
 264 350 238 337 193 337 c 1
 302 122 l 1
EndSplineSet
Validated: 1
Layer: 2
SplineSet
302 122 m 1,0,-1
 409 337 l 1,1,2
 370 337 370 337 351.5 348 c 128,-1,3
 333 359 333 359 333 387 c 0,4,5
 333 437 333 437 399 437 c 2,6,-1
 534 437 l 2,7,8
 600 437 600 437 600 387 c 128,-1,9
 600 337 600 337 534 337 c 2,10,-1
 518 337 l 1,11,-1
 351 0 l 1,12,-1
 247 0 l 1,13,-1
 80 337 l 1,14,-1
 66 337 l 2,15,16
 0 337 0 337 0 387 c 128,-1,17
 0 437 0 437 66 437 c 2,18,-1
 198 437 l 2,19,20
 264 437 264 437 264 387 c 128,-1,21
 264 337 264 337 193 337 c 1,22,-1
 302 122 l 1,0,-1
EndSplineSet
EndChar

StartChar: w
Encoding: 119 119 98
Width: 600
Flags: W
HStem: 0 21G<133.97 240.514 364.155 468.97> 338 99<8.40805 54 160 216.515 383.438 448 548 592.248>
VStem: 0 224<346.5 426.948> 375 225<347.249 426.597>
DStem2: 160 338 54 338 0.243886 -0.969804<0 157.892> 408 185 464 0 0.241184 0.970479<0 158.131>
LayerCount: 3
Fore
SplineSet
375 387 m 0
 375 417 396 437 441 437 c 2
 534 437 l 2
 577 437 600 422 600 387 c 0
 600 358 581 338 548 338 c 1
 464 0 l 1
 372 0 l 1
 301 181 l 1
 233 0 l 1
 139 0 l 1
 54 338 l 1
 20 338 0 358 0 387 c 0
 0 423 28 437 66 437 c 2
 158 437 l 2
 201 437 224 422 224 387 c 0
 224 353 203 338 160 338 c 1
 199 185 l 1
 259 343 l 1
 347 343 l 1
 408 185 l 1
 448 338 l 1
 402 338 375 350 375 387 c 0
EndSplineSet
Validated: 1
Layer: 2
SplineSet
375 387 m 0,0,1
 375 437 375 437 441 437 c 2,2,-1
 534 437 l 2,3,4
 600 437 600 437 600 387 c 0,5,6
 600 365 600 365 586 351.5 c 128,-1,7
 572 338 572 338 548 338 c 1,8,-1
 464 0 l 1,9,-1
 372 0 l 1,10,-1
 301 181 l 1,11,-1
 233 0 l 1,12,-1
 139 0 l 1,13,-1
 54 338 l 1,14,15
 29 338 29 338 14.5 351.5 c 128,-1,16
 0 365 0 365 0 387 c 0,17,18
 0 437 0 437 66 437 c 2,19,-1
 158 437 l 2,20,21
 224 437 224 437 224 387 c 0,22,23
 224 338 224 338 160 338 c 1,24,-1
 199 185 l 1,25,-1
 259 343 l 1,26,-1
 347 343 l 1,27,-1
 408 185 l 1,28,-1
 448 338 l 1,29,30
 375 338 375 338 375 387 c 0,0,1
EndSplineSet
EndChar

StartChar: x
Encoding: 120 120 99
Width: 600
Flags: W
HStem: 0 100<29.1211 75 525 571.46> 337 100<48.408 92 505 550.195>
VStem: 21 243<9.76172 91.269> 40 224<345.248 426.948> 334 245<9.70469 91.4241> 334 224<346.526 426.845>
DStem2: 238 342 220 228 0.764497 -0.644628<0 59.7266 177.339 259.971> 220 228 226 100 0.76095 0.64881<-78.482 0 115.777 181.146>
LayerCount: 3
Fore
SplineSet
334 386 m 0xd4
 334 423 362 437 400 437 c 2
 491 437 l 2
 534 437 558 422 558 387 c 0xd4
 558 358 539 337 505 337 c 1
 373 227 l 1
 525 100 l 1
 559 100 579 80 579 50 c 0
 579 15 555 0 513 0 c 2
 401 0 l 2
 358 0 334 15 334 51 c 0
 334 74 349 93 374 100 c 1
 299 161 l 1
 226 100 l 1
 254 88 264 75 264 51 c 0
 264 17 242 0 198 0 c 2
 87 0 l 2
 43 0 21 17 21 50 c 0xe8
 21 80 41 100 75 100 c 1
 220 228 l 1
 92 337 l 1
 59 337 40 358 40 387 c 0
 40 423 68 437 106 437 c 2
 198 437 l 2
 240 437 264 422 264 388 c 0
 264 370 255 353 238 342 c 1
 299 293 l 1
 360 343 l 1
 341 356 334 369 334 386 c 0xd4
EndSplineSet
Validated: 1
Layer: 2
SplineSet
334 386 m 0,0,1
 334 437 334 437 400 437 c 2,2,-1
 491 437 l 2,3,4
 558 437 558 437 558 387 c 0,5,6
 558 365 558 365 544 351 c 128,-1,7
 530 337 530 337 505 337 c 1,8,-1
 373 227 l 1,9,-1
 525 100 l 1,10,11
 550 100 550 100 564.5 86.5 c 128,-1,12
 579 73 579 73 579 50 c 0,13,14
 579 0 579 0 513 0 c 2,15,-1
 401 0 l 2,16,17
 334 0 334 0 334 51 c 0,18,19
 334 89 334 89 374 100 c 1,20,-1
 299 161 l 1,21,-1
 226 100 l 1,22,23
 264 84 264 84 264 51 c 0,24,25
 264 0 264 0 198 0 c 2,26,-1
 87 0 l 2,27,28
 21 0 21 0 21 50 c 0,29,30
 21 73 21 73 35.5 86.5 c 128,-1,31
 50 100 50 100 75 100 c 1,32,-1
 220 228 l 1,33,-1
 92 337 l 1,34,35
 68 337 68 337 54 351 c 128,-1,36
 40 365 40 365 40 387 c 0,37,38
 40 437 40 437 106 437 c 2,39,-1
 198 437 l 2,40,41
 264 437 264 437 264 388 c 0,42,43
 264 359 264 359 238 342 c 1,44,-1
 299 293 l 1,45,-1
 360 343 l 1,46,47
 334 361 334 361 334 386 c 0,0,1
EndSplineSet
EndChar

StartChar: y
Encoding: 121 121 100
Width: 600
Flags: W
HStem: -205 100<29.7721 187 297 359.849> 337 100<29.6251 70 184 234.969 362.679 418 527 571.201>
VStem: 21 222<346.368 426.597> 354 225<347.001 426.948>
DStem2: 184 337 70 337 0.457829 -0.88904<0 250.448> 187 -105 297 -105 0.463183 0.886263<50.9501 121.191 245.505 498.723>
LayerCount: 3
Fore
SplineSet
354 387 m 0
 354 423 382 437 421 437 c 2
 513 437 l 2
 557 437 579 422 579 387 c 0
 579 358 560 337 527 337 c 1
 297 -105 l 1
 342 -105 368 -118 368 -155 c 0
 368 -189 345 -205 302 -205 c 2
 87 -205 l 2
 49 -205 21 -190 21 -155 c 0
 21 -120 44 -105 87 -105 c 2
 187 -105 l 1
 242 3 l 1
 70 337 l 1
 39 337 21 359 21 387 c 0
 21 422 50 437 87 437 c 2
 177 437 l 2
 220 437 243 422 243 387 c 0
 243 356 222 338 184 337 c 1
 298 114 l 1
 418 337 l 1
 377 337 354 355 354 387 c 0
EndSplineSet
Validated: 1
Layer: 2
SplineSet
354 387 m 128,-1,1
 354 437 354 437 421 437 c 2,2,-1
 513 437 l 2,3,4
 579 437 579 437 579 387 c 0,5,6
 579 365 579 365 565 351 c 128,-1,7
 551 337 551 337 527 337 c 1,8,-1
 297 -105 l 1,9,10
 368 -105 368 -105 368 -155 c 128,-1,11
 368 -205 368 -205 302 -205 c 2,12,-1
 87 -205 l 2,13,14
 21 -205 21 -205 21 -155 c 128,-1,15
 21 -105 21 -105 87 -105 c 2,16,-1
 187 -105 l 1,17,-1
 242 3 l 1,18,-1
 70 337 l 1,19,20
 47 337 47 337 34 351 c 128,-1,21
 21 365 21 365 21 387 c 0,22,23
 21 437 21 437 87 437 c 2,24,-1
 177 437 l 2,25,26
 243 437 243 437 243 387 c 0,27,28
 243 339 243 339 184 337 c 1,29,-1
 298 114 l 1,30,-1
 418 337 l 1,31,0
 354 337 354 337 354 387 c 128,-1,1
EndSplineSet
EndChar

StartChar: z
Encoding: 122 122 101
Width: 600
Flags: W
HStem: 0 154<427.789 509.968> 0 100<244 422.991> 262 175<106.032 187.968> 337 100<197 346>
VStem: 97 100<269.323 337>
DStem2: 85 83 244 100 0.715249 0.698869<125.605 364.193>
LayerCount: 3
Fore
SplineSet
244 100 m 1x58
 419 100 l 1x58
 421 135 439 154 469 154 c 0x88
 504 154 519 132 519 88 c 2
 519 0 l 1
 85 0 l 1
 85 83 l 1
 346 337 l 1
 197 337 l 1x58
 197 328 l 2
 197 285 182 262 147 262 c 0x28
 112 262 97 285 97 328 c 2
 97 437 l 1
 506 437 l 1
 506 356 l 1
 244 100 l 1x58
EndSplineSet
Validated: 1
Layer: 2
SplineSet
244 100 m 1,0,-1
 419 100 l 1,1,2
 422 154 422 154 469 154 c 0,3,4
 519 154 519 154 519 88 c 2,5,-1
 519 0 l 1,6,-1
 85 0 l 1,7,-1
 85 83 l 1,8,-1
 346 337 l 1,9,-1
 197 337 l 1,10,-1
 197 328 l 2,11,12
 197 262 197 262 147 262 c 128,-1,13
 97 262 97 262 97 328 c 2,14,-1
 97 437 l 1,15,-1
 506 437 l 1,16,-1
 506 356 l 1,17,-1
 244 100 l 1,0,-1
EndSplineSet
EndChar

StartChar: braceleft
Encoding: 123 123 102
Width: 600
Flags: W
HStem: -153 101<352.316 423.835> 189 101<174.663 246.831> 522 101<351.646 423.835>
VStem: 248 100<-48.0137 186.683 292.763 518.014>
LayerCount: 3
Fore
SplineSet
348 485 m 2
 348 328 l 2
 348 285 342 268 319 240 c 1
 343 211 348 194 348 142 c 2
 348 -15 l 2
 348 -42 356 -50 384 -52 c 0
 413 -54 433 -75 433 -103 c 0
 433 -133 411 -153 378 -153 c 0
 308 -153 248 -93 248 -22 c 2
 248 151 l 2
 248 179 242 186 216 189 c 0
 184 193 167 210 167 240 c 0
 167 269 184 287 216 290 c 0
 242 293 248 301 248 328 c 2
 248 492 l 2
 248 563 308 623 377 623 c 0
 411 623 433 603 433 573 c 0
 433 545 413 524 384 522 c 0
 356 521 348 512 348 485 c 2
EndSplineSet
Validated: 1
Layer: 2
SplineSet
348 485 m 2,0,-1
 348 328 l 2,1,2
 348 296 348 296 342 278.5 c 128,-1,3
 336 261 336 261 319 240 c 1,4,5
 337 218 337 218 342.5 199.5 c 128,-1,6
 348 181 348 181 348 142 c 2,7,-1
 348 -15 l 2,8,9
 348 -35 348 -35 355.5 -42.5 c 128,-1,10
 363 -50 363 -50 384 -52 c 0,11,12
 406 -53 406 -53 419.5 -67.5 c 128,-1,13
 433 -82 433 -82 433 -103 c 0,14,15
 433 -126 433 -126 418 -139.5 c 128,-1,16
 403 -153 403 -153 378 -153 c 0,17,18
 325 -153 325 -153 286.5 -114 c 128,-1,19
 248 -75 248 -75 248 -22 c 2,20,-1
 248 151 l 2,21,22
 248 172 248 172 242 179.5 c 128,-1,23
 236 187 236 187 216 189 c 0,24,25
 167 195 167 195 167 240 c 128,-1,26
 167 285 167 285 216 290 c 0,27,28
 235 292 235 292 241.5 300 c 128,-1,29
 248 308 248 308 248 328 c 2,30,-1
 248 492 l 2,31,32
 248 545 248 545 286.5 584 c 128,-1,33
 325 623 325 623 377 623 c 0,34,35
 402 623 402 623 417.5 609.5 c 128,-1,36
 433 596 433 596 433 573 c 0,37,38
 433 552 433 552 419.5 537.5 c 128,-1,39
 406 523 406 523 384 522 c 0,40,41
 363 521 363 521 355.5 513 c 128,-1,42
 348 505 348 505 348 485 c 2,0,-1
EndSplineSet
EndChar

StartChar: bar
Encoding: 124 124 103
Width: 600
Flags: W
HStem: 602 20G<282.5 317.5>
VStem: 250 100<-144.969 614.677>
LayerCount: 3
Fore
SplineSet
350 556 m 2
 350 -87 l 2
 350 -129 335 -153 300 -153 c 0
 266 -153 250 -130 250 -87 c 2
 250 556 l 2
 250 599 265 622 300 622 c 0
 335 622 350 599 350 556 c 2
EndSplineSet
Validated: 1
Layer: 2
SplineSet
350 556 m 2,0,-1
 350 -87 l 2,1,2
 350 -153 350 -153 300 -153 c 128,-1,3
 250 -153 250 -153 250 -87 c 2,4,-1
 250 556 l 2,5,6
 250 622 250 622 300 622 c 128,-1,7
 350 622 350 622 350 556 c 2,0,-1
EndSplineSet
EndChar

StartChar: braceright
Encoding: 125 125 104
Width: 600
Flags: W
HStem: -153 101<176.165 248.354> 180 101<353.169 425.337> 522 101<176.165 247.684>
VStem: 252 100<-48.0137 177.237 283.317 518.014>
LayerCount: 3
Fore
SplineSet
252 -15 m 2
 252 142 l 2
 252 185 258 202 281 230 c 1
 257 259 252 276 252 328 c 2
 252 485 l 2
 252 512 244 520 216 522 c 0
 187 524 167 545 167 573 c 0
 167 603 189 623 222 623 c 0
 292 623 352 563 352 492 c 2
 352 319 l 2
 352 291 358 284 384 281 c 0
 416 277 433 260 433 230 c 0
 433 201 416 183 384 180 c 0
 358 177 352 169 352 142 c 2
 352 -22 l 2
 352 -93 292 -153 223 -153 c 0
 189 -153 167 -133 167 -103 c 0
 167 -75 187 -54 216 -52 c 0
 244 -51 252 -42 252 -15 c 2
EndSplineSet
Validated: 1
Layer: 2
SplineSet
252 -15 m 2,0,-1
 252 142 l 2,1,2
 252 174 252 174 258 191.5 c 128,-1,3
 264 209 264 209 281 230 c 1,4,5
 263 252 263 252 257.5 270.5 c 128,-1,6
 252 289 252 289 252 328 c 2,7,-1
 252 485 l 2,8,9
 252 505 252 505 244.5 512.5 c 128,-1,10
 237 520 237 520 216 522 c 0,11,12
 194 523 194 523 180.5 537.5 c 128,-1,13
 167 552 167 552 167 573 c 0,14,15
 167 596 167 596 182 609.5 c 128,-1,16
 197 623 197 623 222 623 c 0,17,18
 275 623 275 623 313.5 584 c 128,-1,19
 352 545 352 545 352 492 c 2,20,-1
 352 319 l 2,21,22
 352 298 352 298 358 290.5 c 128,-1,23
 364 283 364 283 384 281 c 0,24,25
 433 275 433 275 433 230 c 128,-1,26
 433 185 433 185 384 180 c 0,27,28
 365 178 365 178 358.5 170 c 128,-1,29
 352 162 352 162 352 142 c 2,30,-1
 352 -22 l 2,31,32
 352 -75 352 -75 313.5 -114 c 128,-1,33
 275 -153 275 -153 223 -153 c 0,34,35
 198 -153 198 -153 182.5 -139.5 c 128,-1,36
 167 -126 167 -126 167 -103 c 0,37,38
 167 -82 167 -82 180.5 -67.5 c 128,-1,39
 194 -53 194 -53 216 -52 c 0,40,41
 237 -51 237 -51 244.5 -43 c 128,-1,42
 252 -35 252 -35 252 -15 c 2,0,-1
EndSplineSet
EndChar

StartChar: asciitilde
Encoding: 126 126 105
Width: 600
Flags: W
HStem: 179 105<352.586 419.652> 281 104<183.669 246.021>
LayerCount: 3
Fore
SplineSet
213 385 m 0x40
 302 385 351 284 389 284 c 0
 419 284 447 364 488 364 c 0
 515 364 538 341 538 314 c 0
 538 275 457 179 391 179 c 0x80
 309 179 241 281 212 281 c 0
 183 281 156 201 113 201 c 0
 86 201 62 225 62 252 c 0
 62 291 139 385 213 385 c 0x40
EndSplineSet
Validated: 1
Layer: 2
SplineSet
213 385 m 0,0,1
 243 385 243 385 272.5 369 c 128,-1,2
 302 353 302 353 320.5 334.5 c 128,-1,3
 339 316 339 316 358 300 c 128,-1,4
 377 284 377 284 389 284 c 0,5,6
 403 284 403 284 434.5 324 c 128,-1,7
 466 364 466 364 488 364 c 0,8,9
 508 364 508 364 523 349 c 128,-1,10
 538 334 538 334 538 314 c 0,11,12
 538 281 538 281 487.5 230 c 128,-1,13
 437 179 437 179 391 179 c 0,14,15
 355 179 355 179 317 204.5 c 128,-1,16
 279 230 279 230 251 255.5 c 128,-1,17
 223 281 223 281 212 281 c 0,18,19
 199 281 199 281 167.5 241 c 128,-1,20
 136 201 136 201 113 201 c 0,21,22
 93 201 93 201 77.5 216.5 c 128,-1,23
 62 232 62 232 62 252 c 0,24,25
 62 286 62 286 112 335.5 c 128,-1,26
 162 385 162 385 213 385 c 0,0,1
EndSplineSet
EndChar

StartChar: exclamdown
Encoding: 161 161 107
Width: 600
Flags: W
HStem: 294 132<242.406 358.047>
VStem: 220 161<-202.897 90.1875 316.585 403.415>
LayerCount: 3
Fore
SplineSet
222 -114 m 2
 251 183 l 2
 254 214 272 232 300 232 c 0
 328 232 347 213 350 183 c 2
 379 -114 l 2
 380 -127 381 -141 381 -147 c 0
 381 -193 347 -227 300 -227 c 0
 254 -227 220 -193 220 -147 c 0
 220 -140 221 -126 222 -114 c 2
292 426 m 2
 309 426 l 2
 346 426 375 397 375 360 c 0
 375 323 346 294 309 294 c 2
 292 294 l 2
 255 294 225 323 225 360 c 0
 225 397 255 426 292 426 c 2
EndSplineSet
Validated: 1
Layer: 2
SplineSet
222 -114 m 2,0,-1
 251 183 l 2,1,2
 256 232 256 232 300 232 c 0,3,4
 321 232 321 232 334.5 219 c 128,-1,5
 348 206 348 206 350 183 c 2,6,-1
 379 -114 l 2,7,8
 381 -140 381 -140 381 -147 c 0,9,10
 381 -182 381 -182 358 -204.5 c 128,-1,11
 335 -227 335 -227 300 -227 c 0,12,13
 266 -227 266 -227 243 -204.5 c 128,-1,14
 220 -182 220 -182 220 -147 c 0,15,16
 220 -138 220 -138 222 -114 c 2,0,-1
292 426 m 2,17,-1
 309 426 l 2,18,19
 337 426 337 426 356 407 c 128,-1,20
 375 388 375 388 375 360 c 128,-1,21
 375 332 375 332 356 313 c 128,-1,22
 337 294 337 294 309 294 c 2,23,-1
 292 294 l 2,24,25
 264 294 264 294 244.5 313 c 128,-1,26
 225 332 225 332 225 360 c 128,-1,27
 225 388 225 388 244.5 407 c 128,-1,28
 264 426 264 426 292 426 c 2,17,-1
EndSplineSet
EndChar

StartChar: cent
Encoding: 162 162 108
Width: 600
Flags: W
HStem: -44 241<261.51 341.552> 333 174<424.419 485.561> 427 234<261.27 340.725>
VStem: 83 100<247.24 373.707> 251 100<-35.9685 102.928 522.828 652.695> 410 85<340.442 401.274>
LayerCount: 3
Fore
SplineSet
310 197 m 0xbc
 392 197 412 245 449 245 c 0
 475 245 499 221 499 194 c 0
 499 152 439 114 351 99 c 1
 351 22 l 2
 351 -21 336 -44 301 -44 c 0
 267 -44 251 -21 251 22 c 2
 251 103 l 1
 148 128 83 209 83 312 c 0
 83 409 152 493 251 517 c 1
 251 594 l 2
 251 637 267 661 301 661 c 0xbc
 336 661 351 639 351 594 c 2
 351 527 l 1
 382 522 404 515 424 503 c 1
 433 506 438 507 444 507 c 0
 479 507 495 485 495 441 c 2
 495 399 l 2
 495 356 480 333 445 333 c 0xdc
 433 333 418 339 410 346 c 1
 386 373 412 427 320 427 c 0
 241 427 183 377 183 310 c 0
 183 247 238 197 310 197 c 0xbc
EndSplineSet
Validated: 1
Layer: 2
SplineSet
310 197 m 0,0,1
 345 197 345 197 372 209 c 128,-1,2
 399 221 399 221 417 233 c 128,-1,3
 435 245 435 245 449 245 c 0,4,5
 469 245 469 245 484 229.5 c 128,-1,6
 499 214 499 214 499 194 c 0,7,8
 499 163 499 163 458 136.5 c 128,-1,9
 417 110 417 110 351 99 c 1,10,-1
 351 22 l 2,11,12
 351 -44 351 -44 301 -44 c 128,-1,13
 251 -44 251 -44 251 22 c 2,14,-1
 251 103 l 1,15,16
 174 122 174 122 128.5 178.5 c 128,-1,17
 83 235 83 235 83 312 c 0,18,19
 83 385 83 385 130 442 c 128,-1,20
 177 499 177 499 251 517 c 1,21,-1
 251 594 l 2,22,23
 251 661 251 661 301 661 c 128,-1,24
 351 661 351 661 351 594 c 2,25,-1
 351 527 l 1,26,27
 396 520 396 520 424 503 c 1,28,29
 436 507 436 507 444 507 c 0,30,31
 495 507 495 507 495 441 c 2,32,-1
 495 399 l 2,33,34
 495 333 495 333 445 333 c 0,35,36
 425 333 425 333 410 346 c 0,37,38
 403 354 403 354 398 377.5 c 128,-1,39
 393 401 393 401 377 414 c 128,-1,40
 361 427 361 427 320 427 c 0,41,42
 261 427 261 427 222 393.5 c 128,-1,43
 183 360 183 360 183 310 c 0,44,45
 183 263 183 263 219.5 230 c 128,-1,46
 256 197 256 197 310 197 c 0,0,1
EndSplineSet
EndChar

StartChar: sterling
Encoding: 163 163 109
Width: 600
Flags: W
HStem: 0 100<64.032 142.886 247 454.749> 243 100<40.323 143 269 373.642> 444 21G<384 421.5> 498 100<243.786 356.866>
VStem: 126 100<345.478 480.479> 169 101<127.849 243>
LayerCount: 3
Fore
SplineSet
408 444 m 0xf8
 360 444 370 498 298 498 c 0
 257 498 226 472 226 437 c 0xf8
 226 416 226 414 246 343 c 1
 314 343 l 2
 358 343 381 328 381 293 c 0
 381 258 358 243 314 243 c 2
 269 243 l 1
 270 231 270 221 270 216 c 0
 270 172 264 142 247 100 c 1
 450 100 l 1
 454 130 471 146 499 146 c 0
 530 146 550 124 550 90 c 0
 550 32 512 0 442 0 c 2
 121 0 l 2
 64 0 55 31 55 51 c 0
 55 78 70 93 105 100 c 0
 157 110 169 164 169 224 c 0xf4
 169 227 169 235 168 243 c 1
 99 243 l 2
 56 243 33 258 33 293 c 0
 33 328 56 343 99 343 c 2
 143 343 l 1
 131 379 126 403 126 432 c 0
 126 529 198 598 299 598 c 0
 377 598 457 546 457 495 c 0
 457 467 435 444 408 444 c 0xf8
EndSplineSet
Validated: 1
Layer: 2
SplineSet
408 444 m 0,0,1
 389 444 389 444 376 457.5 c 128,-1,2
 363 471 363 471 346 484.5 c 128,-1,3
 329 498 329 498 298 498 c 128,-1,4
 267 498 267 498 246.5 480.5 c 128,-1,5
 226 463 226 463 226 437 c 0,6,7
 226 414 226 414 246 343 c 1,8,-1
 314 343 l 2,9,10
 381 343 381 343 381 293 c 128,-1,11
 381 243 381 243 314 243 c 2,12,-1
 269 243 l 1,13,14
 270 231 270 231 270 216 c 0,15,16
 270 157 270 157 247 100 c 1,17,-1
 450 100 l 1,18,19
 456 146 456 146 499 146 c 0,20,21
 522 146 522 146 536 131 c 128,-1,22
 550 116 550 116 550 90 c 0,23,24
 550 46 550 46 522 23 c 128,-1,25
 494 0 494 0 442 0 c 2,26,-1
 121 0 l 2,27,28
 55 0 55 0 55 51 c 0,29,30
 55 90 55 90 105 100 c 0,31,32
 169 112 169 112 169 224 c 0,33,34
 169 235 169 235 168 243 c 1,35,-1
 99 243 l 2,36,37
 33 243 33 243 33 293 c 128,-1,38
 33 343 33 343 99 343 c 2,39,-1
 143 343 l 1,40,41
 126 394 126 394 126 432 c 0,42,43
 126 505 126 505 174.5 551.5 c 128,-1,44
 223 598 223 598 299 598 c 0,45,46
 358 598 358 598 407.5 565.5 c 128,-1,47
 457 533 457 533 457 495 c 0,48,49
 457 474 457 474 442.5 459 c 128,-1,50
 428 444 428 444 408 444 c 0,0,1
EndSplineSet
EndChar

StartChar: currency
Encoding: 164 164 110
Width: 600
Flags: W
HStem: 97 100<241.748 357.999> 388 100<240.315 359.892>
VStem: 106 100<232.882 353.902> 394 100<232.074 353.475>
DStem2: 203 462 99 419 0.706036 -0.708176<-95.5832 6.74038 376.339 473.254> 99 162 171 91 0.707107 0.707107<-51.0583 53.2929 415.424 516.334>
LayerCount: 3
Fore
SplineSet
131 388 m 1
 99 419 l 2
 84 434 73 451 73 469 c 0
 73 496 96 519 124 519 c 0
 141 519 148 515 171 493 c 2
 203 462 l 1
 240 482 264 488 300 488 c 0
 336 488 360 481 397 461 c 1
 428 491 l 2
 450 513 458 517 475 517 c 0
 503 517 526 494 526 466 c 0
 526 449 522 442 500 420 c 2
 469 388 l 1
 488 351 494 327 494 292 c 0
 494 257 488 233 468 196 c 1
 501 162 l 2
 522 141 527 132 527 116 c 0
 527 88 503 64 475 64 c 0
 458 64 451 68 429 90 c 2
 395 122 l 1
 359 103 335 97 300 97 c 0
 264 97 241 103 204 123 c 1
 171 91 l 2
 148 68 141 64 124 64 c 0
 96 64 73 87 73 115 c 0
 73 132 77 139 99 162 c 2
 131 196 l 1
 112 233 106 257 106 292 c 0
 106 328 112 352 131 388 c 1
300 388 m 0
 248 388 206 346 206 293 c 0
 206 241 249 197 300 197 c 0
 351 197 394 241 394 292 c 0
 394 346 353 388 300 388 c 0
EndSplineSet
Validated: 1
Layer: 2
SplineSet
131 388 m 1,0,-1
 99 419 l 2,1,2
 73 445 73 445 73 469 c 0,3,4
 73 489 73 489 88 504 c 128,-1,5
 103 519 103 519 124 519 c 0,6,7
 144 519 144 519 171 493 c 2,8,-1
 203 462 l 1,9,10
 251 488 251 488 300 488 c 0,11,12
 347 488 347 488 397 461 c 1,13,-1
 428 491 l 2,14,15
 454 517 454 517 475 517 c 128,-1,16
 496 517 496 517 511 502 c 128,-1,17
 526 487 526 487 526 466 c 0,18,19
 526 453 526 453 521.5 445 c 128,-1,20
 517 437 517 437 500 420 c 2,21,-1
 469 388 l 1,22,23
 494 339 494 339 494 292 c 0,24,25
 494 244 494 244 468 196 c 1,26,-1
 501 162 l 2,27,28
 527 136 527 136 527 116 c 0,29,30
 527 95 527 95 511.5 79.5 c 128,-1,31
 496 64 496 64 475 64 c 0,32,33
 462 64 462 64 454 68.5 c 128,-1,34
 446 73 446 73 429 90 c 2,35,-1
 395 122 l 1,36,37
 348 97 348 97 300 97 c 128,-1,38
 252 97 252 97 204 123 c 1,39,-1
 171 91 l 2,40,41
 154 74 154 74 145.5 69 c 128,-1,42
 137 64 137 64 124 64 c 0,43,44
 103 64 103 64 88 79 c 128,-1,45
 73 94 73 94 73 115 c 0,46,47
 73 135 73 135 99 162 c 2,48,-1
 131 196 l 1,49,50
 106 245 106 245 106 292 c 0,51,52
 106 341 106 341 131 388 c 1,0,-1
300 388 m 0,53,54
 261 388 261 388 233.5 360.5 c 128,-1,55
 206 333 206 333 206 293 c 0,56,57
 206 254 206 254 234 225.5 c 128,-1,58
 262 197 262 197 300 197 c 128,-1,59
 338 197 338 197 366 225.5 c 128,-1,60
 394 254 394 254 394 292 c 0,61,62
 394 333 394 333 367 360.5 c 128,-1,63
 340 388 340 388 300 388 c 0,53,54
EndSplineSet
EndChar

StartChar: yen
Encoding: 165 165 111
Width: 600
Flags: W
HStem: 0 100<145.57 250 350 455.201> 135 56<122.512 250 350 477.488> 225 56<122.512 225 375 477.488> 481 99<28.7988 87 514 570.476>
VStem: 21 225<490.682 570.968> 250 100<100 135 191 225> 355 224<490.633 570.968>
DStem2: 207 482 87 481 0.567925 -0.82308<0 163.678> 301 348 375 281 0.572633 0.819812<0 163.435>
LayerCount: 3
Fore
SplineSet
203 0 m 2
 146 0 137 30 137 50 c 0
 137 85 159 100 204 100 c 2
 250 100 l 1
 250 135 l 1
 153 135 l 2
 133 135 122 145 122 163 c 0
 122 181 133 191 153 191 c 2
 250 191 l 1
 250 225 l 1
 153 225 l 2
 133 225 122 235 122 253 c 0
 122 271 132 281 153 281 c 2
 225 281 l 1
 87 481 l 1
 53 481 21 492 21 530 c 0
 21 565 43 580 87 580 c 2
 179 580 l 2
 223 580 246 565 246 530 c 0
 246 506 230 486 207 482 c 1
 301 348 l 1
 396 481 l 1
 370 488 355 506 355 530 c 0
 355 565 377 580 422 580 c 2
 513 580 l 2
 557 580 579 565 579 530 c 0
 579 497 552 480 514 480 c 1
 375 281 l 1
 447 281 l 2
 467 281 478 271 478 253 c 0
 478 235 467 225 447 225 c 2
 350 225 l 1
 350 191 l 1
 447 191 l 2
 467 191 478 181 478 163 c 0
 478 145 467 135 447 135 c 2
 350 135 l 1
 350 100 l 1
 397 100 l 2
 441 100 463 85 463 50 c 0
 463 17 441 0 397 0 c 2
 203 0 l 2
EndSplineSet
Validated: 1
Layer: 2
SplineSet
203 0 m 2,0,1
 137 0 137 0 137 50 c 128,-1,2
 137 100 137 100 204 100 c 2,3,-1
 250 100 l 1,4,-1
 250 135 l 1,5,-1
 153 135 l 2,6,7
 122 135 122 135 122 163 c 128,-1,8
 122 191 122 191 153 191 c 2,9,-1
 250 191 l 1,10,-1
 250 225 l 1,11,-1
 153 225 l 2,12,13
 122 225 122 225 122 253 c 128,-1,14
 122 281 122 281 153 281 c 2,15,-1
 225 281 l 1,16,-1
 87 481 l 1,17,18
 21 481 21 481 21 530 c 0,19,20
 21 580 21 580 87 580 c 2,21,-1
 179 580 l 2,22,23
 246 580 246 580 246 530 c 0,24,25
 246 512 246 512 235 498.5 c 128,-1,26
 224 485 224 485 207 482 c 1,27,-1
 301 348 l 1,28,-1
 396 481 l 1,29,30
 355 492 355 492 355 530 c 0,31,32
 355 580 355 580 422 580 c 2,33,-1
 513 580 l 2,34,35
 579 580 579 580 579 530 c 0,36,37
 579 506 579 506 561 493 c 128,-1,38
 543 480 543 480 514 480 c 1,39,-1
 375 281 l 1,40,-1
 447 281 l 2,41,42
 478 281 478 281 478 253 c 128,-1,43
 478 225 478 225 447 225 c 2,44,-1
 350 225 l 1,45,-1
 350 191 l 1,46,-1
 447 191 l 2,47,48
 478 191 478 191 478 163 c 128,-1,49
 478 135 478 135 447 135 c 2,50,-1
 350 135 l 1,51,-1
 350 100 l 1,52,-1
 397 100 l 2,53,54
 463 100 463 100 463 50 c 128,-1,55
 463 0 463 0 397 0 c 2,56,-1
 203 0 l 2,0,1
EndSplineSet
EndChar

StartChar: brokenbar
Encoding: 166 166 112
Width: 600
Flags: W
HStem: 602 20G<282.5 323.5>
VStem: 250 100<-144.969 174.677 294.323 614.234>
LayerCount: 3
Fore
SplineSet
300 622 m 0
 347 622 350 580 350 556 c 2
 350 353 l 2
 350 310 335 287 300 287 c 0
 265 287 250 310 250 353 c 2
 250 556 l 2
 250 599 265 622 300 622 c 0
350 116 m 2
 350 -87 l 2
 350 -129 335 -153 300 -153 c 0
 266 -153 250 -130 250 -87 c 2
 250 116 l 2
 250 159 265 182 300 182 c 0
 335 182 350 159 350 116 c 2
EndSplineSet
Validated: 1
Layer: 2
SplineSet
300 622 m 128,-1,1
 350 622 350 622 350 556 c 2,2,-1
 350 353 l 2,3,4
 350 287 350 287 300 287 c 128,-1,5
 250 287 250 287 250 353 c 2,6,-1
 250 556 l 2,7,0
 250 622 250 622 300 622 c 128,-1,1
350 116 m 2,8,-1
 350 -87 l 2,9,10
 350 -153 350 -153 300 -153 c 128,-1,11
 250 -153 250 -153 250 -87 c 2,12,-1
 250 116 l 2,13,14
 250 182 250 182 300 182 c 128,-1,15
 350 182 350 182 350 116 c 2,8,-1
EndSplineSet
EndChar

StartChar: section
Encoding: 167 167 113
Width: 600
Flags: W
HStem: -170 182<87.0117 162.988> -170 88<169 365.453> 401 182<437.012 512.988> 493 90<230.807 431>
VStem: 36 96<252.049 319.699> 81 88<-82 7.21456> 132 85<402.038 476.617> 381 86<-65.9593 9.71728> 431 88<405.971 493> 468 96<93.7841 158.535>
DStem2: 218 205 170 130 0.86673 -0.498778<-107.794 221.129> 324 342 272 271 0.866622 -0.498964<-104.294 221.989>
LayerCount: 3
Fore
SplineSet
431 493 m 1x1280
 287 493 l 2
 248 493 217 469 217 440 c 0x1280
 217 415 252 383 324 342 c 2
 416 291 l 2
 533 226 564 191 564 129 c 0
 564 68 527 25 462 10 c 1
 466 -7 467 -16 467 -28 c 0
 467 -111 398 -170 312 -170 c 2
 81 -170 l 1x5540
 81 -43 l 2
 81 -6 95 12 125 12 c 0x8540
 155 12 169 -6 169 -43 c 2
 169 -82 l 1x4540
 314 -82 l 2
 350 -82 381 -57 381 -29 c 0
 381 -3 347 29 276 69 c 2
 170 130 l 2
 71 187 36 226 36 283 c 0x49
 36 342 72 384 137 402 c 1
 133 414 132 420 132 432 c 0
 132 520 204 583 294 583 c 2
 519 583 l 1x5280
 519 456 l 2
 519 419 505 401 475 401 c 0x2280
 445 401 431 420 431 456 c 2
 431 493 l 1x1280
371 214 m 2
 272 271 l 2
 238 290 228 297 192 326 c 1
 153 326 132 314 132 292 c 0
 132 266 159 239 218 205 c 2
 321 147 l 2
 375 116 390 103 407 88 c 1
 439 88 468 95 468 121 c 0x0840
 468 144 433 178 371 214 c 2
EndSplineSet
Validated: 1
Layer: 2
SplineSet
431 493 m 1,0,-1
 287 493 l 2,1,2
 258 493 258 493 237.5 477.5 c 128,-1,3
 217 462 217 462 217 440 c 0,4,5
 217 403 217 403 324 342 c 2,6,-1
 416 291 l 2,7,8
 503 242 503 242 533.5 209 c 128,-1,9
 564 176 564 176 564 129 c 0,10,11
 564 83 564 83 537.5 52 c 128,-1,12
 511 21 511 21 462 10 c 1,13,14
 467 -11 467 -11 467 -28 c 0,15,16
 467 -90 467 -90 422 -130 c 128,-1,17
 377 -170 377 -170 312 -170 c 2,18,-1
 81 -170 l 1,19,-1
 81 -43 l 2,20,21
 81 12 81 12 125 12 c 128,-1,22
 169 12 169 12 169 -43 c 2,23,-1
 169 -82 l 1,24,-1
 314 -82 l 2,25,26
 341 -82 341 -82 361 -66 c 128,-1,27
 381 -50 381 -50 381 -29 c 0,28,29
 381 10 381 10 276 69 c 2,30,-1
 170 130 l 2,31,32
 95 173 95 173 65.5 206.5 c 128,-1,33
 36 240 36 240 36 283 c 0,34,35
 36 374 36 374 137 402 c 1,36,37
 132 417 132 417 132 432 c 0,38,39
 132 497 132 497 179 540 c 128,-1,40
 226 583 226 583 294 583 c 2,41,-1
 519 583 l 1,42,-1
 519 456 l 2,43,44
 519 401 519 401 475 401 c 128,-1,45
 431 401 431 401 431 456 c 2,46,-1
 431 493 l 1,0,-1
371 214 m 2,47,-1
 272 271 l 2,48,49
 234 292 234 292 192 326 c 1,50,51
 132 326 132 326 132 292 c 0,52,53
 132 255 132 255 218 205 c 2,54,-1
 321 147 l 2,55,56
 376 116 376 116 407 88 c 1,57,58
 468 88 468 88 468 121 c 0,59,60
 468 158 468 158 371 214 c 2,47,-1
EndSplineSet
EndChar

StartChar: dieresis
Encoding: 168 168 114
Width: 600
Flags: W
HStem: 534 120<149.745 241.66 357.745 449.66>
VStem: 136 120<547.745 640.171> 344 120<547.745 640.171>
LayerCount: 3
Fore
SplineSet
196 654 m 0
 230 654 256 627 256 593 c 0
 256 561 229 534 196 534 c 0
 163 534 136 561 136 594 c 0
 136 627 163 654 196 654 c 0
404 654 m 0
 438 654 464 627 464 593 c 0
 464 561 437 534 404 534 c 0
 371 534 344 561 344 594 c 0
 344 627 371 654 404 654 c 0
EndSplineSet
Validated: 1
Layer: 2
SplineSet
196 654 m 128,-1,1
 221 654 221 654 238.5 636.5 c 128,-1,2
 256 619 256 619 256 593 c 0,3,4
 256 569 256 569 238.5 551.5 c 128,-1,5
 221 534 221 534 196 534 c 128,-1,6
 171 534 171 534 153.5 551.5 c 128,-1,7
 136 569 136 569 136 594 c 128,-1,8
 136 619 136 619 153.5 636.5 c 128,-1,0
 171 654 171 654 196 654 c 128,-1,1
404 654 m 128,-1,10
 429 654 429 654 446.5 636.5 c 128,-1,11
 464 619 464 619 464 593 c 0,12,13
 464 569 464 569 446.5 551.5 c 128,-1,14
 429 534 429 534 404 534 c 128,-1,15
 379 534 379 534 361.5 551.5 c 128,-1,16
 344 569 344 569 344 594 c 128,-1,17
 344 619 344 619 361.5 636.5 c 128,-1,9
 379 654 379 654 404 654 c 128,-1,10
EndSplineSet
EndChar

StartChar: copyright
Encoding: 169 169 115
Width: 600
Flags: W
HStem: -15 73<204.69 395.478> 118 71<234.692 370.867> 324 142<370.237 427.313> 395 71<235.544 353.26> 525 73<202.114 396.616>
VStem: -7 73<195.184 389.084> 135 71<215.637 365.305> 360 71<326.385 384.625> 533 73<193.959 389.084>
LayerCount: 3
Fore
SplineSet
135 269 m 2xdf80
 135 305 l 2
 135 397 202 466 291 466 c 0xdf80
 319 466 342 461 370 447 c 1
 375 459 384 466 398 466 c 0
 418 466 431 451 431 428 c 2
 431 368 l 2
 431 340 418 324 396 324 c 0xef80
 375 324 365 335 360 360 c 0
 357 379 327 395 293 395 c 0
 242 395 206 357 206 304 c 2
 206 270 l 2
 206 221 244 189 303 189 c 0
 342 189 355 194 378 218 c 0
 385 225 394 229 403 229 c 0
 422 229 439 212 439 193 c 0
 439 154 373 118 302 118 c 0
 206 118 135 182 135 269 c 2xdf80
299 598 m 0
 469 598 606 461 606 292 c 0
 606 121 469 -15 296 -15 c 0
 131 -15 -7 124 -7 292 c 0
 -7 461 130 598 299 598 c 0
300 525 m 0
 170 525 66 421 66 292 c 0
 66 164 171 58 297 58 c 0
 429 58 533 161 533 292 c 0
 533 421 428 525 300 525 c 0
EndSplineSet
Validated: 1
Layer: 2
SplineSet
135 269 m 2,0,-1
 135 305 l 2,1,2
 135 374 135 374 179.5 420 c 128,-1,3
 224 466 224 466 291 466 c 0,4,5
 332 466 332 466 370 447 c 1,6,7
 378 466 378 466 398 466 c 0,8,9
 413 466 413 466 422 455.5 c 128,-1,10
 431 445 431 445 431 428 c 2,11,-1
 431 368 l 2,12,13
 431 324 431 324 396 324 c 0,14,15
 367 324 367 324 360 360 c 0,16,17
 358 374 358 374 338 384.5 c 128,-1,18
 318 395 318 395 293 395 c 0,19,20
 255 395 255 395 230.5 369.5 c 128,-1,21
 206 344 206 344 206 304 c 2,22,-1
 206 270 l 2,23,24
 206 233 206 233 232.5 211 c 128,-1,25
 259 189 259 189 303 189 c 0,26,27
 332 189 332 189 346.5 194.5 c 128,-1,28
 361 200 361 200 378 218 c 0,29,30
 389 229 389 229 403 229 c 128,-1,31
 417 229 417 229 428 218 c 128,-1,32
 439 207 439 207 439 193 c 0,33,34
 439 164 439 164 397 141 c 128,-1,35
 355 118 355 118 302 118 c 0,36,37
 230 118 230 118 182.5 161 c 128,-1,38
 135 204 135 204 135 269 c 2,0,-1
299 598 m 128,-1,40
 426 598 426 598 516 508.5 c 128,-1,41
 606 419 606 419 606 292 c 0,42,43
 606 164 606 164 516 74.5 c 128,-1,44
 426 -15 426 -15 296 -15 c 0,45,46
 172 -15 172 -15 82.5 75.5 c 128,-1,47
 -7 166 -7 166 -7 292 c 0,48,49
 -7 419 -7 419 82.5 508.5 c 128,-1,39
 172 598 172 598 299 598 c 128,-1,40
300 525 m 0,50,51
 203 525 203 525 134.5 457 c 128,-1,52
 66 389 66 389 66 292 c 0,53,54
 66 196 66 196 134 127 c 128,-1,55
 202 58 202 58 297 58 c 0,56,57
 396 58 396 58 464.5 126 c 128,-1,58
 533 194 533 194 533 292 c 0,59,60
 533 389 533 389 464.5 457 c 128,-1,61
 396 525 396 525 300 525 c 0,50,51
EndSplineSet
EndChar

StartChar: ordfeminine
Encoding: 170 170 116
Width: 600
Flags: W
HStem: 182 77<126.057 479.538> 273 79<209.931 337.697> 284 78<432 485.42> 417 70<220.673 352.582> 517 78<183.298 352.484>
VStem: 118 91<355.631 402.667> 354 78<371.271 413.625 482 510.932>
LayerCount: 3
Fore
SplineSet
296 517 m 0xde
 242 517 210 501 189 501 c 0
 168 501 151 519 151 541 c 0
 151 557 160 569 175 575 c 0
 209 587 257 595 292 595 c 0
 381 595 432 557 432 490 c 2
 432 362 l 1
 438 362 l 2
 473 362 489 350 489 323 c 0
 489 298 472 284 439 284 c 2
 354 284 l 1xbe
 354 295 l 1
 314 279 285 273 246 273 c 0
 175 273 118 316 118 369 c 0
 118 411 158 487 292 487 c 0
 312 487 325 486 354 482 c 1
 354 490 l 2
 354 509 337 517 296 517 c 0xde
354 383 m 1
 354 410 l 1
 322 416 307 417 288 417 c 0
 246 417 209 397 209 374 c 0
 209 361 227 352 252 352 c 0xde
 284 352 328 365 354 383 c 1
432 182 m 2
 176 182 l 2
 132 182 124 189 124 227 c 0
 124 252 135 259 176 259 c 2
 431 259 l 2
 467 259 483 247 483 221 c 0
 483 195 466 182 432 182 c 2
EndSplineSet
Validated: 1
Layer: 2
SplineSet
296 517 m 0,0,1
 265 517 265 517 230 509 c 128,-1,2
 195 501 195 501 189 501 c 0,3,4
 173 501 173 501 162 512.5 c 128,-1,5
 151 524 151 524 151 541 c 0,6,7
 151 565 151 565 175 575 c 0,8,9
 232 595 232 595 292 595 c 0,10,11
 359 595 359 595 395.5 567.5 c 128,-1,12
 432 540 432 540 432 490 c 2,13,-1
 432 362 l 1,14,-1
 438 362 l 2,15,16
 489 362 489 362 489 323 c 128,-1,17
 489 284 489 284 439 284 c 2,18,-1
 354 284 l 1,19,-1
 354 295 l 1,20,21
 299 273 299 273 246 273 c 128,-1,22
 193 273 193 273 155.5 301 c 128,-1,23
 118 329 118 329 118 369 c 0,24,25
 118 410 118 410 160 448.5 c 128,-1,26
 202 487 202 487 292 487 c 0,27,28
 318 487 318 487 354 482 c 1,29,-1
 354 490 l 2,30,31
 354 517 354 517 296 517 c 0,0,1
354 383 m 1,32,-1
 354 410 l 1,33,34
 317 417 317 417 288 417 c 0,35,36
 256 417 256 417 232.5 404 c 128,-1,37
 209 391 209 391 209 374 c 0,38,39
 209 364 209 364 221 358 c 128,-1,40
 233 352 233 352 252 352 c 0,41,42
 309 352 309 352 354 383 c 1,32,-1
432 182 m 2,43,-1
 176 182 l 2,44,45
 143 182 143 182 133.5 190 c 128,-1,46
 124 198 124 198 124 227 c 0,47,48
 124 246 124 246 134.5 252.5 c 128,-1,49
 145 259 145 259 176 259 c 2,50,-1
 431 259 l 2,51,52
 483 259 483 259 483 221 c 0,53,54
 483 182 483 182 432 182 c 2,43,-1
EndSplineSet
EndChar

StartChar: guillemotleft
Encoding: 171 171 117
Width: 600
Flags: W
LayerCount: 3
Fore
SplineSet
175 218 m 1
 326 77 l 2
 337 67 342 59 342 50 c 0
 342 34 327 20 309 20 c 0
 300 20 295 22 281 33 c 2
 33 218 l 1
 281 402 l 2
 295 413 300 415 310 415 c 0
 327 415 342 401 342 385 c 0
 342 376 338 368 326 358 c 2
 175 218 l 1
404 218 m 1
 555 77 l 2
 566 67 571 59 571 50 c 0
 571 34 556 20 538 20 c 0
 529 20 524 22 510 33 c 2
 262 218 l 1
 510 402 l 2
 524 413 529 415 539 415 c 0
 556 415 571 401 571 385 c 0
 571 376 567 368 555 358 c 2
 404 218 l 1
EndSplineSet
Validated: 1
Layer: 2
SplineSet
175 218 m 1,0,-1
 326 77 l 2,1,2
 342 62 342 62 342 50 c 128,-1,3
 342 38 342 38 332 29 c 128,-1,4
 322 20 322 20 309 20 c 0,5,6
 298 20 298 20 281 33 c 2,7,-1
 33 218 l 1,8,-1
 281 402 l 2,9,10
 298 415 298 415 310 415 c 0,11,12
 323 415 323 415 332.5 406 c 128,-1,13
 342 397 342 397 342 385 c 0,14,15
 342 371 342 371 326 358 c 2,16,-1
 175 218 l 1,0,-1
404 218 m 1,17,-1
 555 77 l 2,18,19
 571 62 571 62 571 50 c 128,-1,20
 571 38 571 38 561 29 c 128,-1,21
 551 20 551 20 538 20 c 0,22,23
 527 20 527 20 510 33 c 2,24,-1
 262 218 l 1,25,-1
 510 402 l 2,26,27
 527 415 527 415 539 415 c 0,28,29
 552 415 552 415 561.5 406 c 128,-1,30
 571 397 571 397 571 385 c 0,31,32
 571 371 571 371 555 358 c 2,33,-1
 404 218 l 1,17,-1
EndSplineSet
EndChar

StartChar: logicalnot
Encoding: 172 172 118
Width: 600
Flags: W
HStem: 345 100<50.5239 365>
VStem: 365 100<122.323 345>
LayerCount: 3
Fore
SplineSet
465 445 m 1
 465 181 l 2
 465 138 450 115 415 115 c 0
 380 115 365 138 365 181 c 2
 365 345 l 1
 108 345 l 2
 67 345 42 361 42 395 c 0
 42 430 64 445 108 445 c 2
 465 445 l 1
EndSplineSet
Validated: 1
Layer: 2
SplineSet
465 445 m 1,0,-1
 465 181 l 2,1,2
 465 115 465 115 415 115 c 128,-1,3
 365 115 365 115 365 181 c 2,4,-1
 365 345 l 1,5,-1
 108 345 l 2,6,7
 42 345 42 345 42 395 c 128,-1,8
 42 445 42 445 108 445 c 2,9,-1
 465 445 l 1,0,-1
EndSplineSet
EndChar

StartChar: registered
Encoding: 174 174 120
Width: 600
Flags: W
HStem: -15 73<204.69 395.478> 126 71<156.598 197 269 308.415> 246 70<269 309.39> 387 71<156.781 197 269 343.484> 525 73<202.775 396.676>
VStem: -7 73<195.184 388.676> 154 157<129.717 193.667> 197 72<197 246 316 387> 348 71<323.709 381.323> 363 84<129.717 179.809> 533 73<193.959 388.869>
LayerCount: 3
Fore
SplineSet
269 246 m 1xfd60
 269 197 l 1xfd60
 295 197 311 184 311 162 c 0
 311 139 295 126 267 126 c 2
 199 126 l 2
 170 126 154 139 154 162 c 0xfe20
 154 184 169 197 197 197 c 1
 197 387 l 1xfd20
 169 388 154 401 154 423 c 0
 154 446 170 458 199 458 c 2
 292 458 l 2
 367 458 419 415 419 354 c 0xfea0
 419 317 395 283 358 266 c 1
 382 244 389 235 411 197 c 1
 434 195 447 182 447 162 c 0
 447 139 431 126 403 126 c 2
 363 126 l 1
 351 175 312 233 284 246 c 1
 269 246 l 1xfd60
269 316 m 1
 294 316 l 2
 325 316 348 333 348 355 c 0xfda0
 348 374 327 387 294 387 c 2
 269 387 l 1
 269 316 l 1
300 598 m 0
 468 598 606 461 606 292 c 0
 606 121 469 -15 296 -15 c 0
 131 -15 -7 124 -7 292 c 0
 -7 460 131 598 300 598 c 0
300 525 m 0
 171 525 66 420 66 292 c 0
 66 164 171 58 297 58 c 0
 429 58 533 161 533 292 c 0
 533 420 428 525 300 525 c 0
EndSplineSet
Validated: 1
Layer: 2
SplineSet
269 246 m 1,0,-1
 269 197 l 1,1,2
 311 197 311 197 311 162 c 0,3,4
 311 126 311 126 267 126 c 2,5,-1
 199 126 l 2,6,7
 154 126 154 126 154 162 c 0,8,9
 154 197 154 197 197 197 c 1,10,-1
 197 387 l 1,11,12
 154 389 154 389 154 423 c 0,13,14
 154 458 154 458 199 458 c 2,15,-1
 292 458 l 2,16,17
 348 458 348 458 383.5 429 c 128,-1,18
 419 400 419 400 419 354 c 0,19,20
 419 326 419 326 402.5 302.5 c 128,-1,21
 386 279 386 279 358 266 c 1,22,23
 386 241 386 241 411 197 c 1,24,25
 447 194 447 194 447 162 c 0,26,27
 447 126 447 126 403 126 c 2,28,-1
 363 126 l 1,29,30
 354 162 354 162 329.5 199 c 128,-1,31
 305 236 305 236 284 246 c 1,32,-1
 269 246 l 1,0,-1
269 316 m 1,33,-1
 294 316 l 2,34,35
 317 316 317 316 332.5 327 c 128,-1,36
 348 338 348 338 348 355 c 0,37,38
 348 369 348 369 333.5 378 c 128,-1,39
 319 387 319 387 294 387 c 2,40,-1
 269 387 l 1,41,-1
 269 316 l 1,33,-1
300 598 m 0,42,43
 426 598 426 598 516 508.5 c 128,-1,44
 606 419 606 419 606 292 c 0,45,46
 606 164 606 164 516 74.5 c 128,-1,47
 426 -15 426 -15 296 -15 c 0,48,49
 172 -15 172 -15 82.5 75.5 c 128,-1,50
 -7 166 -7 166 -7 292 c 128,-1,51
 -7 418 -7 418 83 508 c 128,-1,52
 173 598 173 598 300 598 c 0,42,43
300 525 m 0,53,54
 203 525 203 525 134.5 456.5 c 128,-1,55
 66 388 66 388 66 292 c 128,-1,56
 66 196 66 196 134 127 c 128,-1,57
 202 58 202 58 297 58 c 0,58,59
 396 58 396 58 464.5 126 c 128,-1,60
 533 194 533 194 533 292 c 0,61,62
 533 388 533 388 464.5 456.5 c 128,-1,63
 396 525 396 525 300 525 c 0,53,54
EndSplineSet
EndChar

StartChar: macron
Encoding: 175 175 121
Width: 600
Flags: W
HStem: 546 80<129.42 470.41>
LayerCount: 3
Fore
SplineSet
178 626 m 2
 422 626 l 2
 458 626 475 615 475 586 c 0
 475 561 455 546 422 546 c 2
 178 546 l 2
 143 546 125 558 125 586 c 0
 125 611 144 626 178 626 c 2
EndSplineSet
Validated: 1
Layer: 2
SplineSet
178 626 m 2,0,-1
 422 626 l 2,1,2
 475 626 475 626 475 586 c 128,-1,3
 475 546 475 546 422 546 c 2,4,-1
 178 546 l 2,5,6
 125 546 125 546 125 586 c 128,-1,7
 125 626 125 626 178 626 c 2,0,-1
EndSplineSet
EndChar

StartChar: degree
Encoding: 176 176 122
Width: 600
Flags: W
HStem: 243 61<234.7 364.599> 535 61<234.839 365.161>
VStem: 125 61<354.361 485.4> 414 61<353.731 485.4>
LayerCount: 3
Fore
SplineSet
300 596 m 0
 397 596 475 517 475 420 c 0
 475 321 397 243 298 243 c 0
 204 243 125 323 125 420 c 0
 125 517 203 596 300 596 c 0
300 535 m 0
 237 535 186 483 186 420 c 0
 186 357 238 304 299 304 c 0
 363 304 414 356 414 420 c 0
 414 483 363 535 300 535 c 0
EndSplineSet
Validated: 1
Layer: 2
SplineSet
300 596 m 128,-1,1
 373 596 373 596 424 544.5 c 128,-1,2
 475 493 475 493 475 420 c 0,3,4
 475 346 475 346 423.5 294.5 c 128,-1,5
 372 243 372 243 298 243 c 0,6,7
 227 243 227 243 176 295 c 128,-1,8
 125 347 125 347 125 420 c 128,-1,9
 125 493 125 493 176 544.5 c 128,-1,0
 227 596 227 596 300 596 c 128,-1,1
300 535 m 128,-1,11
 253 535 253 535 219.5 501 c 128,-1,12
 186 467 186 467 186 420 c 128,-1,13
 186 373 186 373 219.5 338.5 c 128,-1,14
 253 304 253 304 299 304 c 0,15,16
 347 304 347 304 380.5 338 c 128,-1,17
 414 372 414 372 414 420 c 0,18,19
 414 467 414 467 380.5 501 c 128,-1,10
 347 535 347 535 300 535 c 128,-1,11
EndSplineSet
EndChar

StartChar: plusminus
Encoding: 177 177 123
Width: 600
Flags: W
HStem: 0 100<50.4967 550.677> 330 100<50.4967 250 350 550.642> 604 20G<283 317.5>
VStem: 250 100<172.031 330 430 615.736>
LayerCount: 3
Fore
SplineSet
350 330 m 1
 350 230 l 2
 350 187 335 164 300 164 c 0
 265 164 250 188 250 230 c 2
 250 330 l 1
 108 330 l 2
 67 330 42 346 42 380 c 0
 42 415 65 430 108 430 c 2
 250 430 l 1
 250 558 l 2
 250 600 266 624 300 624 c 0
 335 624 350 602 350 558 c 2
 350 430 l 1
 491 430 l 2
 535 430 558 415 558 380 c 0
 558 345 535 330 491 330 c 2
 350 330 l 1
108 100 m 2
 492 100 l 2
 535 100 558 85 558 50 c 0
 558 15 535 0 492 0 c 2
 108 0 l 2
 67 0 42 16 42 50 c 0
 42 85 65 100 108 100 c 2
EndSplineSet
Validated: 1
Layer: 2
SplineSet
350 330 m 1,0,-1
 350 230 l 2,1,2
 350 164 350 164 300 164 c 128,-1,3
 250 164 250 164 250 230 c 2,4,-1
 250 330 l 1,5,-1
 108 330 l 2,6,7
 42 330 42 330 42 380 c 128,-1,8
 42 430 42 430 108 430 c 2,9,-1
 250 430 l 1,10,-1
 250 558 l 2,11,12
 250 624 250 624 300 624 c 128,-1,13
 350 624 350 624 350 558 c 2,14,-1
 350 430 l 1,15,-1
 491 430 l 2,16,17
 558 430 558 430 558 380 c 128,-1,18
 558 330 558 330 491 330 c 2,19,-1
 350 330 l 1,0,-1
108 100 m 2,20,-1
 492 100 l 2,21,22
 558 100 558 100 558 50 c 128,-1,23
 558 0 558 0 492 0 c 2,24,-1
 108 0 l 2,25,26
 42 0 42 0 42 50 c 128,-1,27
 42 100 42 100 108 100 c 2,20,-1
EndSplineSet
EndChar

StartChar: twosuperior
Encoding: 178 178 124
Width: 600
Flags: W
HStem: 247 99<364.531 426.065> 247 67<253 370.531> 570 67<239.667 346.649>
VStem: 161 64<502.317 555.304> 358 67<479.193 556.844>
LayerCount: 3
Fore
SplineSet
161 533 m 0x78
 161 569 207 637 294 637 c 0
 369 637 425 586 425 517 c 0
 425 466 402 439 253 314 c 1
 362 314 l 1x78
 365 335 376 346 395 346 c 0xb8
 418 346 429 332 429 303 c 2
 429 247 l 1
 149 247 l 1
 149 315 l 1
 335 469 358 492 358 520 c 0
 358 548 330 570 293 570 c 0
 237 570 227 528 225 520 c 0
 221 508 208 500 195 500 c 0
 176 500 161 515 161 533 c 0x78
EndSplineSet
Validated: 1
Layer: 2
SplineSet
161 533 m 0,0,1
 161 566 161 566 198 601.5 c 128,-1,2
 235 637 235 637 294 637 c 0,3,4
 350 637 350 637 387.5 603 c 128,-1,5
 425 569 425 569 425 517 c 0,6,7
 425 479 425 479 395 443.5 c 128,-1,8
 365 408 365 408 253 314 c 1,9,-1
 362 314 l 1,10,11
 367 346 367 346 395 346 c 0,12,13
 429 346 429 346 429 303 c 2,14,-1
 429 247 l 1,15,-1
 149 247 l 1,16,-1
 149 315 l 1,17,18
 288 430 288 430 323 464.5 c 128,-1,19
 358 499 358 499 358 520 c 128,-1,20
 358 541 358 541 339.5 555.5 c 128,-1,21
 321 570 321 570 293 570 c 0,22,23
 238 570 238 570 225 520 c 0,24,25
 218 500 218 500 195 500 c 0,26,27
 181 500 181 500 171 509.5 c 128,-1,28
 161 519 161 519 161 533 c 0,0,1
EndSplineSet
EndChar

StartChar: threesuperior
Encoding: 179 179 125
Width: 600
Flags: W
HStem: 238 67<184.928 361.357> 418 66<254.038 354.95> 570 67<237.415 355.599>
VStem: 362 67<493.675 560.357> 375 67<320.189 397.308>
LayerCount: 3
Fore
SplineSet
190 326 m 0xe8
 218 326 199 305 283 305 c 0
 343 305 375 323 375 357 c 0xe8
 375 392 336 418 286 418 c 0
 265 418 252 432 252 451 c 0
 252 470 267 484 286 484 c 0
 336 484 362 497 362 528 c 0
 362 554 337 570 299 570 c 0
 230 570 242 533 208 533 c 0
 190 533 175 549 175 567 c 0
 175 604 236 637 302 637 c 0
 375 637 429 591 429 529 c 0xf0
 429 476 380 450 378 448 c 1
 419 427 442 393 442 355 c 0
 442 322 424 238 285 238 c 0
 207 238 157 259 157 292 c 0
 157 311 172 326 190 326 c 0xe8
EndSplineSet
Validated: 1
Layer: 2
SplineSet
190 326 m 0,0,1
 199 326 199 326 205 322.5 c 128,-1,2
 211 319 211 319 215.5 315.5 c 128,-1,3
 220 312 220 312 237 308.5 c 128,-1,4
 254 305 254 305 283 305 c 0,5,6
 375 305 375 305 375 357 c 0,7,8
 375 383 375 383 349.5 400.5 c 128,-1,9
 324 418 324 418 286 418 c 0,10,11
 270 418 270 418 261 427 c 128,-1,12
 252 436 252 436 252 451 c 0,13,14
 252 465 252 465 262 474.5 c 128,-1,15
 272 484 272 484 286 484 c 0,16,17
 362 484 362 484 362 528 c 0,18,19
 362 547 362 547 345 558.5 c 128,-1,20
 328 570 328 570 299 570 c 0,21,22
 276 570 276 570 261 564 c 128,-1,23
 246 558 246 558 240.5 551.5 c 128,-1,24
 235 545 235 545 227 539 c 128,-1,25
 219 533 219 533 208 533 c 0,26,27
 195 533 195 533 185 543 c 128,-1,28
 175 553 175 553 175 567 c 0,29,30
 175 595 175 595 213.5 616 c 128,-1,31
 252 637 252 637 302 637 c 0,32,33
 357 637 357 637 393 606.5 c 128,-1,34
 429 576 429 576 429 529 c 0,35,36
 429 516 429 516 425.5 504.5 c 128,-1,37
 422 493 422 493 416.5 485 c 128,-1,38
 411 477 411 477 404 469.5 c 128,-1,39
 397 462 397 462 392 458 c 128,-1,40
 387 454 387 454 382.5 451 c 2,41,-1
 378 448 l 1,42,43
 442 415 442 415 442 355 c 0,44,45
 442 343 442 343 439 330 c 128,-1,46
 436 317 436 317 426.5 299.5 c 128,-1,47
 417 282 417 282 400.5 269 c 128,-1,48
 384 256 384 256 354 247 c 128,-1,49
 324 238 324 238 285 238 c 0,50,51
 226 238 226 238 191.5 252.5 c 128,-1,52
 157 267 157 267 157 292 c 0,53,54
 157 306 157 306 166.5 316 c 128,-1,55
 176 326 176 326 190 326 c 0,0,1
EndSplineSet
EndChar

StartChar: acute
Encoding: 180 180 126
Width: 600
Flags: W
HStem: 496 200
VStem: 250 225
DStem2: 406 680 319 512 0.764911 0.644136<-209.187 34.3908>
LayerCount: 3
Fore
SplineSet
452 624 m 2
 319 512 l 2
 304 500 297 496 287 496 c 0
 267 496 250 513 250 532 c 0
 250 545 257 556 273 569 c 2
 406 680 l 2
 422 693 427 696 438 696 c 0
 459 696 475 680 475 659 c 0
 475 647 468 638 452 624 c 2
EndSplineSet
Validated: 1
Layer: 2
SplineSet
452 624 m 2,0,-1
 319 512 l 2,1,2
 299 496 299 496 287 496 c 0,3,4
 272 496 272 496 261 507 c 128,-1,5
 250 518 250 518 250 532 c 0,6,7
 250 550 250 550 273 569 c 2,8,-1
 406 680 l 2,9,10
 426 696 426 696 438 696 c 0,11,12
 454 696 454 696 464.5 685.5 c 128,-1,13
 475 675 475 675 475 659 c 0,14,15
 475 644 475 644 452 624 c 2,0,-1
EndSplineSet
EndChar

StartChar: paragraph
Encoding: 182 182 127
Width: 600
Flags: W
HStem: -174 78<141.5 270 468 554.345> 185 81<212.451 270> 505 78<348 392 468 552.345>
VStem: 49 113<309.828 455.111> 270 78<-96 187.225 266 500> 392 76<-96 505>
LayerCount: 3
Fore
SplineSet
468 505 m 1
 468 -96 l 1
 504 -96 l 2
 541 -96 558 -109 558 -135 c 0
 558 -161 540 -174 504 -174 c 2
 411 -174 l 2
 390 -174 380 -165 371 -140 c 1
 360 -168 352 -174 328 -174 c 2
 191 -174 l 2
 156 -174 138 -161 138 -135 c 0
 138 -108 157 -96 191 -96 c 2
 270 -96 l 1
 270 185 l 1
 141 198 49 272 49 361 c 2
 49 407 l 2
 49 504 163 583 305 583 c 2
 502 583 l 2
 538 583 556 570 556 544 c 0
 556 518 539 505 502 505 c 2
 468 505 l 1
270 266 m 1
 270 500 l 1
 203 486 162 450 162 405 c 2
 162 361 l 2
 162 316 203 280 270 266 c 1
392 505 m 1
 348 505 l 1
 348 -96 l 1
 361 -102 366 -108 371 -124 c 1
 375 -109 381 -102 392 -96 c 1
 392 505 l 1
EndSplineSet
Validated: 1
Layer: 2
SplineSet
468 505 m 1,0,-1
 468 -96 l 1,1,-1
 504 -96 l 2,2,3
 558 -96 558 -96 558 -135 c 128,-1,4
 558 -174 558 -174 504 -174 c 2,5,-1
 411 -174 l 2,6,7
 383 -174 383 -174 371 -140 c 1,8,9
 363 -161 363 -161 354.5 -167.5 c 128,-1,10
 346 -174 346 -174 328 -174 c 2,11,-1
 191 -174 l 2,12,13
 138 -174 138 -174 138 -135 c 128,-1,14
 138 -96 138 -96 191 -96 c 2,15,-1
 270 -96 l 1,16,-1
 270 185 l 1,17,18
 173 195 173 195 111 244.5 c 128,-1,19
 49 294 49 294 49 361 c 2,20,-1
 49 407 l 2,21,22
 49 480 49 480 124 531.5 c 128,-1,23
 199 583 199 583 305 583 c 2,24,-1
 502 583 l 2,25,26
 556 583 556 583 556 544 c 128,-1,27
 556 505 556 505 502 505 c 2,28,-1
 468 505 l 1,0,-1
270 266 m 1,29,-1
 270 500 l 1,30,31
 220 489 220 489 191 464 c 128,-1,32
 162 439 162 439 162 405 c 2,33,-1
 162 361 l 2,34,35
 162 327 162 327 191 302 c 128,-1,36
 220 277 220 277 270 266 c 1,29,-1
392 505 m 1,37,-1
 348 505 l 1,38,-1
 348 -96 l 1,39,40
 365 -104 365 -104 371 -124 c 1,41,42
 376 -105 376 -105 392 -96 c 1,43,-1
 392 505 l 1,37,-1
EndSplineSet
EndChar

StartChar: periodcentered
Encoding: 183 183 128
Width: 600
Flags: W
HStem: 214 132<242.303 358.047>
VStem: 225 150<232.025 327.975>
LayerCount: 3
Fore
SplineSet
309 214 m 2
 291 214 l 2
 255 214 225 244 225 280 c 0
 225 316 255 346 291 346 c 2
 309 346 l 2
 346 346 375 317 375 280 c 0
 375 243 346 214 309 214 c 2
EndSplineSet
Validated: 1
Layer: 2
SplineSet
309 214 m 2,0,-1
 291 214 l 2,1,2
 264 214 264 214 244.5 233.5 c 128,-1,3
 225 253 225 253 225 280 c 128,-1,4
 225 307 225 307 244.5 326.5 c 128,-1,5
 264 346 264 346 291 346 c 2,6,-1
 309 346 l 2,7,8
 337 346 337 346 356 327 c 128,-1,9
 375 308 375 308 375 280 c 128,-1,10
 375 252 375 252 356 233 c 128,-1,11
 337 214 337 214 309 214 c 2,0,-1
EndSplineSet
EndChar

StartChar: cedilla
Encoding: 184 184 129
Width: 600
Flags: W
HStem: -229 70<235.481 336.103> -100 100<262 331.556>
VStem: 262 70<-47.4899 0> 337 70<-157.464 -105.414>
LayerCount: 3
Fore
SplineSet
215 -131 m 0
 235 -131 260 -159 301 -159 c 0
 324 -159 337 -150 337 -134 c 0
 337 -113 318 -100 284 -100 c 0
 279 -100 275 -100 262 -102 c 1
 262 0 l 1
 332 0 l 1
 332 -41 l 1
 383 -52 407 -81 407 -132 c 0
 407 -189 362 -229 300 -229 c 0
 262 -229 180 -209 180 -166 c 0
 180 -147 196 -131 215 -131 c 0
EndSplineSet
Validated: 1
Layer: 2
SplineSet
215 -131 m 0,0,1
 222 -131 222 -131 250 -145 c 128,-1,2
 278 -159 278 -159 301 -159 c 0,3,4
 337 -159 337 -159 337 -134 c 0,5,6
 337 -100 337 -100 284 -100 c 0,7,8
 275 -100 275 -100 262 -102 c 1,9,-1
 262 0 l 1,10,-1
 332 0 l 1,11,-1
 332 -41 l 1,12,13
 407 -57 407 -57 407 -132 c 0,14,15
 407 -175 407 -175 377 -202 c 128,-1,16
 347 -229 347 -229 300 -229 c 0,17,18
 263 -229 263 -229 221.5 -212 c 128,-1,19
 180 -195 180 -195 180 -166 c 0,20,21
 180 -152 180 -152 190.5 -141.5 c 128,-1,22
 201 -131 201 -131 215 -131 c 0,0,1
EndSplineSet
EndChar

StartChar: onesuperior
Encoding: 185 185 130
Width: 600
Flags: W
HStem: 247 67<168.031 267 334 431.98> 618 20G<256.353 334>
VStem: 267 67<314 551>
LayerCount: 3
Fore
SplineSet
334 638 m 1
 334 314 l 1
 391 314 l 2
 420 314 434 303 434 281 c 0
 434 259 419 247 391 247 c 2
 210 247 l 2
 182 247 166 259 166 281 c 0
 166 303 180 314 210 314 c 2
 267 314 l 1
 267 551 l 1
 219 539 l 2
 208 536 205 535 199 535 c 0
 182 535 168 551 168 570 c 0
 168 589 177 597 202 604 c 2
 334 638 l 1
EndSplineSet
Validated: 1
Layer: 2
SplineSet
334 638 m 1,0,-1
 334 314 l 1,1,-1
 391 314 l 2,2,3
 434 314 434 314 434 281 c 0,4,5
 434 247 434 247 391 247 c 2,6,-1
 210 247 l 2,7,8
 166 247 166 247 166 281 c 0,9,10
 166 314 166 314 210 314 c 2,11,-1
 267 314 l 1,12,-1
 267 551 l 1,13,-1
 219 539 l 2,14,15
 204 535 204 535 199 535 c 0,16,17
 186 535 186 535 177 545.5 c 128,-1,18
 168 556 168 556 168 570 c 128,-1,19
 168 584 168 584 175.5 591.5 c 128,-1,20
 183 599 183 599 202 604 c 2,21,-1
 334 638 l 1,0,-1
EndSplineSet
EndChar

StartChar: ordmasculine
Encoding: 186 186 131
Width: 600
Flags: W
HStem: 182 77<125.344 476.538> 273 78<241.607 360.193> 517 78<242.431 359.969>
VStem: 131 79<381.815 483.694> 392 79<381.279 485.316>
LayerCount: 3
Fore
SplineSet
301 595 m 0
 396 595 471 521 471 428 c 0
 471 343 394 273 301 273 c 0
 207 273 131 343 131 430 c 0
 131 520 208 595 301 595 c 0
301 517 m 0
 252 517 210 477 210 430 c 0
 210 388 253 351 301 351 c 0
 349 351 392 388 392 430 c 0
 392 477 350 517 301 517 c 0
428 182 m 2
 174 182 l 2
 139 182 122 195 122 221 c 0
 122 247 140 259 174 259 c 2
 428 259 l 2
 464 259 480 247 480 221 c 0
 480 195 463 182 428 182 c 2
EndSplineSet
Validated: 1
Layer: 2
SplineSet
301 595 m 0,0,1
 372 595 372 595 421.5 546.5 c 128,-1,2
 471 498 471 498 471 428 c 0,3,4
 471 364 471 364 421 318.5 c 128,-1,5
 371 273 371 273 301 273 c 0,6,7
 230 273 230 273 180.5 319 c 128,-1,8
 131 365 131 365 131 430 c 0,9,10
 131 498 131 498 181 546.5 c 128,-1,11
 231 595 231 595 301 595 c 0,0,1
301 517 m 128,-1,13
 264 517 264 517 237 491 c 128,-1,14
 210 465 210 465 210 430 c 0,15,16
 210 399 210 399 237.5 375 c 128,-1,17
 265 351 265 351 301 351 c 128,-1,18
 337 351 337 351 364.5 375 c 128,-1,19
 392 399 392 399 392 430 c 0,20,21
 392 465 392 465 365 491 c 128,-1,12
 338 517 338 517 301 517 c 128,-1,13
428 182 m 2,22,-1
 174 182 l 2,23,24
 122 182 122 182 122 221 c 0,25,26
 122 259 122 259 174 259 c 2,27,-1
 428 259 l 2,28,29
 480 259 480 259 480 221 c 0,30,31
 480 182 480 182 428 182 c 2,22,-1
EndSplineSet
EndChar

StartChar: guillemotright
Encoding: 187 187 132
Width: 600
Flags: W
LayerCount: 3
Fore
SplineSet
430 217 m 1
 279 358 l 2
 268 368 263 376 263 385 c 0
 263 401 278 415 296 415 c 0
 305 415 310 413 324 402 c 2
 571 217 l 1
 324 33 l 2
 310 22 305 20 295 20 c 0
 278 20 263 34 263 50 c 0
 263 59 267 67 279 77 c 2
 430 217 l 1
200 217 m 1
 49 358 l 2
 38 368 33 376 33 385 c 0
 33 401 48 415 66 415 c 0
 75 415 80 413 94 402 c 2
 341 217 l 1
 94 33 l 2
 80 22 75 20 65 20 c 0
 48 20 33 34 33 50 c 0
 33 59 37 67 49 77 c 2
 200 217 l 1
EndSplineSet
Validated: 1
Layer: 2
SplineSet
430 217 m 1,0,-1
 279 358 l 2,1,2
 263 373 263 373 263 385 c 128,-1,3
 263 397 263 397 273 406 c 128,-1,4
 283 415 283 415 296 415 c 0,5,6
 307 415 307 415 324 402 c 2,7,-1
 571 217 l 1,8,-1
 324 33 l 2,9,10
 307 20 307 20 295 20 c 0,11,12
 282 20 282 20 272.5 29 c 128,-1,13
 263 38 263 38 263 50 c 0,14,15
 263 64 263 64 279 77 c 2,16,-1
 430 217 l 1,0,-1
200 217 m 1,17,-1
 49 358 l 2,18,19
 33 373 33 373 33 385 c 128,-1,20
 33 397 33 397 43 406 c 128,-1,21
 53 415 53 415 66 415 c 0,22,23
 77 415 77 415 94 402 c 2,24,-1
 341 217 l 1,25,-1
 94 33 l 2,26,27
 77 20 77 20 65 20 c 0,28,29
 52 20 52 20 42.5 29 c 128,-1,30
 33 38 33 38 33 50 c 0,31,32
 33 64 33 64 49 77 c 2,33,-1
 200 217 l 1,17,-1
EndSplineSet
EndChar

StartChar: onequarter
Encoding: 188 188 133
Width: 600
Flags: W
HStem: 0 67<465.02 525 592 627.043> 83 67<446 525 592 627.043> 247 67<-31.9693 67 134 231.98> 567 20G<442.5 458.5> 618 20G<56.3529 134>
VStem: 67 67<314 551> 463 166<3.45459 64.0916> 525 67<67 83 150 279>
DStem2: 155 110 213 77 0.499445 0.866345<-27.2728 549.556> 362 138 446 150 0.516576 0.856242<53.6672 204.932>
LayerCount: 3
Fore
SplineSet
134 638 m 1xfc
 134 314 l 1
 191 314 l 2
 220 314 234 303 234 281 c 0
 234 259 219 247 191 247 c 2
 10 247 l 2
 -18 247 -34 259 -34 281 c 0
 -34 303 -20 314 10 314 c 2
 67 314 l 1
 67 551 l 1
 19 539 l 2
 8 536 5 535 -1 535 c 0
 -18 535 -32 551 -32 570 c 0
 -32 589 -23 597 2 604 c 2
 134 638 l 1xfc
473 528 m 2
 213 77 l 2
 202 58 193 51 179 51 c 0
 161 51 145 67 145 84 c 0
 145 90 148 99 155 110 c 2
 415 561 l 2
 427 581 435 587 450 587 c 0
 467 587 484 571 484 555 c 0
 484 548 481 541 473 528 c 2
592 380 m 1xfd
 592 150 l 1xfd
 615 149 629 137 629 117 c 0xfe
 629 97 616 84 592 83 c 1
 592 67 l 1xfd
 615 66 629 54 629 34 c 0
 629 12 613 0 585 0 c 2
 506 0 l 2
 478 0 463 12 463 34 c 0xfe
 463 56 477 67 506 67 c 2
 525 67 l 1
 525 83 l 1
 362 83 l 1
 362 138 l 1
 508 380 l 1
 592 380 l 1xfd
525 150 m 1
 525 279 l 1
 446 150 l 1
 525 150 l 1
EndSplineSet
Validated: 1
Layer: 2
SplineSet
134 638 m 1,0,-1
 134 314 l 1,1,-1
 191 314 l 2,2,3
 234 314 234 314 234 281 c 0,4,5
 234 247 234 247 191 247 c 2,6,-1
 10 247 l 2,7,8
 -34 247 -34 247 -34 281 c 0,9,10
 -34 314 -34 314 10 314 c 2,11,-1
 67 314 l 1,12,-1
 67 551 l 1,13,-1
 19 539 l 2,14,15
 4 535 4 535 -1 535 c 0,16,17
 -14 535 -14 535 -23 545.5 c 128,-1,18
 -32 556 -32 556 -32 570 c 128,-1,19
 -32 584 -32 584 -24.5 591.5 c 128,-1,20
 -17 599 -17 599 2 604 c 2,21,-1
 134 638 l 1,0,-1
473 528 m 2,22,-1
 213 77 l 2,23,24
 198 51 198 51 179 51 c 0,25,26
 166 51 166 51 155.5 61 c 128,-1,27
 145 71 145 71 145 84 c 0,28,29
 145 94 145 94 155 110 c 2,30,-1
 415 561 l 2,31,32
 431 587 431 587 450 587 c 0,33,34
 463 587 463 587 473.5 577 c 128,-1,35
 484 567 484 567 484 555 c 0,36,37
 484 546 484 546 473 528 c 2,22,-1
592 380 m 1,38,-1
 592 150 l 1,39,40
 629 148 629 148 629 117 c 0,41,42
 629 85 629 85 592 83 c 1,43,-1
 592 67 l 1,44,45
 629 65 629 65 629 34 c 0,46,47
 629 0 629 0 585 0 c 2,48,-1
 506 0 l 2,49,50
 463 0 463 0 463 34 c 0,51,52
 463 67 463 67 506 67 c 2,53,-1
 525 67 l 1,54,-1
 525 83 l 1,55,-1
 362 83 l 1,56,-1
 362 138 l 1,57,-1
 508 380 l 1,58,-1
 592 380 l 1,38,-1
525 150 m 1,59,-1
 525 279 l 1,60,-1
 446 150 l 1,61,-1
 525 150 l 1,59,-1
EndSplineSet
EndChar

StartChar: onehalf
Encoding: 189 189 134
Width: 600
Flags: W
HStem: 0 99<564.531 626.065> 0 67<453 570.531> 247 67<-31.9693 67 134 231.98> 323 67<439.667 546.649> 567 20G<442.5 458.5> 618 20G<56.3529 134>
VStem: 67 67<314 551> 361 64<255.317 308.304> 558 67<232.193 309.844>
DStem2: 155 110 213 77 0.499445 0.866345<-27.2728 549.556>
LayerCount: 3
Fore
SplineSet
134 638 m 1x3f80
 134 314 l 1
 191 314 l 2
 220 314 234 303 234 281 c 0
 234 259 219 247 191 247 c 2
 10 247 l 2
 -18 247 -34 259 -34 281 c 0
 -34 303 -20 314 10 314 c 2
 67 314 l 1
 67 551 l 1
 19 539 l 2
 8 536 5 535 -1 535 c 0
 -18 535 -32 551 -32 570 c 0
 -32 589 -23 597 2 604 c 2
 134 638 l 1x3f80
473 528 m 2
 213 77 l 2
 202 58 193 51 179 51 c 0
 161 51 145 67 145 84 c 0
 145 90 148 99 155 110 c 2
 415 561 l 2
 427 581 435 587 450 587 c 0
 467 587 484 571 484 555 c 0
 484 548 481 541 473 528 c 2
361 286 m 0
 361 322 407 390 494 390 c 0
 569 390 625 339 625 270 c 0
 625 219 602 192 453 67 c 1
 562 67 l 1x7f80
 565 88 576 99 595 99 c 0xbf80
 618 99 629 85 629 56 c 2
 629 0 l 1
 349 0 l 1x7f80
 349 68 l 1
 535 222 558 245 558 273 c 0
 558 301 530 323 493 323 c 0
 437 323 427 281 425 273 c 0
 421 261 408 253 395 253 c 0
 376 253 361 268 361 286 c 0
EndSplineSet
Validated: 1
Layer: 2
SplineSet
134 638 m 1,0,-1
 134 314 l 1,1,-1
 191 314 l 2,2,3
 234 314 234 314 234 281 c 0,4,5
 234 247 234 247 191 247 c 2,6,-1
 10 247 l 2,7,8
 -34 247 -34 247 -34 281 c 0,9,10
 -34 314 -34 314 10 314 c 2,11,-1
 67 314 l 1,12,-1
 67 551 l 1,13,-1
 19 539 l 2,14,15
 4 535 4 535 -1 535 c 0,16,17
 -14 535 -14 535 -23 545.5 c 128,-1,18
 -32 556 -32 556 -32 570 c 128,-1,19
 -32 584 -32 584 -24.5 591.5 c 128,-1,20
 -17 599 -17 599 2 604 c 2,21,-1
 134 638 l 1,0,-1
473 528 m 2,22,-1
 213 77 l 2,23,24
 198 51 198 51 179 51 c 0,25,26
 166 51 166 51 155.5 61 c 128,-1,27
 145 71 145 71 145 84 c 0,28,29
 145 94 145 94 155 110 c 2,30,-1
 415 561 l 2,31,32
 431 587 431 587 450 587 c 0,33,34
 463 587 463 587 473.5 577 c 128,-1,35
 484 567 484 567 484 555 c 0,36,37
 484 546 484 546 473 528 c 2,22,-1
361 286 m 0,38,39
 361 319 361 319 398 354.5 c 128,-1,40
 435 390 435 390 494 390 c 0,41,42
 550 390 550 390 587.5 356 c 128,-1,43
 625 322 625 322 625 270 c 0,44,45
 625 232 625 232 595 196.5 c 128,-1,46
 565 161 565 161 453 67 c 1,47,-1
 562 67 l 1,48,49
 567 99 567 99 595 99 c 0,50,51
 629 99 629 99 629 56 c 2,52,-1
 629 0 l 1,53,-1
 349 0 l 1,54,-1
 349 68 l 1,55,56
 488 183 488 183 523 217.5 c 128,-1,57
 558 252 558 252 558 273 c 128,-1,58
 558 294 558 294 539.5 308.5 c 128,-1,59
 521 323 521 323 493 323 c 0,60,61
 438 323 438 323 425 273 c 0,62,63
 418 253 418 253 395 253 c 0,64,65
 381 253 381 253 371 262.5 c 128,-1,66
 361 272 361 272 361 286 c 0,38,39
EndSplineSet
EndChar

